SplineFontDB: 3.0
FontName: Erbarre
FullName: Erbarre Regular
FamilyName: Erbarre
Weight: Medium
Copyright: Copyright (c) 2015-2016 Open Source Publishing Released under the OFL 1.1 - Partly generated with GlyphTracer 1.4
Version: 001.000
ItalicAngle: 0
UnderlinePosition: -48
UnderlineWidth: 12
Ascent: 800
Descent: 200
sfntRevision: 0x00010000
LayerCount: 2
Layer: 0 1 "Back"  1
Layer: 1 1 "Fore"  0
XUID: [1021 77 754732692 3563323]
FSType: 4
OS2Version: 3
OS2_WeightWidthSlopeOnly: 0
OS2_UseTypoMetrics: 1
CreationTime: 1444915100
ModificationTime: 1454758159
PfmFamily: 17
TTFWeight: 500
TTFWidth: 5
LineGap: 0
VLineGap: 0
Panose: 2 0 6 3 0 0 0 0 0 0
OS2TypoAscent: 800
OS2TypoAOffset: 0
OS2TypoDescent: -200
OS2TypoDOffset: 0
OS2TypoLinegap: 0
OS2WinAscent: 974
OS2WinAOffset: 0
OS2WinDescent: 300
OS2WinDOffset: 0
HheadAscent: 974
HheadAOffset: 0
HheadDescent: -300
HheadDOffset: 0
OS2SubXSize: 650
OS2SubYSize: 700
OS2SubXOff: 0
OS2SubYOff: 140
OS2SupXSize: 650
OS2SupYSize: 700
OS2SupXOff: 0
OS2SupYOff: 480
OS2StrikeYSize: 50
OS2StrikeYPos: 259
OS2Vendor: 'PfEd'
OS2CodePages: 00000001.00000000
OS2UnicodeRanges: 80000007.00000000.00000000.00000000
MarkAttachClasses: 1
DEI: 91125
TtTable: prep
PUSHW_1
 511
SCANCTRL
PUSHB_1
 1
SCANTYPE
SVTCA[y-axis]
MPPEM
PUSHB_1
 8
LT
IF
PUSHB_2
 1
 1
INSTCTRL
EIF
PUSHB_2
 70
 6
CALL
IF
POP
PUSHB_1
 16
EIF
MPPEM
PUSHB_1
 20
GT
IF
POP
PUSHB_1
 128
EIF
SCVTCI
PUSHB_1
 6
CALL
NOT
IF
SVTCA[y-axis]
PUSHB_1
 3
DUP
RCVT
PUSHB_1
 3
CALL
WCVTP
PUSHB_1
 4
DUP
RCVT
PUSHB_3
 3
 220
 2
CALL
PUSHB_1
 3
CALL
WCVTP
PUSHB_1
 5
DUP
RCVT
PUSHB_3
 3
 206
 2
CALL
PUSHB_1
 3
CALL
WCVTP
PUSHB_1
 6
DUP
RCVT
PUSHB_3
 5
 86
 2
CALL
PUSHB_1
 3
CALL
WCVTP
SVTCA[x-axis]
PUSHB_1
 7
DUP
RCVT
PUSHB_1
 3
CALL
WCVTP
PUSHB_1
 10
DUP
RCVT
PUSHB_3
 7
 183
 2
CALL
PUSHB_2
 3
 70
SROUND
CALL
WCVTP
PUSHB_1
 9
DUP
RCVT
PUSHB_3
 10
 106
 2
CALL
PUSHB_2
 3
 70
SROUND
CALL
WCVTP
PUSHB_1
 8
DUP
RCVT
PUSHB_3
 9
 72
 2
CALL
PUSHB_2
 3
 70
SROUND
CALL
WCVTP
PUSHB_1
 11
DUP
RCVT
PUSHW_3

StartChar: .notdef
Encoding: 65536 -1 0
Width: 766
Flags: W
LayerCount: 2
Fore
SplineSet
33 33 m 1,0,-1
 233 33 l 1,1,-1
 233 633 l 1,2,-1
 33 633 l 1,3,-1
 33 33 l 1,0,-1
0 0 m 1,4,-1
 0 667 l 1,5,-1
 266 667 l 1,6,-1
 266 0 l 1,7,-1
 0 0 l 1,4,-1
EndSplineSet
EndChar

StartChar: exclam
Encoding: 33 33 4
Width: 235
GlyphClass: 2
Flags: W
LayerCount: 2
Fore
SplineSet
67 674 m 2,0,-1
 68 677 l 1,1,-1
 115 677 l 1,2,-1
 162 677 l 1,3,-1
 162 655 l 2,4,5
 162 635 162 635 160.5 603.5 c 128,-1,6
 159 572 159 572 158 570 c 0,7,8
 157 569 157 569 156 548 c 0,9,10
 155 518 155 518 154 513 c 0,11,12
 152 497 152 497 153 489 c 1,13,14
 153 477 153 477 152 473 c 128,-1,15
 151 469 151 469 150 442 c 0,16,17
 150 420 150 420 149 407 c 0,18,19
 148 397 148 397 147.5 379.5 c 128,-1,20
 147 362 147 362 146 354 c 0,21,22
 145 336 145 336 144 325 c 1,23,24
 144 306 144 306 143 305 c 0,25,26
 141 302 141 302 139 217 c 0,27,28
 138 168 138 168 135 164 c 1,29,30
 132 162 132 162 114 162 c 0,31,32
 110 162 110 162 108 161 c 1,33,34
 96 161 96 161 94 163 c 0,35,36
 91 166 91 166 91 171 c 0,37,38
 91 173 91 173 91.5 181.5 c 128,-1,39
 92 190 92 190 91 193 c 0,40,41
 89 201 89 201 88 243 c 0,42,43
 84 364 84 364 83 368 c 0,44,45
 81 373 81 373 80 448 c 0,46,47
 79 475 79 475 78 476 c 0,48,49
 77 478 77 478 75.5 510.5 c 128,-1,50
 74 543 74 543 74 567 c 0,51,52
 73 593 73 593 71 595 c 1,53,-1
 71 619 l 1,54,55
 70 643 70 643 68 651 c 0,56,57
 66 662 66 662 66 668 c 0,58,59
 66 672 66 672 67 674 c 2,0,-1
62 55 m 0,60,61
 62 66 62 66 64 73 c 128,-1,62
 66 80 66 80 68 84 c 2,63,-1
 71 89 l 2,64,65
 71 90 71 90 74.5 95 c 128,-1,66
 78 100 78 100 79 100 c 128,-1,67
 80 100 80 100 84 103 c 0,68,69
 95 111 95 111 106 114 c 0,70,71
 107 114 107 114 108.5 114.5 c 128,-1,72
 110 115 110 115 111 116 c 1,73,-1
 112 116 l 1,74,-1
 114 116 l 1,75,-1
 122 115 l 1,76,77
 147 113 147 113 164 91 c 0,78,79
 170 83 170 83 172 72 c 0,80,81
 174 63 174 63 174 55 c 0,82,83
 174 49 174 49 173 42 c 0,84,85
 170 28 170 28 160 17 c 0,86,87
 154 10 154 10 149 6.5 c 128,-1,88
 144 3 144 3 134 0 c 0,89,90
 127 -2 127 -2 118 -2 c 0,91,92
 108 -2 108 -2 106 -1 c 0,93,94
 105 -1 105 -1 100 0 c 0,95,96
 93 2 93 2 86 7 c 0,97,98
 82 10 82 10 76.5 15.5 c 128,-1,99
 71 21 71 21 71 22 c 128,-1,100
 71 23 71 23 70 26 c 1,101,102
 66 31 66 31 64 40 c 0,103,104
 62 45 62 45 62 55 c 0,60,61
EndSplineSet
EndChar

StartChar: quotedbl
Encoding: 34 34 5
Width: 389
GlyphClass: 2
Flags: W
LayerCount: 2
Fore
SplineSet
208 542 m 0,0,1
 208 543 208 543 211 552 c 0,2,3
 211 553 211 553 212.5 556.5 c 128,-1,4
 214 560 214 560 214 561 c 0,5,6
 221 584 221 584 225 608 c 0,7,8
 226 614 226 614 227 615 c 128,-1,9
 228 616 228 616 229 620 c 1,10,11
 229 625 229 625 237 658 c 0,12,13
 239 667 239 667 241 677 c 0,14,15
 245 700 245 700 247 704 c 0,16,17
 248 706 248 706 253.5 706.5 c 128,-1,18
 259 707 259 707 286 708 c 1,19,-1
 314 708 l 1,20,-1
 332 708 l 2,21,22
 343 708 343 708 346 707 c 128,-1,23
 349 706 349 706 349 701 c 0,24,25
 349 695 349 695 335 673 c 0,26,27
 331 666 331 666 329 662 c 0,28,29
 323 647 323 647 303 608 c 0,30,31
 286 576 286 576 279 559 c 0,32,33
 274 547 274 547 268 536 c 0,34,35
 268 535 268 535 264 528 c 2,36,-1
 259 517 l 2,37,38
 254 504 254 504 250 502 c 0,39,40
 248 500.667 248 500.667 242.444 500.667 c 0,41,42
 239.667 500.667 239.667 500.667 236 501 c 2,43,44
 226 501 l 2,45,46
 208 501 208 501 204 503 c 0,47,48
 201 505 201 505 201 510 c 0,49,50
 201 525 201 525 208 542 c 0,0,1
40 506 m 0,51,52
 40 507 40 507 48 534 c 0,53,54
 51 545 51 545 52 550 c 0,55,56
 52 555 52 555 55 563 c 0,57,58
 63 586 63 586 63 595 c 0,59,60
 63 597 63 597 64 599 c 1,61,62
 66 600 66 600 66 604 c 2,63,-1
 72 628 l 2,64,65
 72 629 72 629 73 634 c 128,-1,66
 74 639 74 639 75 641 c 0,67,68
 76 647 76 647 79 660 c 0,69,70
 80 667 80 667 83 682 c 0,71,72
 86 700 86 700 90 704 c 0,73,74
 92 706 92 706 141 707 c 1,75,76
 168 707 l 2,77,78
 190 707 190 707 192 706 c 0,79,80
 192.5 705.75 192.5 705.75 192.5 704.875 c 0,81,82
 192.5 702.25 192.5 702.25 188 694 c 0,83,84
 172 665 172 665 136 590 c 1,85,-1
 129 577 l 1,86,87
 110 544 110 544 105 528 c 0,88,89
 95 501 95 501 90 501 c 2,90,91
 70 501 l 2,92,93
 40 501 40 501 40 506 c 0,51,52
EndSplineSet
EndChar

StartChar: numbersign
Encoding: 35 35 6
Width: 438
GlyphClass: 2
Flags: W
LayerCount: 2
Fore
SplineSet
174 272 m 0,0,1
 173 270 173 270 173 268 c 128,-1,2
 173 266 173 266 176 264 c 0,3,4
 178 263 178 263 189 263 c 2,5,6
 208 263 l 2,7,8
 240 263 240 263 241 265 c 1,9,10
 243 266 243 266 245 278 c 0,11,12
 247 297 247 297 250 312 c 0,13,14
 254 334 254 334 257 343 c 1,15,16
 258 352 258 352 262 368 c 0,17,18
 262 370 262 370 262 372 c 2,19,-1
 262 375 l 1,20,21
 261 376 261 376 248 376 c 2,22,23
 231 376 l 2,24,25
 202 376 202 376 196.5 375 c 128,-1,26
 191 374 191 374 191 368 c 128,-1,27
 191 362 191 362 190 357 c 0,28,29
 190 356 190 356 189 349.5 c 128,-1,30
 188 343 188 343 187 339 c 0,31,32
 187 337 187 337 186 330 c 128,-1,33
 185 323 185 323 184 321 c 0,34,35
 184 319 184 319 179 296 c 0,36,37
 176 278 176 278 174 272 c 0,0,1
23 223 m 1,38,-1
 23 224 l 1,39,40
 25 235 25 235 27 252 c 0,41,42
 28 261 28 261 31 263 c 0,43,44
 33 265 33 265 36 265.5 c 128,-1,45
 39 266 39 266 49 265 c 0,46,47
 62 264 62 264 80 264 c 128,-1,48
 98 264 98 264 98 265 c 128,-1,49
 98 266 98 266 99 274 c 0,50,51
 100 288 100 288 104 306 c 0,52,53
 104 308 104 308 105.5 313 c 128,-1,54
 107 318 107 318 107 320 c 0,55,56
 108 326 108 326 109.5 332.5 c 128,-1,57
 111 339 111 339 112 342 c 0,58,59
 113 348 113 348 115 359 c 0,60,61
 115 360 115 360 116 362 c 0,62,63
 118 372 118 372 115 373.5 c 128,-1,64
 112 375 112 375 92 375 c 2,65,-1
 87 375 l 1,66,-1
 56 375 l 1,67,68
 54 376 54 376 54 385 c 128,-1,69
 54 394 54 394 56 400 c 0,70,71
 57 402 57 402 59 417 c 0,72,73
 60 427 60 427 62.5 429.5 c 128,-1,74
 65 432 65 432 76 431 c 0,75,76
 93 430 93 430 108 429 c 1,77,-1
 129 429 l 1,78,-1
 129 432 l 1,79,80
 130 436 130 436 131 443 c 0,81,82
 134 470 134 470 137 482 c 0,83,84
 139 488 139 488 138 490 c 1,85,86
 138 494 138 494 139 497 c 0,87,88
 139 498 139 498 140.5 503 c 128,-1,89
 142 508 142 508 142 511 c 0,90,91
 144 525 144 525 148 537 c 0,92,93
 149 542 149 542 151 556 c 0,94,95
 152 560 152 560 153.5 568 c 128,-1,96
 155 576 155 576 155 579 c 128,-1,97
 155 582 155 582 156.5 587.5 c 128,-1,98
 158 593 158 593 158 594 c 0,99,100
 159 602 159 602 162.5 603.5 c 128,-1,101
 166 605 166 605 180 605 c 2,102,-1
 210 605 l 1,103,104
 222 605 l 1,105,106
 229 604 229 604 232 604 c 1,107,108
 236 602 236 602 233 592 c 0,109,110
 233 590 233 590 232 584.5 c 128,-1,111
 231 579 231 579 230 577 c 0,112,113
 230 575 230 575 229 569 c 128,-1,114
 228 563 228 563 228 562 c 0,115,116
 226 549 226 549 225 546 c 0,117,118
 223 532 223 532 217 510 c 1,119,-1
 217 500 l 2,120,121
 217 495 217 495 214 490 c 1,122,123
 213 486 213 486 210 476 c 0,124,125
 207 463 207 463 207 457 c 1,126,127
 202 433 202 433 203 431 c 0,128,129
 203 429 203 429 236 429 c 0,130,131
 268 429 268 429 271 430 c 0,132,133
 273 431 273 431 275.5 444.5 c 128,-1,134
 278 458 278 458 279 469 c 1,135,136
 282 485 282 485 282 486 c 0,137,138
 287 509 287 509 288 517 c 0,139,140
 289 524 289 524 290 526 c 0,141,142
 291 530 291 530 291 531 c 2,143,-1
 291 532 l 1,144,-1
 291 534 l 2,145,146
 291 536 291 536 292 537 c 0,147,148
 295 549 295 549 298 572 c 0,149,150
 302 600 302 600 304 603 c 0,151,152
 306 605 306 605 345 605 c 0,153,154
 387 605 387 605 388 603 c 0,155,156
 388 602 388 602 387 599 c 0,157,158
 386 597 386 597 383 585 c 0,159,160
 383 582 383 582 381.5 575.5 c 128,-1,161
 380 569 380 569 380 568 c 0,162,163
 378 561 378 561 377 553 c 0,164,165
 375 542 375 542 374 538 c 0,166,167
 372 529 372 529 371 523 c 0,168,169
 371 518 371 518 368 508 c 0,170,171
 368 507 368 507 367.5 504 c 128,-1,172
 367 501 367 501 366.5 498 c 128,-1,173
 366 495 366 495 365 493 c 0,174,175
 363 484 363 484 363 483 c 0,176,177
 362 481 362 481 358.5 464.5 c 128,-1,178
 355 448 355 448 354 440 c 0,179,180
 353 431 353 431 355.5 430 c 128,-1,181
 358 429 358 429 371 430 c 0,182,183
 397 431 397 431 407 431 c 2,184,185
 414 431 l 1,186,187
 417 430 417 430 417 421 c 0,188,189
 417 407 417 407 413 393 c 0,190,191
 410 381 410 381 410 379 c 0,192,193
 410 376 410 376 404 375 c 128,-1,194
 398 374 398 374 375 375 c 0,195,196
 359 376 359 376 345 375 c 1,197,198
 340 373 340 373 339 364 c 0,199,200
 339 359 339 359 336 342 c 0,201,202
 332 317 332 317 330 306 c 0,203,204
 330 305 330 305 325 285 c 0,205,206
 321 269 321 269 322 266 c 0,207,208
 323 264 323 264 329.5 264 c 128,-1,209
 336 264 336 264 359 265 c 1,210,211
 371 265 l 2,212,213
 387 265 387 265 390 263 c 1,214,-1
 389 259 l 1,215,216
 386 255 386 255 382 228 c 0,217,218
 380 212 380 212 379 211 c 128,-1,219
 378 210 378 210 346 210 c 2,220,-1
 342 210 l 1,221,222
 319 211 319 211 314.5 209.5 c 128,-1,223
 310 208 310 208 309 199 c 1,224,-1
 309 198 l 1,225,226
 308 194 308 194 306 177 c 1,227,228
 303 163 303 163 298 131 c 1,229,230
 298 121 298 121 292 103 c 1,231,232
 291 96 291 96 289 86 c 0,233,234
 289 85 289 85 288.5 80.5 c 128,-1,235
 288 76 288 76 287 73 c 0,236,237
 287 71 287 71 286 63 c 128,-1,238
 285 55 285 55 284 53 c 0,239,240
 282 42 282 42 281 41 c 128,-1,241
 280 40 280 40 241 39 c 1,242,-1
 236 39 l 1,243,244
 217 39 l 1,245,246
 204 40 204 40 202 40 c 0,247,248
 198 42 198 42 200 49 c 1,249,-1
 200 50 l 1,250,251
 202 57 202 57 202 61 c 0,252,253
 202 63 202 63 204 69 c 0,254,255
 205 73 205 73 208 83 c 1,256,257
 208 88 208 88 210 96 c 0,258,259
 220 145 220 145 221 155 c 0,260,261
 221 158 221 158 223 164 c 0,262,263
 228 184 228 184 229 190 c 0,264,265
 229 191 229 191 230 196 c 128,-1,266
 231 201 231 201 232 203 c 0,267,268
 233 210 233 210 232 211 c 128,-1,269
 231 212 231 212 198 212 c 0,270,271
 193 212 193 212 188 212 c 2,272,-1
 179 212 l 2,273,274
 175 212 175 212 172 211.5 c 128,-1,275
 169 211 169 211 167 211 c 2,276,-1
 165 211 l 2,277,278
 163 211 163 211 160 191 c 0,279,280
 151 128 151 128 148 117 c 1,281,282
 146 105 146 105 146 104 c 2,283,-1
 146 94 l 1,284,285
 142 76 142 76 137 49 c 1,286,-1
 137 47 l 1,287,288
 136 40 136 40 131.5 39.5 c 128,-1,289
 127 39 127 39 103 38 c 1,290,-1
 98 38 l 2,291,292
 60 38 60 38 58 39 c 0,293,294
 51 40 51 40 55 53 c 0,295,296
 60 71 60 71 60 78 c 0,297,298
 60 82 60 82 62 85 c 128,-1,299
 64 88 64 88 64 96 c 1,300,301
 65 102 65 102 70 123 c 0,302,303
 73 133 73 133 78 168 c 0,304,305
 79 173 79 173 81 178 c 0,306,307
 83 181 83 181 82 183 c 128,-1,308
 81 185 81 185 83 190 c 0,309,310
 85 194 85 194 85.5 201 c 128,-1,311
 86 208 86 208 85 210 c 0,312,313
 84 211 84 211 55 210 c 1,314,-1
 51 210 l 1,315,316
 28 209 28 209 24 211 c 0,317,318
 22 212 22 212 22 217 c 0,319,320
 22 219 22 219 23 223 c 1,38,-1
EndSplineSet
EndChar

StartChar: dollar
Encoding: 36 36 7
Width: 436
GlyphClass: 2
Flags: W
LayerCount: 2
Fore
SplineSet
142 123 m 1,0,1
 144 123 144 123 162 112 c 128,-1,2
 180 101 180 101 187.5 101 c 128,-1,3
 195 101 195 101 203 103 c 1,4,-1
 203 128 l 1,5,6
 202 149 202 149 202 213.5 c 128,-1,7
 202 278 202 278 203 304.5 c 128,-1,8
 204 331 204 331 202.5 334.5 c 128,-1,9
 201 338 201 338 193 347 c 128,-1,10
 185 356 185 356 183.5 356 c 128,-1,11
 182 356 182 356 176 363.5 c 128,-1,12
 170 371 170 371 162 380 c 0,13,14
 122 425 122 425 114 437.5 c 128,-1,15
 106 450 106 450 100 459 c 128,-1,16
 94 468 94 468 94 470 c 128,-1,17
 94 472 94 472 88 484 c 0,18,19
 78 503 78 503 73 522 c 1,20,21
 67 534 67 534 67 560 c 0,22,23
 67 607 67 607 85.5 636 c 128,-1,24
 104 665 104 665 106 666 c 128,-1,25
 108 667 108 667 119 673 c 1,26,27
 141 690 141 690 150 692 c 0,28,29
 168 698 168 698 175 701 c 1,30,31
 185 703 185 703 194 704 c 128,-1,32
 203 705 203 705 204 706 c 128,-1,33
 205 707 205 707 205 717 c 128,-1,34
 205 727 205 727 203.5 750 c 128,-1,35
 202 773 202 773 203 776.5 c 128,-1,36
 204 780 204 780 210 781 c 128,-1,37
 216 782 216 782 226.5 782 c 128,-1,38
 237 782 237 782 240 780 c 0,39,40
 243 777 243 777 242 750.5 c 128,-1,41
 241 724 241 724 240.5 717 c 128,-1,42
 240 710 240 710 242 707 c 128,-1,43
 244 704 244 704 259 704 c 128,-1,44
 274 704 274 704 301.5 692.5 c 128,-1,45
 329 681 329 681 352.5 661 c 128,-1,46
 376 641 376 641 376 634 c 1,47,-1
 352 609 l 1,48,49
 326 584 l 1,50,51
 322 588 322 588 318 592 c 0,52,53
 304 604 304 604 299 609 c 128,-1,54
 294 614 294 614 272.5 624.5 c 128,-1,55
 251 635 251 635 245 634 c 1,56,-1
 241 634 l 1,57,-1
 241 422 l 1,58,-1
 265 399 l 2,59,60
 292 372 292 372 294.5 368.5 c 128,-1,61
 297 365 297 365 308.5 353 c 128,-1,62
 320 341 320 341 323 336.5 c 128,-1,63
 326 332 326 332 332.5 323.5 c 128,-1,64
 339 315 339 315 339 314 c 128,-1,65
 339 313 339 313 345.5 304.5 c 128,-1,66
 352 296 352 296 359 282 c 2,67,-1
 367 266 l 2,68,69
 381 240 381 240 384 185 c 1,70,71
 384 143 384 143 369 116 c 128,-1,72
 354 89 354 89 341 76 c 128,-1,73
 328 63 328 63 303 49.5 c 128,-1,74
 278 36 278 36 260 34 c 128,-1,75
 242 32 242 32 240.5 27.5 c 128,-1,76
 239 23 239 23 240 14 c 0,77,78
 241 -15 241 -15 241 -48.5 c 128,-1,79
 241 -82 241 -82 238.5 -84.5 c 128,-1,80
 236 -87 236 -87 221 -87 c 128,-1,81
 206 -87 206 -87 204 -85.5 c 128,-1,82
 202 -84 202 -84 202 -47.5 c 128,-1,83
 202 -11 202 -11 203 6 c 128,-1,84
 204 23 204 23 202.5 25.5 c 128,-1,85
 201 28 201 28 174 31 c 128,-1,86
 147 34 147 34 132 43 c 128,-1,87
 117 52 117 52 115 52 c 0,88,89
 93 63 93 63 71 85 c 128,-1,90
 49 107 49 107 49 110 c 0,91,92
 49 118 49 118 62 126.5 c 128,-1,93
 75 135 75 135 86 146.5 c 128,-1,94
 97 158 97 158 101 158 c 128,-1,95
 105 158 105 158 121.5 142 c 128,-1,96
 138 126 138 126 142 123 c 1,0,1
201 633 m 128,-1,98
 199 633 199 633 187 629 c 128,-1,99
 175 625 175 625 162 610 c 0,100,101
 150 595 150 595 150 564.5 c 128,-1,102
 150 534 150 534 170 503 c 0,103,104
 170 502 170 502 174 496 c 0,105,106
 176 492 176 492 182 486 c 1,107,108
 198 465 198 465 202 465 c 0,109,110
 205 465 205 465 205 489 c 0,111,112
 205 493 205 493 204.5 496.5 c 128,-1,113
 204 500 204 500 204 557 c 0,114,115
 204 586 204 586 205 606 c 128,-1,116
 206 626 206 626 204.5 629.5 c 128,-1,97
 203 633 203 633 201 633 c 128,-1,98
240 148 m 1,117,118
 239 147 239 147 238.5 126.5 c 0,119,120
 238.4 122.4 238.4 122.4 238.4 119.04 c 0,121,122
 238.4 105.6 238.4 105.6 240 104 c 1,123,-1
 241 104 l 2,124,125
 244 104 244 104 260 114 c 0,126,127
 299 136 299 136 299 186 c 0,128,129
 299 223 299 223 271 262 c 0,130,131
 269 264 269 264 262 273 c 1,132,133
 256 284 256 284 250 290 c 128,-1,134
 244 296 244 296 242 296 c 128,-1,135
 240 296 240 296 239 293 c 1,136,-1
 239 260 l 1,137,138
 240 234 240 234 240 192 c 2,139,-1
 240 148 l 1,117,118
EndSplineSet
EndChar

StartChar: percent
Encoding: 37 37 8
Width: 704
GlyphClass: 2
Flags: W
LayerCount: 2
Fore
SplineSet
478 160 m 0,0,1
 480 124 480 124 484 98 c 0,2,3
 487 80 487 80 491 73 c 0,4,5
 494 67 494 67 495 63 c 0,6,7
 497 59 497 59 506 49 c 0,8,9
 514 41 514 41 521 37.5 c 128,-1,10
 528 34 528 34 540 34 c 128,-1,11
 552 34 552 34 560 39 c 128,-1,12
 568 44 568 44 578 57 c 0,13,14
 592 77 592 77 599 139 c 0,15,16
 600 151 600 151 600 179 c 128,-1,17
 600 207 600 207 599 212 c 128,-1,18
 598 217 598 217 597 233 c 0,19,20
 596 247 596 247 595 253 c 1,21,22
 593 257 593 257 592 266 c 0,23,24
 591 273 591 273 589 277 c 0,25,26
 587 280 587 280 586 286 c 0,27,28
 584 294 584 294 573.5 306 c 128,-1,29
 563 318 563 318 556 321 c 0,30,31
 551 323 551 323 543 324 c 1,32,33
 531 324 531 324 523.5 321 c 128,-1,34
 516 318 516 318 507 309 c 0,35,36
 495 297 495 297 489 279 c 128,-1,37
 483 261 483 261 479 227 c 0,38,39
 477 206 477 206 477 184 c 1,40,41
 478 172 478 172 478 160 c 0,0,1
405 186.5 m 128,-1,43
 405 218 405 218 408 232 c 0,44,45
 409 239 409 239 410 242 c 1,46,47
 410 246 410 246 413 258 c 0,48,49
 425 310 425 310 451 341 c 0,50,51
 465 357 465 357 467 358 c 0,52,53
 488 374 488 374 499 377 c 0,54,55
 506 379 506 379 513 382 c 0,56,57
 519 384 519 384 538.5 384 c 128,-1,58
 558 384 558 384 567 382 c 0,59,60
 583 379 583 379 599 368.5 c 128,-1,61
 615 358 615 358 625 344 c 0,62,63
 642 322 642 322 643 321 c 0,64,65
 643 320 643 320 649 307 c 0,66,67
 657 290 657 290 661 274.5 c 128,-1,68
 665 259 665 259 669 227 c 0,69,70
 671 213 671 213 671 185 c 1,71,72
 670 178 670 178 670 170 c 0,73,74
 670 132 670 132 667 116 c 0,75,76
 659 72 659 72 645.5 45.5 c 128,-1,77
 632 19 632 19 607 -3 c 0,78,79
 581 -27 581 -27 541 -27 c 0,80,81
 534 -27 534 -27 527 -26 c 0,82,83
 512 -25 512 -25 497.5 -20 c 128,-1,84
 483 -15 483 -15 478 -9 c 0,85,86
 476 -7 476 -7 467 0 c 0,87,88
 459 6 459 6 454 12 c 0,89,90
 448 19 448 19 446 23 c 0,91,92
 443 27 443 27 442 28 c 0,93,94
 442 29 442 29 438 35 c 0,95,96
 426 51 426 51 419 75 c 0,97,98
 416 85 416 85 415 90 c 0,99,100
 413 97 413 97 408 131 c 0,101,42
 405 155 405 155 405 186.5 c 128,-1,43
154 -33 m 0,102,103
 154 -31 154 -31 154 -29 c 0,104,105
 156 -25 156 -25 163 -10 c 0,106,107
 177 17 177 17 189 42 c 0,108,109
 191 46 191 46 210 85 c 0,110,111
 222 109 222 109 224 117 c 0,112,113
 227 127 227 127 229 130 c 0,114,115
 238 145 238 145 250 172 c 1,116,-1
 259 190 l 2,117,118
 267 205 267 205 270 212 c 0,119,120
 277 227 277 227 306 288 c 0,121,122
 318 311 318 311 318 312 c 128,-1,123
 318 313 318 313 323 324 c 0,124,125
 339 353 339 353 342 363 c 0,126,127
 344 370 344 370 346 372 c 2,128,-1
 348 375 l 1,129,-1
 352 384 l 1,130,131
 356 390 356 390 362 403 c 0,132,133
 371 426 371 426 378 438 c 0,134,135
 379 440 379 440 385 453 c 1,136,137
 388 462 388 462 397 479 c 0,138,139
 405 495 405 495 409 504 c 1,140,141
 411 511 411 511 418.5 526.5 c 128,-1,142
 426 542 426 542 429 546 c 0,143,144
 433 552 433 552 436 560 c 1,145,146
 438 570 438 570 443 577 c 0,147,148
 457 600 457 600 457 604 c 0,149,150
 457 605 457 605 464.5 620.5 c 128,-1,151
 472 636 472 636 475 641 c 0,152,153
 478 647 478 647 481 654 c 0,154,155
 483 660 483 660 489.5 674 c 128,-1,156
 496 688 496 688 500 694 c 0,157,158
 503 698 503 698 504 706 c 0,159,160
 506 714 506 714 510 716 c 128,-1,161
 514 718 514 718 527 719 c 0,162,163
 531 719 531 719 535 719 c 0,164,165
 550 719 550 719 552 716 c 0,166,167
 552.8 715.2 552.8 715.2 552.8 713.76 c 0,168,169
 552.8 711.6 552.8 711.6 551 708 c 0,170,171
 547 699 547 699 543 693 c 0,172,173
 532 675 532 675 532 671 c 0,174,175
 532 670 532 670 522 651 c 0,176,177
 512 630 512 630 510 623 c 0,178,179
 507 614 507 614 503 610 c 1,180,181
 500 605 500 605 493.5 593 c 128,-1,182
 487 581 487 581 485 575 c 0,183,184
 477 556 477 556 473 548 c 0,185,186
 470 544 470 544 462 528 c 1,187,188
 455 510 455 510 437 475 c 0,189,190
 434 469 434 469 434 465 c 0,191,192
 434 463 434 463 428 453 c 0,193,194
 412 425 412 425 408 412 c 0,195,196
 408 410 408 410 402 398 c 0,197,198
 397 389 397 389 390 373 c 0,199,200
 381 351 381 351 369 332 c 0,201,202
 365 326 365 326 362 317 c 0,203,204
 358 307 358 307 347 285 c 0,205,206
 315 218 315 218 312 210 c 0,207,208
 311 206 311 206 303 190.5 c 128,-1,209
 295 175 295 175 293 173 c 1,210,-1
 290 164 l 2,211,212
 289 160 289 160 281 146 c 0,213,214
 275 134 275 134 270 125 c 0,215,216
 264 112 264 112 263 109 c 0,217,218
 261 101 261 101 254 92 c 1,219,-1
 248 80 l 2,220,221
 248 79 248 79 242 66 c 0,222,223
 236 52 236 52 235 51 c 0,224,225
 235 50 235 50 231 43 c 0,226,227
 226 35 226 35 225 29 c 0,228,229
 222 19 222 19 208 -9 c 128,-1,230
 194 -37 194 -37 192 -38 c 0,231,232
 191 -39 191 -39 178 -39.5 c 128,-1,233
 165 -40 165 -40 158 -40 c 0,234,235
 154 -40 154 -40 154 -33 c 0,102,103
105 493 m 1,236,237
 106 455 106 455 107 448 c 2,238,-1
 110 433 l 1,239,240
 111 420 111 420 117 399 c 0,241,242
 119 393 119 393 124.5 382 c 128,-1,243
 130 371 130 371 134 367 c 0,244,245
 141 359 141 359 156 355 c 0,246,247
 161 354 161 354 166 354 c 0,248,249
 178 354 178 354 188 361 c 0,250,251
 204 373 204 373 212 394 c 0,252,253
 217 408 217 408 218 414 c 1,254,255
 220 419 220 419 221 436 c 0,256,257
 223 462 223 462 223 463 c 0,258,259
 224 466 224 466 224 476 c 0,260,261
 224 485 224 485 223 501 c 0,262,263
 222 533 222 533 221 535 c 1,264,-1
 221 560 l 1,265,266
 219 588 219 588 218 590 c 0,267,268
 214 605 214 605 209 616 c 128,-1,269
 204 627 204 627 199 632 c 128,-1,270
 194 637 194 637 187 640 c 0,271,272
 178 645 178 645 167 646 c 1,273,274
 155 646 155 646 149 644 c 128,-1,275
 143 642 143 642 137 635 c 0,276,277
 125 622 125 622 119 606 c 128,-1,278
 113 590 113 590 108 556 c 0,279,280
 105 532 105 532 105 493 c 1,236,237
34 483 m 0,281,282
 33 503 33 503 33 515.5 c 128,-1,283
 33 528 33 528 34 532 c 0,284,285
 36 542 36 542 37 554 c 0,286,287
 41 583 41 583 45.5 598.5 c 128,-1,288
 50 614 50 614 62 639 c 0,289,290
 67 649 67 649 72 655.5 c 128,-1,291
 77 662 77 662 87 673 c 0,292,293
 104 690 104 690 119.5 697.5 c 128,-1,294
 135 705 135 705 158 706 c 1,295,296
 167 706 l 2,297,298
 185 706 185 706 197 703 c 0,299,300
 212 699 212 699 227.5 687.5 c 128,-1,301
 243 676 243 676 255 660 c 0,302,303
 263 650 263 650 272.5 630.5 c 128,-1,304
 282 611 282 611 285 601 c 0,305,306
 298 550 298 550 298 501 c 0,307,308
 298 465 298 465 291 430 c 0,309,310
 289 417 289 417 287 412 c 1,311,312
 287 407 287 407 283.5 397.5 c 128,-1,313
 280 388 280 388 279 386 c 2,314,-1
 273 375 l 1,315,316
 258 339 258 339 235 321 c 0,317,318
 224 313 224 313 220 309 c 0,319,320
 212 302 212 302 194 298 c 0,321,322
 182 295 182 295 169 295 c 0,323,324
 163 295 163 295 156 296 c 0,325,326
 122 299 122 299 101 314 c 0,327,328
 90 322 90 322 79.5 334.5 c 128,-1,329
 69 347 69 347 65 356 c 0,330,331
 60 366 60 366 58 371 c 0,332,333
 52 383 52 383 48.5 393.5 c 128,-1,334
 45 404 45 404 40 429 c 1,335,336
 36 443 36 443 34 483 c 0,281,282
EndSplineSet
EndChar

StartChar: ampersand
Encoding: 38 38 9
Width: 495
GlyphClass: 2
Flags: W
LayerCount: 2
Fore
SplineSet
173 528.5 m 128,-1,1
 173 514 173 514 174 512 c 0,2,3
 175 511 175 511 177 505 c 1,4,5
 178 498 178 498 194 467 c 128,-1,6
 210 436 210 436 213 435 c 0,7,8
 217 433 217 433 222.5 436.5 c 128,-1,9
 228 440 228 440 238 451 c 0,10,11
 250 464 250 464 260 479.5 c 128,-1,12
 270 495 270 495 272 505 c 0,13,14
 276 526 276 526 276 538 c 0,15,16
 276 570 276 570 247 585 c 0,17,18
 235 591 235 591 224 591 c 0,19,20
 220 591 220 591 216 590 c 0,21,22
 200 587 200 587 187 575 c 0,23,24
 176 564 176 564 174 550 c 0,25,0
 173 543 173 543 173 528.5 c 128,-1,1
125 213 m 128,-1,27
 125 195 125 195 127 186 c 0,28,29
 131 165 131 165 137 156 c 1,30,31
 140 149 140 149 151 134.5 c 128,-1,32
 162 120 162 120 163 120 c 128,-1,33
 164 120 164 120 170 114 c 0,34,35
 185 100 185 100 212 97 c 0,36,37
 221 96 221 96 227.5 96.5 c 128,-1,38
 234 97 234 97 250 102 c 1,39,40
 264 105 264 105 282 118 c 0,41,42
 298 129 298 129 297 134 c 1,43,44
 298 134 298 134 282 158 c 0,45,46
 268 178 268 178 265 183 c 0,47,48
 256 198 256 198 239 227 c 0,49,50
 224 253 224 253 219 260 c 0,51,52
 209 277 209 277 204 287 c 0,53,54
 200 295 200 295 187 317 c 0,55,56
 185 320 185 320 181.5 320 c 128,-1,57
 178 320 178 320 174 316 c 0,58,59
 152 295 152 295 142 279 c 128,-1,60
 132 263 132 263 126 239 c 0,61,26
 125 231 125 231 125 213 c 128,-1,27
38 185 m 0,62,63
 37 194 37 194 37 203 c 0,64,65
 37 221 37 221 40 236 c 0,66,67
 43 255 43 255 45.5 262 c 128,-1,68
 48 269 48 269 56 288 c 0,69,70
 58 292 58 292 65 303 c 128,-1,71
 72 314 72 314 77 320 c 128,-1,72
 82 326 82 326 96 340 c 128,-1,73
 110 354 110 354 115 357 c 0,74,75
 119 360 119 360 131 370 c 0,76,77
 133 371 133 371 136 374 c 0,78,79
 138 376 138 376 140 378 c 2,80,-1
 143 380 l 2,81,82
 145 381 145 381 145.5 382 c 128,-1,83
 146 383 146 383 144 386 c 1,84,85
 144 388 144 388 135 401 c 1,86,87
 125 419 125 419 124 420 c 0,88,89
 121 428 121 428 114 438 c 1,90,-1
 109 447 l 2,91,92
 109 449 109 449 105 459 c 0,93,94
 99 474 99 474 94 494.5 c 128,-1,95
 89 515 89 515 89 527 c 0,96,97
 89 544 89 544 94 563 c 0,98,99
 100 588 100 588 118.5 610 c 128,-1,100
 137 632 137 632 165 646 c 0,101,102
 179 653 179 653 199 656 c 0,103,104
 213 658 213 658 227 658 c 0,105,106
 253 658 253 658 276 650 c 0,107,108
 296 643 296 643 300 639 c 0,109,110
 303 636 303 636 307 635 c 1,111,112
 312 632 312 632 325 619 c 0,113,114
 335 609 335 609 339 603.5 c 128,-1,115
 343 598 343 598 350 582 c 0,116,117
 354 573 354 573 356 562 c 0,118,119
 357 552 357 552 358 546 c 0,120,121
 359 542 359 542 359 537 c 0,122,123
 359 521 359 521 352 493 c 0,124,125
 350 484 350 484 344 471.5 c 128,-1,126
 338 459 338 459 333 452 c 128,-1,127
 328 445 328 445 328 444 c 0,128,129
 328 442 328 442 324 439 c 0,130,131
 319 435 319 435 316 430 c 0,132,133
 308 417 308 417 271 389 c 0,134,135
 257 379 257 379 254 376.5 c 128,-1,136
 251 374 251 374 251 372 c 128,-1,137
 251 370 251 370 256 361 c 2,138,-1
 284 320 l 1,139,-1
 295 302 l 2,140,141
 301 294 301 294 307 284 c 0,142,143
 316 270 316 270 320 263 c 0,144,145
 327 251 327 251 332 243 c 0,146,147
 340 230 340 230 340 229 c 0,148,149
 342 227 342 227 346 220 c 1,150,151
 348 213 348 213 350 213 c 0,152,153
 356 213 356 213 356 216 c 0,154,155
 356 218 356 218 361 227 c 1,156,157
 366 240 366 240 367 242 c 0,158,159
 368 246 368 246 371 254 c 0,160,161
 373 258 373 258 381 282 c 0,162,163
 386 300 386 300 388.5 304.5 c 128,-1,164
 391 309 391 309 394 309 c 0,165,166
 398 309 398 309 401 306 c 128,-1,167
 404 303 404 303 413 292 c 0,168,169
 424 277 424 277 425 277 c 128,-1,170
 426 277 426 277 432 271 c 0,171,172
 445 257 445 257 448 252 c 128,-1,173
 451 247 451 247 448 241 c 0,174,175
 448 240 448 240 447 237 c 128,-1,176
 446 234 446 234 444 230.5 c 128,-1,177
 442 227 442 227 441 225 c 0,178,179
 436 212 436 212 436 210 c 0,180,181
 435 206 435 206 424 183 c 0,182,183
 422 177 422 177 418.5 170.5 c 128,-1,184
 415 164 415 164 413 160 c 2,185,-1
 411 155 l 2,186,187
 408 149 408 149 404 143 c 0,188,189
 400 136 400 136 399 134 c 0,190,191
 399 132 399 132 405 123 c 0,192,193
 411 113 411 113 412 112 c 0,194,195
 415 108 415 108 416 105 c 0,196,197
 424 91 424 91 427 86 c 0,198,199
 436 71 436 71 437 70 c 0,200,201
 439 68 439 68 446 57 c 0,202,203
 457 39 457 39 459 34 c 0,204,205
 460 32 460 32 460 31 c 0,206,207
 460 29 460 29 458 28 c 0,208,209
 457 27 457 27 436 27 c 1,210,211
 426 28 426 28 410 28 c 0,212,213
 364 28 364 28 362 29 c 0,214,215
 358 30 358 30 356 36 c 0,216,217
 356 37 356 37 353 43.5 c 128,-1,218
 350 50 350 50 348 54 c 0,219,220
 342 67 342 67 339 66.5 c 128,-1,221
 336 66 336 66 327 59 c 128,-1,222
 318 52 318 52 317 52 c 128,-1,223
 316 52 316 52 310 48 c 0,224,225
 306 45 306 45 291.5 38 c 128,-1,226
 277 31 277 31 270 28 c 0,227,228
 254 22 254 22 223 17 c 0,229,230
 214 16 214 16 205 16 c 0,231,232
 193 16 193 16 182 18 c 0,233,234
 180 18 180 18 173 19.5 c 128,-1,235
 166 21 166 21 164 21 c 0,236,237
 149 23 149 23 128.5 34.5 c 128,-1,238
 108 46 108 46 94 60 c 0,239,240
 84 69 84 69 83.5 69 c 128,-1,241
 83 69 83 69 76 80 c 0,242,243
 75 82 75 82 73 85 c 128,-1,244
 71 88 71 88 69 90 c 2,245,-1
 67 93 l 2,246,247
 64 96 64 96 57.5 109 c 128,-1,248
 51 122 51 122 50 127 c 2,249,250
 46 139 l 2,251,252
 40 157 40 157 38 185 c 0,62,63
EndSplineSet
EndChar

StartChar: quotesingle
Encoding: 39 39 10
Width: 233
GlyphClass: 2
Flags: W
LayerCount: 2
Fore
SplineSet
41 513 m 0,0,1
 45 526 45 526 47 536 c 0,2,3
 49 544 49 544 52 554 c 0,4,5
 55 566 55 566 59 579 c 1,6,7
 64 602 64 602 66 607 c 128,-1,8
 68 612 68 612 73 638 c 0,9,10
 76 653 76 653 81 667 c 0,11,12
 82 671 82 671 82 674.5 c 128,-1,13
 82 678 82 678 83 682 c 0,14,15
 83 683 83 683 84.5 687.5 c 128,-1,16
 86 692 86 692 87 694 c 0,17,18
 89 702 89 702 91 704 c 0,19,20
 92 705 92 705 134.5 705 c 128,-1,21
 177 705 177 705 190 704 c 0,22,23
 192 704 192 704 192 701 c 128,-1,24
 192 698 192 698 190 692 c 0,25,26
 189 689 189 689 187 686 c 128,-1,27
 185 683 185 683 166 647 c 2,28,-1
 152 620 l 2,29,30
 150 617 150 617 127.5 571.5 c 128,-1,31
 105 526 105 526 99 512 c 0,32,33
 94 501 94 501 92 500 c 0,34,35
 90 498 90 498 68 498 c 2,36,37
 55 498 l 2,38,39
 45 498 45 498 43 499 c 0,40,41
 40 500 40 500 40 505 c 0,42,43
 40 508 40 508 41 513 c 0,0,1
EndSplineSet
EndChar

StartChar: parenleft
Encoding: 40 40 11
Width: 254
GlyphClass: 2
Flags: W
LayerCount: 2
Fore
SplineSet
50 280 m 0,0,1
 49.5 288 49.5 288 49.5 295.75 c 128,-1,2
 49.5 303.5 49.5 303.5 50 311 c 0,3,4
 50 359 50 359 56 397 c 0,5,6
 56 401 56 401 57 409.5 c 128,-1,7
 58 418 58 418 59 420 c 0,8,9
 60 429 60 429 61 434 c 0,10,11
 62 438 62 438 64 449 c 0,12,13
 66 459 66 459 69 467 c 1,14,15
 71 477 71 477 75 493 c 0,16,17
 75 495 75 495 76 499 c 128,-1,18
 77 503 77 503 78 504 c 0,19,20
 79 508 79 508 83 523 c 0,21,22
 89 542 89 542 90 545 c 0,23,24
 93 552 93 552 96 559 c 2,25,-1
 99 569 l 2,26,27
 103 579 103 579 109 593 c 0,28,29
 112 602 112 602 116 607 c 1,30,-1
 120 615 l 1,31,32
 121 621 121 621 149 675 c 0,33,34
 151 678 151 678 164 702 c 0,35,36
 171 713 171 713 174 715 c 0,37,38
 175 716 175 716 176 716 c 0,39,40
 178 716 178 716 182 713 c 0,41,42
 185 711 185 711 198 705 c 0,43,44
 223 693 223 693 224 687 c 0,45,46
 224 684 224 684 218 671 c 1,47,48
 180 602 180 602 174 586 c 0,49,50
 172 579 172 579 165 563 c 0,51,52
 152 535 152 535 148 513 c 0,53,54
 146 505 146 505 144 496 c 0,55,56
 142 489 142 489 141 479 c 0,57,58
 141 477 141 477 140 474 c 128,-1,59
 139 471 139 471 138 466 c 128,-1,60
 137 461 137 461 136 459 c 0,61,62
 124 414 124 414 122 352 c 0,63,64
 122 347 122 347 119 314 c 0,65,66
 118 300 118 300 120 289 c 0,67,68
 121 280 121 280 122 265 c 0,69,70
 122 257 122 257 123.5 234.5 c 128,-1,71
 125 212 125 212 126 208 c 0,72,73
 126 206 126 206 128 195.5 c 128,-1,74
 130 185 130 185 137 150 c 0,75,76
 140 136 140 136 143 129 c 1,77,78
 157 73 157 73 161 63 c 0,79,80
 163 59 163 59 165 55 c 2,81,-1
 166 52 l 2,82,83
 167 49 167 49 168 46.5 c 128,-1,84
 169 44 169 44 171 42 c 1,85,86
 175 31 175 31 175 30 c 128,-1,87
 175 29 175 29 195 -12 c 128,-1,88
 215 -53 215 -53 218 -55 c 1,89,90
 223 -62 223 -62 223 -68 c 0,91,92
 223 -70 223 -70 220 -73.5 c 128,-1,93
 217 -77 217 -77 214 -77 c 128,-1,94
 211 -77 211 -77 189 -90 c 0,95,96
 179 -96 179 -96 175 -96 c 0,97,98
 174 -96 174 -96 173 -96 c 0,99,100
 170 -95 170 -95 162.5 -83 c 128,-1,101
 155 -71 155 -71 151 -61 c 0,102,103
 147 -52 147 -52 141 -43 c 0,104,105
 136 -37 136 -37 136 -35 c 2,106,-1
 129 -19 l 2,107,108
 122 -3 122 -3 122 -2 c 128,-1,109
 122 -1 122 -1 114 15 c 0,110,111
 106 32 106 32 105 33 c 1,112,113
 105 36 105 36 101 47 c 0,114,115
 95 62 95 62 81 102 c 0,116,117
 81 103 81 103 79.5 108 c 128,-1,118
 78 113 78 113 77 116 c 0,119,120
 77 119 77 119 76 124 c 2,121,-1
 74 129 l 2,122,123
 72 135 72 135 71 140 c 0,124,125
 70 147 70 147 64 167 c 0,126,127
 52 214 52 214 50 280 c 0,0,1
EndSplineSet
EndChar

StartChar: parenright
Encoding: 41 41 12
Width: 252
GlyphClass: 2
Flags: W
LayerCount: 2
Fore
SplineSet
30 -68 m 0,0,1
 30 -65 30 -65 33.5 -57.5 c 128,-1,2
 37 -50 37 -50 41 -44 c 0,3,4
 44 -40 44 -40 58 -10.5 c 128,-1,5
 72 19 72 19 80 35 c 0,6,7
 96 72 96 72 99 86 c 0,8,9
 100 91 100 91 103.5 103.5 c 128,-1,10
 107 116 107 116 108 119 c 0,11,12
 110 127 110 127 112 135 c 0,13,14
 113 141 113 141 114 141 c 0,15,16
 115 142 115 142 115 147 c 128,-1,17
 115 152 115 152 116 153 c 0,18,19
 117 153 117 153 119 160 c 1,20,21
 120 169 120 169 121 174 c 0,22,23
 128 211 128 211 132 264 c 0,24,25
 133 280 133 280 133 313.5 c 128,-1,26
 133 347 133 347 131 368 c 0,27,28
 127 415 127 415 126 419 c 0,29,30
 125 420 125 420 123 435 c 0,31,32
 119 465 119 465 109 498 c 0,33,34
 107 504 107 504 104 520 c 0,35,36
 100 539 100 539 89 565 c 0,37,38
 81 583 81 583 80 585 c 0,39,40
 69 611 69 611 58 633 c 0,41,42
 55 639 55 639 50 648.5 c 128,-1,43
 45 658 45 658 44 659 c 0,44,45
 43 663 43 663 36 673 c 0,46,47
 30 681 30 681 30 686 c 0,48,49
 30 688 30 688 31 689 c 0,50,51
 33 693 33 693 51 701 c 0,52,53
 55 702 55 702 56 705 c 1,54,-1
 67 710 l 2,55,56
 78 715 78 715 80 716 c 1,57,58
 84 716 84 716 96 694 c 0,59,60
 101 683 101 683 110 667 c 0,61,62
 138 615 138 615 149 584 c 0,63,64
 151 580 151 580 155.5 569 c 128,-1,65
 160 558 160 558 161 553 c 0,66,67
 167 538 167 538 170 528 c 0,68,69
 174 515 174 515 177 505 c 0,70,71
 183 482 183 482 185 474 c 1,72,73
 186 465 186 465 192 440 c 0,74,75
 192 439 192 439 193 433.5 c 128,-1,76
 194 428 194 428 195 425 c 1,77,78
 195 417 195 417 198 406 c 1,79,80
 202 378 202 378 202 321 c 2,81,82
 202 296 l 1,83,84
 201 220 201 220 195 194 c 0,85,86
 191 175 191 175 189 168 c 0,87,88
 186 152 186 152 180 130 c 0,89,90
 179 127 179 127 178 122.5 c 128,-1,91
 177 118 177 118 176 114.5 c 128,-1,92
 175 111 175 111 174 110 c 0,93,94
 168 88 168 88 165 79 c 2,95,-1
 164 76 l 2,96,97
 162 72 162 72 160.5 68.5 c 128,-1,98
 159 65 159 65 158 62 c 0,99,100
 142 21 142 21 140 17 c 128,-1,101
 138 13 138 13 132 -1 c 0,102,103
 121 -27 121 -27 113 -41 c 2,104,-1
 102 -60 l 1,105,106
 84 -95 84 -95 79 -96 c 0,107,108
 76 -96 76 -96 49 -82 c 0,109,110
 46 -81 46 -81 41 -78 c 128,-1,111
 36 -75 36 -75 35 -74 c 0,112,113
 31 -72 31 -72 30 -68 c 0,0,1
EndSplineSet
EndChar

StartChar: asterisk
Encoding: 42 42 13
Width: 430
GlyphClass: 2
Flags: W
LayerCount: 2
Fore
SplineSet
46 571 m 0,0,1
 48 577 48 577 53 593 c 0,2,3
 57 604 57 604 62 618 c 0,4,5
 63 623 63 623 65.5 626.5 c 128,-1,6
 68 630 68 630 70 630 c 0,7,8
 73 630 73 630 89 622 c 0,9,10
 112 609 112 609 142 595 c 0,11,12
 143 595 143 595 145 593.5 c 128,-1,13
 147 592 147 592 149 591 c 128,-1,14
 151 590 151 590 152 589 c 0,15,16
 160 584 160 584 178.5 574.5 c 128,-1,17
 197 565 197 565 198 565 c 0,18,19
 201 565 201 565 200 577 c 0,20,21
 199 586 199 586 194 622 c 0,22,23
 193 633 193 633 190 646 c 0,24,25
 190 650 190 650 189 658 c 128,-1,26
 188 666 188 666 188 667 c 0,27,28
 187 684 187 684 182 698 c 1,29,30
 180 707 180 707 184 711 c 1,31,32
 187 712 187 712 197 713 c 1,33,34
 215 713 215 713 231 712.5 c 128,-1,35
 247 712 247 712 249 711 c 0,36,37
 253 708 253 708 249 689 c 0,38,39
 245 666 245 666 242 636 c 0,40,41
 240 618 240 618 236 599 c 0,42,43
 232 577 232 577 231.5 573 c 128,-1,44
 231 569 231 569 232 567 c 0,45,46
 234 565 234 565 236 565.5 c 128,-1,47
 238 566 238 566 249 572 c 0,48,49
 268 581 268 581 272 584 c 0,50,51
 280 589 280 589 293 594 c 0,52,53
 295 595 295 595 298.5 596.5 c 128,-1,54
 302 598 302 598 304 599 c 2,55,-1
 306 600 l 1,56,-1
 309 602 l 2,57,58
 312 603 312 603 316.5 605.5 c 128,-1,59
 321 608 321 608 325 610 c 0,60,61
 354 625 354 625 359.5 627 c 128,-1,62
 365 629 365 629 368 626 c 1,63,-1
 376 605 l 2,64,65
 377 601 377 601 379 595 c 128,-1,66
 381 589 381 589 382.5 585 c 128,-1,67
 384 581 384 581 384 580 c 0,68,69
 386 576 386 576 386 570 c 0,70,71
 386 562 386 562 384 561 c 128,-1,72
 382 560 382 560 367 557 c 0,73,74
 364 557 364 557 356.5 555.5 c 128,-1,75
 349 554 349 554 346 553 c 0,76,77
 345 553 345 553 325 549 c 0,78,79
 322 549 322 549 316.5 548 c 128,-1,80
 311 547 311 547 309 546 c 0,81,82
 281 540 281 540 258 538 c 0,83,84
 243 537 243 537 243 532 c 0,85,86
 243 530 243 530 259 514 c 0,87,88
 263 509 263 509 275 496 c 128,-1,89
 287 483 287 483 292 479 c 0,90,91
 297 474 297 474 309 460.5 c 128,-1,92
 321 447 321 447 326 442 c 0,93,94
 343 424 343 424 343 422 c 0,95,96
 343 417 343 417 330 409 c 0,97,98
 323 405 323 405 317 401 c 0,99,100
 312 397 312 397 300 389 c 128,-1,101
 288 381 288 381 286 381 c 0,102,103
 285 381 285 381 279 392 c 128,-1,104
 273 403 273 403 273 405 c 0,105,106
 273 406 273 406 271 408 c 2,107,-1
 254 443 l 2,108,109
 238 476 238 476 227 497 c 1,110,111
 220 514 220 514 216 514 c 0,112,113
 214 514 214 514 211.5 510 c 128,-1,114
 209 506 209 506 200 486 c 0,115,116
 194 471 194 471 185 455 c 128,-1,117
 176 439 176 439 170 427 c 1,118,119
 165 414 165 414 161 409 c 0,120,121
 156 402 156 402 153 394 c 0,122,123
 148 383 148 383 146 382 c 0,124,125
 144 382 144 382 123 397 c 0,126,127
 111 406 111 406 106 408 c 0,128,129
 101 411 101 411 96 415 c 0,130,131
 87 423 87 423 95 432 c 0,132,133
 98 436 98 436 135 474 c 0,134,135
 146 485 146 485 155 496 c 0,136,137
 157 498 157 498 164 505.5 c 128,-1,138
 171 513 171 513 174 516 c 0,139,140
 186 529 186 529 187 530 c 0,141,142
 189 533 189 533 186 535.5 c 128,-1,143
 183 538 183 538 176 538 c 0,144,145
 168 539 168 539 166 540 c 0,146,147
 166 541 166 541 160 542 c 0,148,149
 155 542 155 542 147 543 c 0,150,151
 139 545 139 545 122 547 c 1,152,153
 100 552 100 552 99 552 c 0,154,155
 97 552 97 552 91.5 553.5 c 128,-1,156
 86 555 86 555 85 555 c 0,157,158
 76 556 76 556 71 558 c 1,159,160
 67 558 67 558 57 561 c 0,161,162
 48 563 48 563 46 564 c 0,163,164
 45 565 45 565 45 567 c 0,165,166
 45 568 45 568 46 571 c 0,0,1
EndSplineSet
EndChar

StartChar: plus
Encoding: 43 43 14
Width: 586
GlyphClass: 2
Flags: W
LayerCount: 2
Fore
SplineSet
56 256 m 2,0,1
 56 265 l 2,2,3
 56 281 56 281 58 283 c 0,4,5
 60 286 60 286 68 286 c 2,6,7
 76 286 l 2,8,9
 87 286 87 286 110 285 c 0,10,11
 249 283 249 283 255 282 c 1,12,13
 262 282 262 282 264.5 283 c 128,-1,14
 267 284 267 284 267 289 c 0,15,16
 267 305 267 305 266 376.5 c 128,-1,17
 265 448 265 448 265 465 c 2,18,-1
 265 484 l 2,19,20
 265 487 265 487 267 489 c 0,21,22
 271 491 271 491 295 491 c 0,23,24
 318 491 318 491 321 488 c 0,25,26
 322 487 322 487 322 464 c 2,27,28
 322 435 l 1,29,30
 321 305 321 305 320 292 c 0,31,32
 319 285 319 285 321 283 c 128,-1,33
 323 281 323 281 339 281 c 0,34,35
 358 282 358 282 443 282 c 128,-1,36
 528 282 528 282 529 281 c 0,37,38
 530 281 530 281 530 253 c 2,39,-1
 530 227 l 1,40,-1
 445 227 l 2,41,42
 357 227 357 227 342 228 c 0,43,44
 325 229 325 229 322 227.5 c 128,-1,45
 319 226 319 226 320 215 c 0,46,47
 321 200 321 200 322 114 c 1,48,49
 322 65 l 2,50,51
 322 26 322 26 321 24 c 0,52,53
 320 20 320 20 316 20 c 2,54,55
 311 20 l 2,56,57
 305 20 305 20 292 21 c 0,58,59
 268 22 268 22 266 24 c 128,-1,60
 264 26 264 26 265 49 c 0,61,62
 266 74 266 74 266 127.5 c 128,-1,63
 266 181 266 181 267 204 c 0,64,65
 268 225 268 225 267 227 c 0,66,67
 266 228 266 228 164 228 c 128,-1,68
 62 228 62 228 59 230 c 128,-1,69
 56 232 56 232 56 256 c 2,0,1
EndSplineSet
EndChar

StartChar: comma
Encoding: 44 44 15
Width: 220
GlyphClass: 2
Flags: W
LayerCount: 2
Fore
SplineSet
22 -65 m 0,0,1
 24 -59 24 -59 25 -55 c 1,2,3
 25 -50 25 -50 28 -42 c 0,4,5
 44 11 44 11 47 33 c 0,6,7
 49 44 49 44 51 53 c 0,8,9
 62 92 62 92 64 102 c 0,10,11
 66 110 66 110 66 112 c 0,12,13
 67 115 67 115 68 122 c 0,14,15
 70 129 70 129 71 131 c 0,16,17
 72 132 72 132 122 132 c 0,18,19
 132 132 132 132 140 133 c 1,20,21
 172 133 172 133 174 131 c 0,22,23
 176 130 176 130 176 127 c 0,24,25
 176 122 176 122 169 110 c 0,26,27
 162 97 162 97 161 96 c 2,28,-1
 148 72 l 2,29,30
 140 56 140 56 133 43 c 0,31,32
 130 36 130 36 129 35 c 1,33,34
 129 32 129 32 109 -6 c 0,35,36
 109 -8 109 -8 106 -14.5 c 128,-1,37
 103 -21 103 -21 101 -23 c 1,38,39
 98 -31 98 -31 88 -51.5 c 128,-1,40
 78 -72 78 -72 75 -75 c 0,41,42
 73 -77 73 -77 49 -77 c 0,43,44
 27 -77 27 -77 23 -75 c 0,45,46
 21 -74 21 -74 21 -71 c 128,-1,47
 21 -68 21 -68 22 -65 c 0,0,1
EndSplineSet
EndChar

StartChar: hyphen
Encoding: 45 45 16
Width: 329
GlyphClass: 2
Flags: W
LayerCount: 2
Fore
SplineSet
44 222 m 0,0,1
 44 228 44 228 47 237 c 128,-1,2
 50 246 50 246 51 250 c 0,3,4
 55 262 55 262 57 267 c 0,5,6
 68 293 68 293 69 294 c 1,7,8
 86.5 294 l 1,9,-1
 130 294 l 2,10,11
 205 294 205 294 225 295 c 0,12,13
 253 296 253 296 268.5 296 c 128,-1,14
 284 296 284 296 285 295 c 1,15,-1
 285 291 l 2,16,17
 285 288 285 288 283 285 c 128,-1,18
 281 282 281 282 281 280 c 0,19,20
 281 277 281 277 277 266 c 0,21,22
 275 260 275 260 271 246 c 0,23,24
 270 240 270 240 267 232 c 0,25,26
 266 227 266 227 262 223 c 1,27,-1
 260 220 l 1,28,-1
 153 220 l 1,29,30
 93 220 l 1,31,32
 72 220 l 2,33,34
 65 219.75 65 219.75 59.75 219.75 c 0,35,36
 44 219.75 44 219.75 44 222 c 0,0,1
EndSplineSet
EndChar

StartChar: period
Encoding: 46 46 17
Width: 241
GlyphClass: 2
Flags: W
LayerCount: 2
Fore
SplineSet
64 40 m 0,0,1
 64 51 64 51 66 57 c 0,2,3
 68 65 68 65 70 68 c 0,4,5
 72 73 72 73 72 74 c 2,6,-1
 76 79 l 2,7,8
 80 84 80 84 80.5 84 c 128,-1,9
 81 84 81 84 86 88 c 0,10,11
 96 96 96 96 108 99 c 0,12,13
 109 99 109 99 110.5 99.5 c 128,-1,14
 112 100 112 100 113 100 c 2,15,-1
 114 100 l 1,16,-1
 115 100 l 1,17,-1
 124 100 l 1,18,19
 148 98 148 98 166 76 c 0,20,21
 172 68 172 68 175 57 c 0,22,23
 177 49 177 49 177 41.5 c 128,-1,24
 177 34 177 34 175 27 c 0,25,26
 172 13 172 13 162 1 c 0,27,28
 156 -6 156 -6 151 -9.5 c 128,-1,29
 146 -13 146 -13 136 -16 c 0,30,31
 129 -18 129 -18 119 -18 c 128,-1,32
 109 -18 109 -18 108 -17 c 0,33,34
 107 -17 107 -17 102 -15 c 0,35,36
 95 -13 95 -13 88 -8 c 0,37,38
 85 -5 85 -5 79 0.5 c 128,-1,39
 73 6 73 6 73 7 c 128,-1,40
 73 8 73 8 71 11 c 0,41,42
 68 16 68 16 65 24 c 1,43,44
 64 30 64 30 64 40 c 0,0,1
EndSplineSet
EndChar

StartChar: slash
Encoding: 47 47 18
Width: 251
GlyphClass: 2
Flags: W
LayerCount: 2
Fore
SplineSet
2 18 m 0,0,1
 7 28 7 28 21 70 c 0,2,3
 22 73 22 73 33 107 c 0,4,5
 40 130 40 130 40 131 c 0,6,7
 40 138 40 138 55 175 c 0,8,9
 58 185 58 185 62 199 c 0,10,11
 68 220 68 220 72 231 c 0,12,13
 80 253 80 253 86 275 c 0,14,15
 93 297 93 297 100 316 c 0,16,17
 105 328 105 328 107 340 c 0,18,19
 108 348 108 348 127 403 c 0,20,21
 138 435 138 435 145 458 c 0,22,23
 154 488 154 488 167 531 c 1,24,25
 177 560 177 560 181 573 c 0,26,27
 184 586 184 586 193 611 c 0,28,29
 202 638 202 638 202 641 c 0,30,31
 202 646 202 646 219 695 c 0,32,33
 221 700 221 700 224 703 c 0,34,35
 226 704 226 704 246.5 704 c 128,-1,36
 267 704 267 704 271 703 c 0,37,38
 273 703 273 703 273 701.5 c 128,-1,39
 273 700 273 700 271 690 c 0,40,41
 271 686 271 686 269 683 c 0,42,43
 264 671 264 671 258 653 c 1,44,45
 257 646 257 646 246 617 c 0,46,47
 244 611 244 611 241.5 602.5 c 128,-1,48
 239 594 239 594 237.5 589 c 128,-1,49
 236 584 236 584 235 583 c 0,50,51
 234 576 234 576 233 574 c 0,52,53
 232 573 232 573 227 554 c 0,54,55
 225 546 225 546 220 534 c 1,56,57
 213 512 213 512 208 496 c 0,58,59
 204 482 204 482 201 472 c 0,60,61
 198 463 198 463 187 427 c 1,62,63
 185 417 185 417 178 397 c 0,64,65
 173 381 173 381 170 373 c 0,66,67
 168 367 168 367 167 361 c 1,68,69
 158 337 158 337 149 311 c 0,70,71
 144 295 144 295 136 269 c 0,72,73
 129 246 129 246 128 244 c 0,74,75
 128 242 128 242 127 239 c 0,76,77
 126 235 126 235 123 228 c 1,78,79
 120 216 120 216 118 212 c 0,80,81
 118 211 118 211 116 206 c 128,-1,82
 114 201 114 201 113 198 c 0,83,84
 110 190 110 190 109 187 c 1,85,86
 109 181 109 181 102 157 c 0,87,88
 96 138 96 138 85 107 c 1,89,90
 79 87 79 87 77 83 c 0,91,92
 71 68 71 68 66 48 c 0,93,94
 64 38 64 38 59 23 c 128,-1,95
 54 8 54 8 52 6 c 0,96,97
 49 3 49 3 29 3 c 0,98,99
 8 4 8 4 3 6 c 0,100,101
 0 7 0 7 0 11 c 0,102,103
 0 14 0 14 2 18 c 0,0,1
EndSplineSet
EndChar

StartChar: zero
Encoding: 48 48 19
Width: 439
GlyphClass: 2
Flags: W
LayerCount: 2
Fore
SplineSet
137 370 m 128,-1,1
 137 290 137 290 139 280 c 1,2,3
 140 262 140 262 140 255 c 0,4,5
 140 240 140 240 142 233 c 0,6,7
 142 232 142 232 143.5 221 c 128,-1,8
 145 210 145 210 146 204 c 0,9,10
 154 148 154 148 167 124 c 0,11,12
 173 113 173 113 183.5 102.5 c 128,-1,13
 194 92 194 92 202 89 c 0,14,15
 218 85 218 85 226 85 c 0,16,17
 230 85 230 85 231 86 c 0,18,19
 234 87 234 87 238 87 c 0,20,21
 244 87 244 87 260 102 c 0,22,23
 269 111 269 111 276 125 c 0,24,25
 282 139 282 139 283 143 c 0,26,27
 283 145 283 145 287 158 c 0,28,29
 293 177 293 177 294 188 c 0,30,31
 297 206 297 206 297 208 c 0,32,33
 301 234 301 234 303 271 c 0,34,35
 303 289 303 289 305 300 c 0,36,37
 306 310 306 310 306 371.5 c 128,-1,38
 306 433 306 433 305 435 c 0,39,40
 303 437 303 437 303 459 c 0,41,42
 301 517 301 517 297 524 c 0,43,44
 296 527 296 527 294 544 c 0,45,46
 293 554 293 554 290 569 c 0,47,48
 288 576 288 576 284 588 c 0,49,50
 276 614 276 614 261 631 c 0,51,52
 250 643 250 643 231 647 c 0,53,54
 223 648 223 648 221 649 c 0,55,56
 220 649 220 649 208 646 c 0,57,58
 199 644 199 644 189 637.5 c 128,-1,59
 179 631 179 631 175 625 c 0,60,61
 169 617 169 617 161.5 597.5 c 128,-1,62
 154 578 154 578 151 562 c 0,63,64
 149 550 149 550 147 547 c 1,65,66
 145 539 145 539 142.5 510.5 c 128,-1,67
 140 482 140 482 139 470 c 1,68,69
 139 455 139 455 138 452 c 0,70,0
 137 450 137 450 137 370 c 128,-1,1
38 365 m 128,-1,72
 38 416 38 416 40 429 c 0,73,74
 41 440 41 440 41 450 c 0,75,76
 41 463 41 463 45.5 493 c 128,-1,77
 50 523 50 523 55 542 c 0,78,79
 56 546 56 546 57 556 c 0,80,81
 58 564 58 564 60 563 c 1,82,83
 61 564 61 564 61 567 c 0,84,85
 61 572 61 572 79 623 c 0,86,87
 84 638 84 638 96.5 658.5 c 128,-1,88
 109 679 109 679 119 688 c 0,89,90
 136 705 136 705 152 713 c 128,-1,91
 168 721 168 721 199 728 c 0,92,93
 203 729 203 729 219.5 729 c 128,-1,94
 236 729 236 729 242 728 c 0,95,96
 268 724 268 724 282 717 c 0,97,98
 291 713 291 713 297 709 c 0,99,100
 304 705 304 705 319 689.5 c 128,-1,101
 334 674 334 674 339 666.5 c 128,-1,102
 344 659 344 659 352 643 c 128,-1,103
 360 627 360 627 361 624 c 2,104,-1
 363 618 l 2,105,106
 365 611 365 611 367 608 c 0,107,108
 375 587 375 587 378 569 c 0,109,110
 380 562 380 562 382 558 c 128,-1,111
 384 554 384 554 386 542 c 0,112,113
 388 532 388 532 389 528 c 0,114,115
 391 520 391 520 395.5 485.5 c 128,-1,116
 400 451 400 451 401 433 c 0,117,118
 402 418 402 418 402 387 c 2,119,120
 402 352 l 2,121,122
 402 294 402 294 399 279 c 1,123,124
 395 237 395 237 387 197 c 0,125,126
 387 195 387 195 386 190 c 128,-1,127
 385 185 385 185 385 184 c 0,128,129
 384 178 384 178 383 175 c 0,130,131
 381 169 381 169 380 167 c 0,132,133
 374 145 374 145 372 136 c 0,134,135
 364 112 364 112 362 109 c 0,136,137
 361 106 361 106 359 102 c 0,138,139
 357 96 357 96 354 92 c 0,140,141
 352 88 352 88 351 84 c 0,142,143
 350 79 350 79 340 66 c 128,-1,144
 330 53 330 53 321 44 c 0,145,146
 292 15 292 15 273 10 c 0,147,148
 258 6 258 6 255 5 c 0,149,150
 246 2 246 2 228 2 c 0,151,152
 224 2 224 2 221 1 c 1,153,154
 208 1 208 1 199 3 c 0,155,156
 186 5 186 5 184 6 c 0,157,158
 170 8 170 8 158 16 c 1,159,160
 138 27 138 27 137 29 c 0,161,162
 136 30 136 30 129 35 c 128,-1,163
 122 40 122 40 120 42 c 0,164,165
 115 47 115 47 106.5 59.5 c 128,-1,166
 98 72 98 72 96 78 c 0,167,168
 92 86 92 86 90 87 c 0,169,170
 87 89 87 89 87 91 c 0,171,172
 87 92 87 92 83 102 c 0,173,174
 83 103 83 103 76 120 c 1,175,176
 70 140 70 140 68 141 c 0,177,178
 67 141 67 141 66 146 c 1,179,180
 66 154 66 154 60 168 c 1,181,-1
 60 170 l 1,182,183
 59 173 59 173 58.5 175 c 128,-1,184
 58 177 58 177 58 178 c 0,185,186
 58 182 58 182 56 188.5 c 128,-1,187
 54 195 54 195 53 200.5 c 128,-1,188
 52 206 52 206 52 208 c 0,189,190
 49 223 49 223 45 252.5 c 128,-1,191
 41 282 41 282 41 293 c 128,-1,192
 41 304 41 304 40 309 c 0,193,71
 38 314 38 314 38 365 c 128,-1,72
EndSplineSet
EndChar

StartChar: one
Encoding: 49 49 20
Width: 441
GlyphClass: 2
Flags: W
LayerCount: 2
Fore
SplineSet
124 533 m 0,0,1
 124 572 124 572 125 574 c 1,2,-1
 132 578 l 1,3,4
 140 581 140 581 158 595 c 0,5,6
 165 601 165 601 182 624 c 0,7,8
 186 630 186 630 193.5 644.5 c 128,-1,9
 201 659 201 659 205 668 c 0,10,11
 209 680 209 680 214 701 c 0,12,13
 217 712 217 712 219.5 714 c 128,-1,14
 222 716 222 716 234 716 c 0,15,16
 250 717 250 717 260 717 c 0,17,18
 275 717 275 717 277 715 c 1,19,20
 279 715 279 715 279 358 c 2,21,-1
 279 159 l 2,22,23
 279 91 279 91 278.5 53.5 c 128,-1,24
 278 16 278 16 277.5 8 c 128,-1,25
 277 0 277 0 276 0 c 2,26,27
 260 0 l 1,28,-1
 224 0 l 1,29,-1
 190 0 l 1,30,-1
 189 4 l 2,31,32
 188 12 188 12 189 27 c 0,33,34
 190 47 190 47 190 255 c 0,35,36
 190 461 190 461 191 499 c 0,37,38
 191 512 191 512 191.5 520 c 128,-1,39
 192 528 192 528 191 532 c 0,40,41
 190 539 190 539 188 539 c 128,-1,42
 186 539 186 539 179 530 c 128,-1,43
 172 521 172 521 159 510 c 128,-1,44
 146 499 146 499 139 495 c 128,-1,45
 132 491 132 491 131 490 c 0,46,47
 130 488 130 488 127.5 488.5 c 128,-1,48
 125 489 125 489 124 491 c 128,-1,49
 123 493 123 493 123 511 c 1,50,51
 124 520 124 520 124 533 c 0,0,1
EndSplineSet
EndChar

StartChar: two
Encoding: 50 50 21
Width: 446
GlyphClass: 2
Flags: W
LayerCount: 2
Fore
SplineSet
33 8 m 0,0,1
 33 17 33 17 47 39 c 1,2,3
 57 57 57 57 58 58 c 0,4,5
 64 69 64 69 67 75 c 1,6,7
 72 81 72 81 72 83 c 2,8,-1
 77 92 l 2,9,10
 82 99 82 99 86 106 c 0,11,12
 86 107 86 107 95 123 c 2,13,-1
 102 137 l 2,14,15
 106 146 106 146 109 150 c 0,16,17
 114 158 114 158 115 161 c 128,-1,18
 116 164 116 164 120 169 c 0,19,20
 122 172 122 172 132 191 c 0,21,22
 141 210 141 210 145 215 c 0,23,24
 150 222 150 222 154 231 c 0,25,26
 164 249 164 249 188 294 c 0,27,28
 203 323 203 323 205 327 c 0,29,30
 210 335 210 335 212 340 c 0,31,32
 213 342 213 342 217 352 c 1,33,34
 254 421 254 421 261 440 c 0,35,36
 264 450 264 450 267 458 c 1,37,38
 276 474 276 474 286 522 c 0,39,40
 288 530 288 530 288 539 c 128,-1,41
 288 548 288 548 286 558 c 0,42,43
 283 578 283 578 275 590 c 0,44,45
 270 597 270 597 260 607.5 c 128,-1,46
 250 618 250 618 244 621 c 0,47,48
 240 623 240 623 228.5 625 c 128,-1,49
 217 627 217 627 212 627 c 0,50,51
 211 627 211 627 198 625 c 2,52,-1
 187 623 l 2,53,54
 187 622 187 622 183.5 622 c 128,-1,55
 180 622 180 622 158 610 c 0,56,57
 149 605 149 605 137.5 594 c 128,-1,58
 126 583 126 583 125 579 c 128,-1,59
 124 575 124 575 118.5 575.5 c 128,-1,60
 113 576 113 576 109 581 c 0,61,62
 105 585 105 585 104 589 c 0,63,64
 102 593 102 593 101 593 c 0,65,66
 99 593 99 593 95 600 c 0,67,68
 88 610 88 610 74 626 c 0,69,70
 73 627 73 627 69.5 631 c 128,-1,71
 66 635 66 635 65 636 c 2,72,-1
 62 641 l 1,73,-1
 66 647 l 2,74,75
 72 656 72 656 91 670 c 0,76,77
 126 695 126 695 157 706 c 1,78,79
 182 713 182 713 208 714 c 1,80,81
 223 714 l 1,82,-1
 235 714 l 1,83,84
 277 710 277 710 295 698 c 0,85,86
 302 694 302 694 306 691 c 0,87,88
 328 679 328 679 347.5 656.5 c 128,-1,89
 367 634 367 634 375 610 c 0,90,91
 386 576 386 576 386 550 c 0,92,93
 386 504 386 504 365 446 c 0,94,95
 361 434 361 434 357 424 c 0,96,97
 350 404 350 404 336 376 c 0,98,99
 332 368 332 368 328 359 c 0,100,101
 322 347 322 347 296 300 c 0,102,103
 294 297 294 297 290 289 c 2,104,-1
 285 279 l 2,105,106
 274 258 274 258 265 244 c 2,107,-1
 261 237 l 2,108,109
 261 236 261 236 257 230 c 128,-1,110
 253 224 253 224 249 217 c 0,111,112
 245 209 245 209 244 208 c 128,-1,113
 243 207 243 207 229 181 c 0,114,115
 228 179 228 179 226 176 c 2,116,-1
 223 172 l 2,117,118
 222 170 222 170 222 169 c 0,119,120
 221 168 221 168 216 160 c 0,121,122
 206 140 206 140 194 120 c 0,123,124
 189 112 189 112 184 105 c 2,125,-1
 181 101 l 2,126,127
 178 96 178 96 176 93 c 0,128,129
 171 85 171 85 171 83 c 128,-1,130
 171 81 171 81 192 81 c 2,131,132
 208 81 l 1,133,134
 240 82 240 82 312 82 c 0,135,136
 336 82 336 82 351 83 c 1,137,138
 383 83 383 83 384 82 c 0,139,140
 386 81 386 81 386 78 c 0,141,142
 386 69 386 69 375 42 c 0,143,144
 369 27 369 27 367 11 c 0,145,146
 366 5 366 5 363 3 c 2,147,-1
 359 0 l 1,148,-1
 198 0 l 2,149,150
 37 0 37 0 35 1 c 0,151,152
 33 3 33 3 33 8 c 0,0,1
EndSplineSet
EndChar

StartChar: three
Encoding: 51 51 22
Width: 445
GlyphClass: 2
Flags: W
LayerCount: 2
Fore
SplineSet
20 76 m 0,0,1
 22 79 22 79 29 91 c 0,2,3
 38 105 38 105 47 117.5 c 128,-1,4
 56 130 56 130 58 131 c 0,5,6
 61 132 61 132 70 125 c 0,7,8
 93 108 93 108 108 101.5 c 128,-1,9
 123 95 123 95 143 90 c 0,10,11
 154 88 154 88 172 88 c 128,-1,12
 190 88 190 88 202 91 c 0,13,14
 243 102 243 102 268 140 c 0,15,16
 278 154 278 154 277 156 c 0,17,18
 277 158 277 158 281 167 c 0,19,20
 289 188 289 188 290 224 c 0,21,22
 290 246 290 246 283 272 c 0,23,24
 282 277 282 277 276.5 287.5 c 128,-1,25
 271 298 271 298 267 304 c 0,26,27
 264 309 264 309 264 310 c 0,28,29
 264 313 264 313 257 320.5 c 128,-1,30
 250 328 250 328 242 333 c 0,31,32
 227 344 227 344 217.5 349 c 128,-1,33
 208 354 208 354 195 356 c 0,34,35
 192 356 192 356 185 357.5 c 128,-1,36
 178 359 178 359 176 360 c 0,37,38
 159 363 159 363 135 363 c 0,39,40
 117 363 117 363 116 365 c 0,41,42
 115 366 115 366 114 404 c 0,43,44
 114 431 114 431 115 436.5 c 128,-1,45
 116 442 116 442 118 443 c 0,46,47
 122 446 122 446 146 442 c 0,48,49
 154 441 154 441 169 442 c 0,50,51
 182 443 182 443 202 448 c 0,52,53
 208 449 208 449 234 463 c 0,54,55
 244 468 244 468 257 485.5 c 128,-1,56
 270 503 270 503 271 514 c 0,57,58
 271 516 271 516 272.5 521 c 128,-1,59
 274 526 274 526 274 528 c 0,60,61
 276 534 276 534 276 542 c 128,-1,62
 276 550 276 550 274 560 c 0,63,64
 269 585 269 585 266 592 c 0,65,66
 257 611 257 611 240.5 624.5 c 128,-1,67
 224 638 224 638 205 643 c 0,68,69
 192 646 192 646 186.5 646.5 c 128,-1,70
 181 647 181 647 171 646 c 0,71,72
 151 645 151 645 135.5 639 c 128,-1,73
 120 633 120 633 101 620 c 0,74,75
 88 611 88 611 84 610 c 1,76,77
 78 610 78 610 73 623 c 0,78,79
 70 629 70 629 67 630 c 1,80,81
 65 633 65 633 60 643 c 0,82,83
 54 654 54 654 44 667 c 0,84,85
 39 675 39 675 39 676 c 128,-1,86
 39 677 39 677 53 686 c 128,-1,87
 67 695 67 695 76 699 c 0,88,89
 79 700 79 700 94 708 c 0,90,91
 103 712 103 712 121 718 c 128,-1,92
 139 724 139 724 150 726 c 0,93,94
 158 727 158 727 173 729 c 0,95,96
 182 730 182 730 190 730 c 0,97,98
 224 730 224 730 254 720 c 0,99,100
 262 718 262 718 276.5 711 c 128,-1,101
 291 704 291 704 296 700 c 0,102,103
 305 694 305 694 318.5 681 c 128,-1,104
 332 668 332 668 334 664 c 0,105,106
 334 663 334 663 337 659.5 c 128,-1,107
 340 656 340 656 341 654 c 0,108,109
 346 649 346 649 353 634 c 0,110,111
 358 624 358 624 360 615.5 c 128,-1,112
 362 607 362 607 366 586 c 0,113,114
 368 578 368 578 368 560 c 2,115,116
 368 551 l 2,117,118
 368 526 368 526 365 515 c 0,119,120
 363 506 363 506 358 492 c 128,-1,121
 353 478 353 478 349 471 c 0,122,123
 348 470 348 470 344.5 464.5 c 128,-1,124
 341 459 341 459 339 457 c 0,125,126
 329 440 329 440 311 428 c 1,127,128
 295 419 295 419 289 416 c 0,129,130
 272 408 272 408 272 405 c 0,131,132
 272 403 272 403 288 394 c 0,133,134
 311 381 311 381 328 365 c 0,135,136
 351 345 351 345 366 316 c 128,-1,137
 381 287 381 287 386 253 c 0,138,139
 388 240 388 240 388 216 c 128,-1,140
 388 192 388 192 386 179 c 0,141,142
 384 162 384 162 379 146 c 0,143,144
 377 138 377 138 366.5 118 c 128,-1,145
 356 98 356 98 349 88 c 0,146,147
 335 69 335 69 313.5 51.5 c 128,-1,148
 292 34 292 34 271 23 c 0,149,150
 253 14 253 14 248.5 13 c 128,-1,151
 244 12 244 12 228 8 c 0,152,153
 208 4 208 4 181 2 c 1,154,155
 176 2 l 2,156,157
 128 2 128 2 82 21 c 0,158,159
 68 26 68 26 44 41 c 128,-1,160
 20 56 20 56 16 62 c 0,161,162
 14 64 14 64 14 67 c 128,-1,163
 14 70 14 70 20 76 c 0,0,1
EndSplineSet
EndChar

StartChar: four
Encoding: 52 52 23
Width: 443
GlyphClass: 2
Flags: W
LayerCount: 2
Fore
SplineSet
113 223 m 0,0,1
 114 221 114 221 124 221 c 2,2,-1
 187 221 l 2,3,4
 262 221 262 221 263 223 c 0,5,6
 265 225 265 225 263 248 c 1,7,-1
 263 344 l 1,8,-1
 263 442 l 1,9,10
 265 504 265 504 265 525 c 1,11,12
 264 535 264 535 262 535 c 0,13,14
 260 536 260 536 256 530 c 128,-1,15
 252 524 252 524 252 522 c 0,16,17
 252 518 252 518 240 494 c 0,18,19
 234 480 234 480 233 479 c 0,20,21
 232 477 232 477 223 457 c 1,22,23
 216 444 216 444 212 431 c 1,24,25
 207 419 207 419 206 417 c 2,26,-1
 198 401 l 1,27,28
 193 388 193 388 184 372 c 2,29,-1
 177 358 l 2,30,31
 172 348 172 348 171 345 c 0,32,33
 165 327 165 327 159 320 c 0,34,35
 157 318 157 318 157 316 c 128,-1,36
 157 314 157 314 154 310 c 128,-1,37
 151 306 151 306 151 303 c 0,38,39
 151 301 151 301 141.5 281 c 128,-1,40
 132 261 132 261 130 257 c 1,41,42
 128 256 128 256 124 246 c 0,43,44
 120 237 120 237 116 231 c 0,45,46
 113 225 113 225 113 223 c 0,0,1
36 182 m 0,47,48
 36 217 36 217 37 222 c 1,49,50
 40 229 40 229 42 232 c 0,51,52
 45 239 45 239 45 240 c 128,-1,53
 45 241 45 241 60 272 c 0,54,55
 69 291 69 291 69 292 c 2,56,-1
 73 301 l 2,57,58
 77 310 77 310 77 311 c 0,59,60
 77 313 77 313 86 332 c 0,61,62
 96 352 96 352 96 353 c 0,63,64
 96 355 96 355 101 362 c 0,65,66
 103 366 103 366 108 377 c 0,67,68
 111 384 111 384 121 404 c 0,69,70
 123 408 123 408 125.5 413.5 c 128,-1,71
 128 419 128 419 129 422 c 2,72,-1
 130 425 l 2,73,74
 133 432 133 432 138 440 c 1,75,76
 146 458 146 458 147 460 c 0,77,78
 148 464 148 464 156 481 c 0,79,80
 175 519 175 519 182 536 c 0,81,82
 186 546 186 546 192 556 c 0,83,84
 198 565 198 565 198 568 c 0,85,86
 198 569 198 569 205 583 c 0,87,88
 212 596 212 596 215 606 c 0,89,90
 215 607 215 607 223 623 c 0,91,92
 227 631 227 631 229 637 c 0,93,94
 229 638 229 638 231 642 c 2,95,-1
 236 651 l 2,96,97
 238 656 238 656 239 659 c 0,98,99
 246 674 246 674 250 682 c 1,100,101
 251 687 251 687 257 699 c 0,102,103
 262 708 262 708 262 711 c 0,104,105
 262 712 262 712 265 715 c 0,106,107
 267 717 267 717 309 717 c 2,108,-1
 315 717 l 2,109,110
 345 717 345 717 349.5 715.5 c 128,-1,111
 354 714 354 714 354 702 c 0,112,113
 354 700 354 700 353 699 c 0,114,115
 352 684 352 684 352 454 c 2,116,-1
 352 222 l 1,117,-1
 375 222 l 2,118,119
 381 222 381 222 387 222 c 2,120,-1
 397 222 l 1,121,-1
 401 222 l 2,122,123
 403 222 403 222 403 216 c 2,124,-1
 403 183 l 1,125,-1
 403 150 l 2,126,127
 403 144 403 144 401 142 c 1,128,129
 397 141 397 141 376 143 c 1,130,131
 354 144 354 144 352 142 c 1,132,133
 351 139 351 139 352 113 c 0,134,135
 353 42 353 42 353 17 c 2,136,137
 353 4 l 1,138,139
 351 1 351 1 342 0.5 c 128,-1,140
 333 0 333 0 304 0 c 2,141,-1
 295 0 l 2,142,143
 268 0 268 0 263.5 2 c 128,-1,144
 259 4 259 4 260 15 c 0,145,146
 260 17 260 17 260 19 c 0,147,148
 260 35 260 35 263 129 c 1,149,-1
 263 143 l 1,150,-1
 150 143 l 1,151,152
 52 143 l 2,153,154
 37 143 37 143 36 145 c 0,155,156
 35 146 35 146 35 162 c 1,157,158
 36 170 36 170 36 182 c 0,47,48
EndSplineSet
EndChar

StartChar: five
Encoding: 53 53 24
Width: 448
GlyphClass: 2
Flags: W
LayerCount: 2
Fore
SplineSet
22 55 m 1,0,-1
 25 61 l 2,1,2
 26 62 26 62 28 65 c 128,-1,3
 30 68 30 68 31 69 c 0,4,5
 34 72 34 72 39 81 c 0,6,7
 50 99 50 99 51 101 c 0,8,9
 63 120 63 120 65 124 c 0,10,11
 67 129 67 129 71 127.5 c 128,-1,12
 75 126 75 126 85 118 c 0,13,14
 96 109 96 109 118 99.5 c 128,-1,15
 140 90 140 90 150 90 c 0,16,17
 154 90 154 90 155 89 c 0,18,19
 156 87 156 87 168.5 87 c 128,-1,20
 181 87 181 87 193 89 c 128,-1,21
 205 91 205 91 221.5 98.5 c 128,-1,22
 238 106 238 106 244 111 c 0,23,24
 245 112 245 112 255 120 c 0,25,26
 260 123 260 123 269.5 136 c 128,-1,27
 279 149 279 149 284 160 c 0,28,29
 298 187 298 187 302 218 c 0,30,31
 303 229 303 229 303 244 c 2,32,33
 303 262 l 1,34,35
 302 290 302 290 299 298 c 0,36,37
 299 299 299 299 296 308 c 0,38,39
 291 328 291 328 281 345 c 1,40,41
 265 368 265 368 256 376 c 0,42,43
 238 394 238 394 207 408 c 0,44,45
 198 413 198 413 180 417 c 0,46,47
 152 423 152 423 134 423 c 0,48,49
 124 423 124 423 116 421 c 0,50,51
 94 416 94 416 86 416 c 0,52,53
 83 416 83 416 82 417 c 0,54,55
 79 419 79 419 78.5 422 c 128,-1,56
 78 425 78 425 81 438.5 c 128,-1,57
 84 452 84 452 86 458 c 0,58,59
 88 467 88 467 90 474 c 0,60,61
 92 487 92 487 93 489 c 0,62,63
 93 490 93 490 93.5 492 c 128,-1,64
 94 494 94 494 94.5 496 c 128,-1,65
 95 498 95 498 95 499 c 0,66,67
 96 506 96 506 102 522 c 0,68,69
 102 523 102 523 103.5 532 c 128,-1,70
 105 541 105 541 106 544 c 0,71,72
 106 547 106 547 107.5 554.5 c 128,-1,73
 109 562 109 562 109 564 c 0,74,75
 111 574 111 574 113 577 c 1,76,77
 114 585 114 585 117 598 c 0,78,79
 123 627 123 627 124 634 c 0,80,81
 125 640 125 640 126 643 c 0,82,83
 127 645 127 645 128 651 c 0,84,85
 128 652 128 652 131 666 c 0,86,87
 133 676 133 676 135 687 c 0,88,89
 139 712 139 712 143 716 c 0,90,91
 145 718 145 718 231 718 c 2,92,93
 297.5 718 l 1,94,-1
 353 718 l 1,95,96
 389 719 389 719 391 720 c 1,97,98
 394 720 394 720 397 717 c 0,99,100
 399 715 399 715 399.5 713 c 128,-1,101
 400 711 400 711 399 703 c 0,102,103
 397 689 397 689 396 686 c 0,104,105
 395 679 395 679 392 662 c 0,106,107
 390 648 390 648 388 643.5 c 128,-1,108
 386 639 386 639 382 638 c 0,109,110
 380 637 380 637 312.5 637 c 128,-1,111
 245 637 245 637 231 638 c 0,112,113
 218 639 218 639 214.5 638 c 128,-1,114
 211 637 211 637 210 629 c 0,115,116
 208 619 208 619 205.5 605 c 128,-1,117
 203 591 203 591 203 589 c 128,-1,118
 203 587 203 587 201.5 582 c 128,-1,119
 200 577 200 577 200 576 c 128,-1,120
 200 575 200 575 194 552 c 2,121,-1
 190 538 l 2,122,123
 188 528 188 528 188 526 c 0,124,125
 187 519 187 519 185 514 c 0,126,127
 182 505 182 505 183 501 c 0,128,129
 184 500 184 500 194 499 c 0,130,131
 218 497 218 497 226 495 c 0,132,133
 227 495 227 495 231.5 493.5 c 128,-1,134
 236 492 236 492 237 492 c 0,135,136
 277 482 277 482 311 456 c 0,137,138
 324 446 324 446 341 427 c 0,139,140
 358 409 358 409 369 391 c 1,141,142
 393 347 393 347 396 324 c 0,143,144
 396 319 396 319 398 308 c 0,145,146
 401 295 401 295 401 256 c 128,-1,147
 401 217 401 217 398 204 c 0,148,149
 395 189 395 189 395 184 c 0,150,151
 388 146 388 146 362 105.5 c 128,-1,152
 336 65 336 65 302 40 c 0,153,154
 288 30 288 30 266 20.5 c 128,-1,155
 244 11 244 11 228 8 c 0,156,157
 201 3 201 3 175 3 c 0,158,159
 146 3 146 3 118 9 c 0,160,161
 108 11 108 11 87 18.5 c 128,-1,162
 66 26 66 26 60 30 c 0,163,164
 36 43 36 43 29 49 c 2,165,-1
 22 55 l 1,0,-1
EndSplineSet
EndChar

StartChar: six
Encoding: 54 54 25
Width: 443
GlyphClass: 2
Flags: W
LayerCount: 2
Fore
SplineSet
138 238 m 0,0,1
 138 235 138 235 137 232 c 1,2,3
 137 176 137 176 147 142 c 0,4,5
 156 111 156 111 176 94 c 0,6,7
 194 78 194 78 218 78 c 2,8,9
 221 78 l 2,10,11
 239 78 239 78 256 87 c 0,12,13
 265 92 265 92 268.5 95.5 c 128,-1,14
 272 99 272 99 279 108 c 0,15,16
 290 122 290 122 297 147 c 0,17,18
 303 168 303 168 309 216 c 0,19,20
 309 217 309 217 311 245 c 1,21,22
 311 258 l 1,23,-1
 311 269 l 1,24,25
 312 277 312 277 310 293 c 0,26,27
 306 321 306 321 302 331 c 0,28,29
 302 332 302 332 301.5 334.5 c 128,-1,30
 301 337 301 337 299.5 341 c 128,-1,31
 298 345 298 345 297 348 c 0,32,33
 293 361 293 361 286 373 c 0,34,35
 278 385 278 385 269.5 391.5 c 128,-1,36
 261 398 261 398 245 405 c 0,37,38
 242 406 242 406 228 407 c 1,39,40
 219 407 l 2,41,42
 212 407 212 407 208 406 c 0,43,44
 203 405 203 405 192 399.5 c 128,-1,45
 181 394 181 394 177 391 c 128,-1,46
 173 388 173 388 165 375 c 128,-1,47
 157 362 157 362 154 355 c 0,48,49
 151 347 151 347 148 339 c 1,50,51
 138 298 138 298 138 238 c 0,0,1
39 257 m 0,52,53
 40 316 40 316 44 339 c 0,54,55
 44 340 44 340 45.5 347 c 128,-1,56
 47 354 47 354 47 357 c 0,57,58
 49 369 49 369 51 373 c 0,59,60
 51 374 51 374 52.5 379.5 c 128,-1,61
 54 385 54 385 54 387 c 0,62,63
 54 390 54 390 55.5 395 c 128,-1,64
 57 400 57 400 57 400.5 c 128,-1,65
 57 401 57 401 58.5 406.5 c 128,-1,66
 60 412 60 412 61 415 c 0,67,68
 62 417 62 417 64 424.5 c 128,-1,69
 66 432 66 432 67 435 c 0,70,71
 70 444 70 444 74 455 c 0,72,73
 79 471 79 471 86 486 c 0,74,75
 90 494 90 494 90 498 c 0,76,77
 91 503 91 503 97 513 c 1,78,79
 107 535 107 535 107 538 c 0,80,81
 107 539 107 539 113 548 c 0,82,83
 122 563 122 563 125 569 c 0,84,85
 131 581 131 581 135 587 c 0,86,87
 138 591 138 591 144 602 c 0,88,89
 145 604 145 604 150 612 c 128,-1,90
 155 620 155 620 157 624 c 0,91,92
 167 640 167 640 171 646 c 0,93,94
 175 654 175 654 185 668 c 0,95,96
 194 679 194 679 195 683 c 1,97,98
 199 690 199 690 203 695 c 0,99,100
 210 703 210 703 214 711 c 0,101,102
 219 719 219 719 222 720 c 1,103,-1
 262 720 l 2,104,105
 298 720 298 720 309 721 c 0,106,107
 323 722 323 722 330 722 c 0,108,109
 343 722 343 722 344.5 717 c 128,-1,110
 346 712 346 712 335 701 c 0,111,112
 300 664 300 664 286 645 c 0,113,114
 280 637 280 637 278 635 c 0,115,116
 278 634 278 634 275 630 c 128,-1,117
 272 626 272 626 270 625 c 1,118,119
 268 621 268 621 257 605 c 0,120,121
 247 591 247 591 247 590 c 128,-1,122
 247 589 247 589 236 573 c 0,123,124
 229 562 229 562 220 547 c 128,-1,125
 211 532 211 532 211 531 c 128,-1,126
 211 530 211 530 204 521 c 0,127,128
 197 511 197 511 197 510 c 0,129,130
 197 508 197 508 192 501 c 0,131,132
 171 467 171 467 171 462 c 128,-1,133
 171 457 171 457 189 467 c 0,134,135
 212 480 212 480 232 482 c 0,136,137
 243 484 243 484 244 485 c 1,138,139
 247 485 247 485 265.5 483 c 128,-1,140
 284 481 284 481 288 479 c 0,141,142
 289 479 289 479 292.5 478 c 128,-1,143
 296 477 296 477 297 476 c 128,-1,144
 298 475 298 475 301 474 c 2,145,-1
 305 473 l 2,146,147
 308 473 308 473 314 468 c 0,148,149
 315 467 315 467 319 464.5 c 128,-1,150
 323 462 323 462 324 461 c 0,151,152
 331 457 331 457 344 443 c 128,-1,153
 357 429 357 429 367 415 c 0,154,155
 371 410 371 410 375.5 400.5 c 128,-1,156
 380 391 380 391 380 388 c 128,-1,157
 380 385 380 385 384 379 c 0,158,159
 388 372 388 372 392.5 358 c 128,-1,160
 397 344 397 344 398 336 c 0,161,162
 398 334 398 334 399.5 328 c 128,-1,163
 401 322 401 322 401 319 c 0,164,165
 404 300 404 300 406 262 c 0,166,167
 407 246 407 246 407 234 c 0,168,169
 407 214 407 214 405 200 c 1,170,171
 403 159 403 159 397 145 c 0,172,173
 397 144 397 144 392 131 c 1,174,175
 391 125 391 125 385 113 c 0,176,177
 382 105 382 105 382 101 c 0,178,179
 382 98 382 98 374 83 c 128,-1,180
 366 68 366 68 361 63 c 1,181,-1
 359 60 l 1,182,183
 356 58 356 58 353.5 54.5 c 128,-1,184
 351 51 351 51 349 49 c 0,185,186
 341 38 341 38 337 36 c 0,187,188
 333 33 333 33 331 31 c 0,189,190
 330 30 330 30 321 22.5 c 128,-1,191
 312 15 312 15 311 15 c 128,-1,192
 310 15 310 15 303 10 c 0,193,194
 297 6 297 6 289 4 c 0,195,196
 280 1 280 1 274 0 c 0,197,198
 256 -6 256 -6 226 -6 c 0,199,200
 198 -6 198 -6 173.5 0 c 128,-1,201
 149 6 149 6 133 18 c 0,202,203
 126 23 126 23 122.5 26 c 128,-1,204
 119 29 119 29 106 43 c 0,205,206
 81 69 81 69 70 95 c 0,207,208
 64 109 64 109 62 110 c 1,209,210
 61 112 61 112 58 121 c 128,-1,211
 55 130 55 130 54 135 c 128,-1,212
 53 140 53 140 51 143 c 0,213,214
 50 144 50 144 48 151 c 1,215,216
 47 163 47 163 46 167 c 0,217,218
 39 211 39 211 39 257 c 0,52,53
EndSplineSet
EndChar

StartChar: seven
Encoding: 55 55 26
Width: 445
GlyphClass: 2
Flags: W
LayerCount: 2
Fore
SplineSet
44 630 m 0,0,1
 44 634 44 634 48 648 c 0,2,3
 51 658 51 658 58 685 c 0,4,5
 62 703 62 703 65 707 c 1,6,7
 67 708 67 708 70 709 c 1,8,-1
 79 709 l 1,9,10
 86 708 86 708 210 708 c 2,11,12
 281 708 l 2,13,14
 342 708 342 708 359 709 c 1,15,16
 383 709 383 709 384 708 c 0,17,18
 386 707 386 707 386 703 c 0,19,20
 386 698 386 698 383 689 c 0,21,22
 371 651 371 651 368 639 c 0,23,24
 364 619 364 619 359 607 c 0,25,26
 357 603 357 603 356 595 c 0,27,28
 355 590 355 590 352 578 c 0,29,30
 349 568 349 568 347 562 c 0,31,32
 345 553 345 553 344 551 c 0,33,34
 342 539 342 539 341 538 c 0,35,36
 340 530 340 530 339 528 c 0,37,38
 338 525 338 525 337 522 c 1,39,40
 337 518 337 518 335 513 c 0,41,42
 335 512 335 512 334 510 c 128,-1,43
 333 508 333 508 332.5 505 c 128,-1,44
 332 502 332 502 331 500 c 0,45,46
 331 498 331 498 329.5 492.5 c 128,-1,47
 328 487 328 487 327 486 c 1,48,49
 327 481 327 481 324 475 c 1,50,-1
 313 426 l 1,51,52
 311 412 311 412 308 401 c 0,53,54
 302 380 302 380 299 364 c 0,55,56
 298 356 298 356 296 355 c 1,57,58
 295 353 295 353 290 324 c 0,59,60
 290 322 290 322 289 317 c 128,-1,61
 288 312 288 312 287 310 c 0,62,63
 285 303 285 303 284 297 c 0,64,65
 278 268 278 268 276 264 c 0,66,67
 276 263 276 263 272 248 c 1,68,69
 269 230 269 230 263 199 c 0,70,71
 263 196 263 196 261 188 c 128,-1,72
 259 180 259 180 258 178 c 0,73,74
 258 177 258 177 257 172 c 128,-1,75
 256 167 256 167 255 165 c 0,76,77
 253 159 253 159 253 154 c 0,78,79
 253 153 253 153 252 149 c 128,-1,80
 251 145 251 145 251 142 c 0,81,82
 249 135 249 135 248 127 c 0,83,84
 248 126 248 126 246.5 120 c 128,-1,85
 245 114 245 114 245 112 c 0,86,87
 245 106 245 106 242 97 c 1,88,89
 242 92 242 92 239 81 c 1,90,91
 236 63 236 63 234 55 c 2,92,-1
 231 39 l 1,93,94
 229 21 229 21 227.5 14 c 128,-1,95
 226 7 226 7 222 4 c 0,96,97
 220 3 220 3 175 3 c 2,98,-1
 129 3 l 1,99,-1
 127 8 l 2,100,101
 125 13 125 13 128 22 c 128,-1,102
 131 31 131 31 132 40 c 0,103,104
 132 42 132 42 134 48.5 c 128,-1,105
 136 55 136 55 136 58 c 0,106,107
 139 72 139 72 139 73 c 0,108,109
 141 85 141 85 146 105 c 0,110,111
 146 106 146 106 147.5 113.5 c 128,-1,112
 149 121 149 121 150 125 c 0,113,114
 151 132 151 132 154 146 c 0,115,116
 156 153 156 153 156 157 c 128,-1,117
 156 161 156 161 158 163 c 0,118,119
 159 163 159 163 159 167 c 2,120,-1
 161 177 l 2,121,122
 162 181 162 181 169 220 c 0,123,124
 173 243 173 243 176 250 c 0,125,126
 178 254 178 254 177 255 c 128,-1,127
 176 256 176 256 178 261 c 0,128,129
 180 264 180 264 180 267 c 0,130,131
 180 268 180 268 181 272 c 1,132,133
 183 275 183 275 183 280 c 0,134,135
 184 287 184 287 187 294 c 0,136,137
 190 304 190 304 189 306 c 1,138,139
 189 310 189 310 198 346 c 0,140,141
 199 350 199 350 202 360 c 0,142,143
 204 369 204 369 206 376 c 0,144,145
 212 394 212 394 216 416 c 0,146,147
 217 420 217 420 220 428 c 0,148,149
 222 436 222 436 222 438 c 0,150,151
 222 439 222 439 223.5 442.5 c 128,-1,152
 225 446 225 446 225 447 c 0,153,154
 226 452 226 452 231 468 c 128,-1,155
 236 484 236 484 237 489 c 2,156,-1
 240 497 l 1,157,-1
 243 509 l 2,158,159
 246 523 246 523 250 533 c 0,160,161
 251 537 251 537 254 547.5 c 128,-1,162
 257 558 257 558 258 562 c 128,-1,163
 259 566 259 566 264 579.5 c 128,-1,164
 269 593 269 593 271 600 c 0,165,166
 278 623 278 623 278 624 c 0,167,168
 278 627 278 627 273 628.5 c 128,-1,169
 268 630 268 630 254 629 c 0,170,171
 235 628 235 628 141 628 c 2,172,173
 88 628 l 2,174,175
 44 628 44 628 44 630 c 0,0,1
EndSplineSet
EndChar

StartChar: eight
Encoding: 56 56 27
Width: 446
GlyphClass: 2
Flags: W
LayerCount: 2
Fore
SplineSet
143 577 m 0,0,1
 142 571 142 571 142 565 c 0,2,3
 142 553 142 553 145 540 c 0,4,5
 146 533 146 533 153 519 c 128,-1,6
 160 505 160 505 165 500 c 0,7,8
 168 497 168 497 178 486 c 0,9,10
 186 476 186 476 205.5 461 c 128,-1,11
 225 446 225 446 229 446 c 0,12,13
 231 446 231 446 251 463 c 0,14,15
 266 476 266 476 278 493 c 128,-1,16
 290 510 290 510 294 524 c 0,17,18
 298 537 298 537 299 539 c 0,19,20
 301 546 301 546 302 562 c 0,21,22
 302 565 302 565 302 568 c 0,23,24
 302 582 302 582 298 594 c 0,25,26
 293 609 293 609 285 620 c 0,27,28
 275 633 275 633 263.5 639 c 128,-1,29
 252 645 252 645 234 647 c 0,30,31
 227 648 227 648 221 648 c 0,32,33
 212 648 212 648 204 646 c 0,34,35
 190 643 190 643 183 638.5 c 128,-1,36
 176 634 176 634 167 624 c 0,37,38
 147 603 147 603 143 577 c 0,0,1
131 173 m 0,39,40
 133 151 133 151 139 139.5 c 128,-1,41
 145 128 145 128 160 112 c 0,42,43
 171 100 171 100 183 95 c 0,44,45
 200 87 200 87 219 85 c 0,46,47
 222 85 222 85 225 85 c 0,48,49
 263 85 263 85 286 109 c 0,50,51
 313 138 313 138 313 187 c 0,52,53
 313 196 313 196 312 206 c 0,54,55
 308 242 308 242 283 278 c 1,56,57
 267 299 267 299 240 323 c 0,58,59
 229 332 229 332 226 332 c 0,60,61
 224 332 224 332 209 319.5 c 128,-1,62
 194 307 194 307 186 299 c 0,63,64
 165 279 165 279 154 262 c 0,65,66
 142 242 142 242 139 234 c 128,-1,67
 136 226 136 226 132 205 c 0,68,69
 130 197 130 197 130 187 c 0,70,71
 130 181 130 181 131 173 c 0,39,40
37 191 m 0,72,73
 37 230 37 230 47 263 c 0,74,75
 50 270 50 270 58.5 287 c 128,-1,76
 67 304 67 304 71 311 c 0,77,78
 72 312 72 312 81 325 c 0,79,80
 86 333 86 333 107 353 c 128,-1,81
 128 373 128 373 139 380 c 0,82,83
 149 386 149 386 150 390 c 128,-1,84
 151 394 151 394 145 397 c 0,85,86
 122 413 122 413 110 425 c 0,87,88
 99 437 99 437 93 444 c 0,89,90
 84 453 84 453 82 459 c 1,91,92
 78 466 78 466 74 471 c 1,93,94
 69 480 69 480 69 481 c 0,95,96
 67 484 67 484 62 498 c 1,97,98
 54 515 54 515 50 539 c 0,99,100
 48 550 48 550 49 561 c 1,101,102
 49 573 49 573 51 583 c 0,103,104
 54 605 54 605 59.5 619.5 c 128,-1,105
 65 634 65 634 79 654 c 0,106,107
 84 662 84 662 97 675 c 128,-1,108
 110 688 110 688 120 696 c 0,109,110
 146 716 146 716 194 724 c 0,111,112
 208 726 208 726 223 726 c 0,113,114
 234 726 234 726 246 725 c 0,115,116
 249 725 249 725 255.5 724 c 128,-1,117
 262 723 262 723 264 723 c 0,118,119
 270 722 270 722 273 720 c 0,120,121
 279 718 279 718 283 717 c 0,122,123
 315 708 315 708 345 679 c 0,124,125
 383 642 383 642 390 604 c 0,126,127
 390 602 390 602 391 596.5 c 128,-1,128
 392 591 392 591 392 589 c 0,129,130
 393 582 393 582 393.5 557.5 c 128,-1,131
 394 533 394 533 393 527 c 0,132,133
 392 523 392 523 390 514 c 0,134,135
 389 508 389 508 388 505 c 0,136,137
 388 503 388 503 383 493 c 0,138,139
 381 487 381 487 376 476 c 0,140,141
 375 475 375 475 368 461 c 0,142,143
 351 430 351 430 313 400 c 0,144,145
 304 393 304 393 304 391 c 128,-1,146
 304 389 304 389 316 380 c 0,147,148
 346 359 346 359 379 313 c 0,149,150
 389 299 389 299 394 285 c 0,151,152
 396 279 396 279 398 276 c 0,153,154
 399 275 399 275 401 267 c 0,155,156
 401 265 401 265 402.5 261 c 128,-1,157
 404 257 404 257 404 255 c 0,158,159
 409 237 409 237 410 193 c 0,160,161
 410 186 410 186 410 179 c 0,162,163
 410 147 410 147 406 140 c 1,164,165
 405 136 405 136 404 134 c 0,166,167
 404 132 404 132 401.5 123.5 c 128,-1,168
 399 115 399 115 397 112 c 2,169,-1
 390 98 l 1,170,171
 386 87 386 87 380 79 c 0,172,173
 357 48 357 48 354 47 c 1,174,-1
 345 40 l 2,175,176
 335 31 335 31 319 21.5 c 128,-1,177
 303 12 303 12 289 8 c 0,178,179
 265 1 265 1 225 1 c 0,180,181
 190 1 190 1 167 8 c 1,182,183
 146 13 146 13 131 22 c 0,184,185
 129 23 129 23 126.5 24.5 c 128,-1,186
 124 26 124 26 122 28 c 1,187,-1
 119 29 l 2,188,189
 113 32 113 32 98.5 44.5 c 128,-1,190
 84 57 84 57 82 62 c 0,191,192
 80 65 80 65 76 70 c 0,193,194
 63 85 63 85 48 122 c 0,195,196
 37 151 37 151 37 191 c 0,72,73
EndSplineSet
EndChar

StartChar: nine
Encoding: 57 57 28
Width: 448
GlyphClass: 2
Flags: W
LayerCount: 2
Fore
SplineSet
135 467 m 2,0,1
 135 440 135 440 137.5 425.5 c 128,-1,2
 140 411 140 411 145 396 c 0,3,4
 150 380 150 380 154 372 c 128,-1,5
 158 364 158 364 168 351 c 0,6,7
 177 339 177 339 186 334 c 0,8,9
 197 327 197 327 204 325 c 128,-1,10
 211 323 211 323 225 323 c 0,11,12
 237 323 237 323 241 324 c 128,-1,13
 245 325 245 325 253 329 c 128,-1,14
 261 333 261 333 265.5 336.5 c 128,-1,15
 270 340 270 340 282 355 c 0,16,17
 286 359 286 359 291 369.5 c 128,-1,18
 296 380 296 380 298 388 c 0,19,20
 308 421 308 421 309 434 c 0,21,22
 309 441 309 441 311 452 c 0,23,24
 313 461 313 461 313 479 c 1,25,26
 312 484 312 484 312 488 c 0,27,28
 312 514 312 514 310 533 c 0,29,30
 308 550 308 550 302.5 569 c 128,-1,31
 297 588 297 588 294 596 c 0,32,33
 278 629 278 629 251 637 c 1,34,35
 244 638 244 638 233 640 c 0,36,37
 226 641 226 641 222 641 c 2,38,39
 217 641 l 1,40,41
 203 639 203 639 195.5 634.5 c 128,-1,42
 188 630 188 630 177 621 c 1,43,44
 165 609 165 609 160 600 c 128,-1,45
 155 591 155 591 150 575 c 0,46,47
 140 544 140 544 137 524 c 0,48,49
 135 509 135 509 135 484 c 2,50,51
 135 467 l 2,0,1
38 454 m 0,52,53
 37 469 37 469 37 483 c 0,54,55
 37 506 37 506 40 527 c 0,56,57
 42 546 42 546 44 551 c 2,58,-1
 45 555 l 1,59,60
 44 556 44 556 50 577 c 1,61,62
 53 592 53 592 53 593 c 0,63,64
 54 600 54 600 61.5 615 c 128,-1,65
 69 630 69 630 76 641 c 0,66,67
 81 648 81 648 92 661.5 c 128,-1,68
 103 675 103 675 104 675 c 128,-1,69
 105 675 105 675 113 683 c 0,70,71
 142 710 142 710 191 720 c 0,72,73
 196 721 196 721 209 721 c 1,74,75
 216 720 216 720 224 720 c 0,76,77
 250 720 250 720 258 719 c 0,78,79
 285 714 285 714 309 700 c 0,80,81
 322 692 322 692 333.5 682 c 128,-1,82
 345 672 345 672 350 666 c 0,83,84
 355 659 355 659 362 650 c 1,85,86
 371 641 371 641 382 617 c 128,-1,87
 393 593 393 593 397 575 c 0,88,89
 400 561 400 561 401 560 c 0,90,91
 403 553 403 553 409 506 c 0,92,93
 411 489 411 489 411 472.5 c 128,-1,94
 411 456 411 456 409 439 c 0,95,96
 404 395 404 395 402.5 386 c 128,-1,97
 401 377 401 377 397 361 c 0,98,99
 397 358 397 358 395.5 351.5 c 128,-1,100
 394 345 394 345 394 344 c 2,101,-1
 390 326 l 1,102,-1
 384 305 l 2,103,104
 377 279 377 279 356 229 c 0,105,106
 336 182 336 182 318 150 c 0,107,108
 301 121 301 121 292 107 c 0,109,110
 277 85 277 85 273 78 c 0,111,112
 273 77 273 77 271 74 c 128,-1,113
 269 71 269 71 267 68 c 0,114,115
 265 64 265 64 263 62 c 0,116,117
 254 46 254 46 252 44 c 1,118,119
 250 39 250 39 244 30 c 0,120,121
 242 28 242 28 238.5 23 c 128,-1,122
 235 18 235 18 234 17 c 0,123,124
 230 11 230 11 227 9 c 0,125,126
 225 8 225 8 168 7 c 0,127,128
 113 7 113 7 110 5 c 1,129,-1
 109 5 l 2,130,131
 108 5 108 5 106 6 c 0,132,133
 102 8 102 8 101 10 c 0,134,135
 99 15 99 15 116 33 c 0,136,137
 127 44 127 44 149.5 71 c 128,-1,138
 172 98 172 98 177 107 c 1,139,-1
 180 111 l 2,140,141
 183 115 183 115 185 118 c 0,142,143
 214 156 214 156 240 203 c 0,144,145
 241 205 241 205 245 210 c 0,146,147
 247 212 247 212 255 228 c 0,148,149
 260 239 260 239 270 256 c 1,150,151
 278 272 278 272 274 271 c 0,152,153
 272 271 272 271 257 263 c 1,154,155
 237 254 237 254 221 250 c 0,156,157
 211 248 211 248 199 247 c 0,158,159
 192 247 192 247 186 248 c 0,160,161
 163 250 163 250 141 259 c 0,162,163
 125 266 125 266 113.5 276 c 128,-1,164
 102 286 102 286 88 303 c 0,165,166
 87 304 87 304 85 306.5 c 128,-1,167
 83 309 83 309 82.5 310 c 128,-1,168
 82 311 82 311 81 312 c 0,169,170
 75 318 75 318 71 330 c 0,171,172
 70 335 70 335 62 349 c 1,173,174
 55 364 55 364 54 368 c 0,175,176
 52 378 52 378 51 380 c 0,177,178
 41 414 41 414 38 454 c 0,52,53
EndSplineSet
EndChar

StartChar: colon
Encoding: 58 58 29
Width: 243
GlyphClass: 2
Flags: W
LayerCount: 2
Fore
SplineSet
67 345 m 128,-1,1
 67 356 67 356 69 362 c 0,2,3
 71 370 71 370 73 373 c 2,4,-1
 75 378 l 1,5,-1
 79 384 l 2,6,7
 83 389 83 389 83.5 389 c 128,-1,8
 84 389 84 389 89 393 c 0,9,10
 99 401 99 401 111 403 c 0,11,12
 113 403 113 403 114 403.5 c 128,-1,13
 115 404 115 404 116 404 c 2,14,-1
 117 405 l 1,15,-1
 119 405 l 1,16,-1
 127 404 l 2,17,18
 151 402 151 402 169 380 c 0,19,20
 175 372 175 372 177 362 c 0,21,22
 179 353 179 353 179 345 c 0,23,24
 179 339 179 339 178 332 c 0,25,26
 175 318 175 318 165 306 c 0,27,28
 159 299 159 299 154 295.5 c 128,-1,29
 149 292 149 292 139 289 c 0,30,31
 132 287 132 287 123 287 c 0,32,33
 112 287 112 287 111 288 c 0,34,35
 110 288 110 288 105 290 c 0,36,37
 98 292 98 292 91 296 c 1,38,-1
 82 305 l 2,39,40
 76 311 76 311 76 312 c 128,-1,41
 76 313 76 313 74 315 c 0,42,43
 71 320 71 320 68 329 c 0,44,0
 67 334 67 334 67 345 c 128,-1,1
64 69 m 0,45,46
 64 80 64 80 66 87 c 0,47,48
 68 95 68 95 71 98 c 1,49,50
 73 103 73 103 73 104 c 2,51,-1
 77 109 l 2,52,53
 81 114 81 114 81.5 114 c 128,-1,54
 82 114 82 114 86 117 c 0,55,56
 97 125 97 125 109 128 c 0,57,58
 110 128 110 128 111.5 128.5 c 128,-1,59
 113 129 113 129 114 130 c 1,60,-1
 115 130 l 1,61,-1
 116 130 l 1,62,-1
 125 129 l 2,63,64
 150 127 150 127 166 105 c 0,65,66
 172 97 172 97 175 86 c 0,67,68
 177.286 77.4286 177.286 77.4286 177.286 69.1837 c 0,69,70
 177.286 63 177.286 63 176 57 c 0,71,72
 173 43 173 43 162 31 c 0,73,74
 156 24 156 24 151 20.5 c 128,-1,75
 146 17 146 17 137 14 c 0,76,77
 130 12 130 12 120 12 c 2,78,-1
 114 12 l 1,79,-1
 110 12 l 1,80,-1
 109 13 l 2,81,82
 108 13 108 13 103 15 c 0,83,84
 96 17 96 17 88 21 c 1,85,86
 85 24 85 24 79.5 30 c 128,-1,87
 74 36 74 36 74 37 c 0,88,89
 74 39 74 39 72 41 c 0,90,91
 69 46 69 46 66 54 c 0,92,93
 64 59 64 59 64 69 c 0,45,46
EndSplineSet
EndChar

StartChar: semicolon
Encoding: 59 59 30
Width: 225
GlyphClass: 2
Flags: W
LayerCount: 2
Fore
SplineSet
68 337 m 128,-1,1
 68 348 68 348 70 354 c 0,2,3
 72 362 72 362 74 366 c 0,4,5
 76 371 76 371 77 371 c 2,6,-1
 80 376 l 2,7,8
 84 382 84 382 84.5 382 c 128,-1,9
 85 382 85 382 90 385 c 0,10,11
 100 393 100 393 112 396 c 0,12,13
 114 396 114 396 115.5 396.5 c 128,-1,14
 117 397 117 397 118 397 c 2,15,-1
 119 397 l 1,16,-1
 120 397 l 1,17,-1
 128 397 l 1,18,19
 152 395 152 395 170 373 c 0,20,21
 176 365 176 365 179 354 c 0,22,23
 181 346 181 346 181 339 c 128,-1,24
 181 332 181 332 179 324 c 0,25,26
 176 310 176 310 166 299 c 0,27,28
 160 292 160 292 155 288.5 c 128,-1,29
 150 285 150 285 141 281 c 1,30,31
 134 279 134 279 124 279 c 0,32,33
 113 279 113 279 112 280 c 0,34,35
 111 280 111 280 106 282 c 0,36,37
 99 284 99 284 92 289 c 1,38,-1
 84 298 l 2,39,40
 78 304 78 304 78 305 c 128,-1,41
 78 306 78 306 76 308 c 0,42,43
 73 313 73 313 69 322 c 0,44,0
 68 326 68 326 68 337 c 128,-1,1
21 -85 m 128,-1,46
 21 -81 21 -81 24 -70 c 0,47,48
 27 -61 27 -61 28 -55 c 0,49,50
 28 -54 28 -54 29.5 -49.5 c 128,-1,51
 31 -45 31 -45 31 -43 c 0,52,53
 33 -35 33 -35 34 -32 c 0,54,55
 36 -23 36 -23 37 -21 c 0,56,57
 39 -14 39 -14 45.5 11.5 c 128,-1,58
 52 37 52 37 53 41 c 0,59,60
 60 71 60 71 63 87 c 0,61,62
 65 99 65 99 70 117 c 0,63,64
 71 123 71 123 74 124 c 1,65,66
 76 126 76 126 126 126 c 2,67,68
 155 126 l 2,69,70
 178 126 178 126 179 125 c 0,71,72
 181 123 181 123 181 120 c 0,73,74
 181 114 181 114 175 103 c 0,75,76
 172 98 172 98 162 80 c 1,77,78
 148 51 148 51 144 44 c 0,79,80
 141 39 141 39 137 31 c 0,81,82
 137 30 137 30 135.5 27 c 128,-1,83
 134 24 134 24 133 22.5 c 128,-1,84
 132 21 132 21 132 20 c 0,85,86
 131 19 131 19 128 13 c 1,87,88
 126 6 126 6 100 -44 c 0,89,90
 90 -62 90 -62 84 -77 c 0,91,92
 80 -88 80 -88 76 -90 c 0,93,94
 74 -91 74 -91 65 -91 c 2,95,96
 51 -91 l 1,97,98
 26 -90 26 -90 24 -90 c 0,99,45
 21 -89 21 -89 21 -85 c 128,-1,46
EndSplineSet
EndChar

StartChar: less
Encoding: 60 60 31
Width: 605
GlyphClass: 2
Flags: W
LayerCount: 2
Fore
SplineSet
16 275 m 0,0,1
 16 286 16 286 17.5 289 c 128,-1,2
 19 292 19 292 22 292 c 1,3,-1
 25 294 l 2,4,5
 28 295 28 295 31 296 c 128,-1,6
 34 297 34 297 37 298 c 0,7,8
 46 301 46 301 50 304 c 1,9,-1
 53 305 l 2,10,11
 56 306 56 306 59.5 307.5 c 128,-1,12
 63 309 63 309 66 310 c 0,13,14
 75 313 75 313 84 317 c 0,15,16
 86 318 86 318 91 319.5 c 128,-1,17
 96 321 96 321 97 322 c 0,18,19
 110 326 110 326 125 333 c 0,20,21
 151 344 151 344 155 344 c 0,22,23
 157 344 157 344 162 347 c 1,24,25
 170 350 170 350 188 357 c 2,26,-1
 231 375 l 2,27,28
 258 387 258 387 275 393 c 0,29,30
 280 395 280 395 286 397.5 c 128,-1,31
 292 400 292 400 295 401 c 128,-1,32
 298 402 298 402 299 403 c 0,33,34
 300 403 300 403 328 414 c 0,35,36
 335 417 335 417 361 427 c 0,37,38
 379 434 379 434 403 443 c 0,39,40
 404 444 404 444 409.5 446 c 128,-1,41
 415 448 415 448 417 449 c 0,42,43
 420 450 420 450 439 457 c 0,44,45
 474 470 474 470 503 482 c 0,46,47
 506 483 506 483 511 485 c 128,-1,48
 516 487 516 487 519.5 488.5 c 128,-1,49
 523 490 523 490 524 491 c 0,50,51
 532 493 532 493 533 494 c 0,52,53
 535 495 535 495 552 502 c 0,54,55
 574 511 574 511 576 513 c 1,56,-1
 578 513 l 1,57,58
 584 515 584 515 586 515 c 2,59,-1
 588 514 l 1,60,61
 589 512 589 512 589 492 c 2,62,-1
 589 489 l 2,63,64
 589 462 589 462 588 460 c 0,65,66
 587 459 587 459 572 452.5 c 128,-1,67
 557 446 557 446 551 445 c 0,68,69
 544 443 544 443 527 436 c 0,70,71
 512 430 512 430 491 422 c 0,72,73
 480 418 480 418 463 411 c 1,74,75
 438 399 438 399 435 399 c 1,76,-1
 416 392 l 1,77,78
 399 384 399 384 396 384 c 0,79,80
 395 384 395 384 391 382 c 0,81,82
 386 379 386 379 375 375 c 0,83,84
 373 374 373 374 369.5 373 c 128,-1,85
 366 372 366 372 364 371 c 128,-1,86
 362 370 362 370 361 370 c 0,87,88
 359 369 359 369 338 360 c 128,-1,89
 317 351 317 351 306 347 c 0,90,91
 249 325 249 325 224 314 c 0,92,93
 219 312 219 312 217 312 c 0,94,95
 216 312 216 312 210 310 c 1,96,97
 205 306 205 306 197 304 c 0,98,99
 188 302 188 302 171 295 c 0,100,101
 152 287 152 287 148 287 c 1,102,103
 142 285 142 285 130.5 280.5 c 128,-1,104
 119 276 119 276 118 275 c 0,105,106
 115 273 115 273 125 267 c 0,107,108
 128 266 128 266 131 265 c 0,109,110
 133 265 133 265 143 260 c 0,111,112
 144 260 144 260 147 258.5 c 128,-1,113
 150 257 150 257 152.5 256 c 128,-1,114
 155 255 155 255 157 254 c 0,115,116
 186 244 186 244 194 240 c 0,117,118
 195 240 195 240 210 234 c 0,119,120
 222 229 222 229 223 229 c 2,121,-1
 232 224 l 1,122,123
 242 221 242 221 272 208 c 0,124,125
 278 206 278 206 285 203 c 128,-1,126
 292 200 292 200 297 198 c 0,127,128
 304 195 304 195 333 184 c 0,129,130
 336 183 336 183 340 181.5 c 128,-1,131
 344 180 344 180 347 179 c 128,-1,132
 350 178 350 178 351 177 c 0,133,134
 352 177 352 177 367 171 c 0,135,136
 408 156 408 156 413 153 c 0,137,138
 446 139 446 139 450 138 c 0,139,140
 459 135 459 135 471 130 c 0,141,142
 482 125 482 125 483 125 c 0,143,144
 486 125 486 125 492 122 c 1,145,146
 499 120 499 120 516 112 c 1,147,148
 525 109 525 109 542 102 c 0,149,150
 549 99 549 99 566 92 c 0,151,152
 567 92 567 92 569 91 c 0,153,154
 584 86 584 86 586.5 81.5 c 128,-1,155
 589 77 589 77 589 57 c 2,156,-1
 589 54 l 2,157,158
 589 28 589 28 587 27 c 128,-1,159
 585 26 585 26 584 26 c 2,160,-1
 581 27 l 2,161,162
 578 29 578 29 557 37.5 c 128,-1,163
 536 46 536 46 527 49 c 0,164,165
 494 61 494 61 491 63 c 0,166,167
 490 64 490 64 484 66 c 0,168,169
 482 67 482 67 474 70.5 c 128,-1,170
 466 74 466 74 458 77 c 2,171,-1
 446 82 l 2,172,173
 433 87 433 87 431 88 c 0,174,175
 430 88 430 88 428 89 c 128,-1,176
 426 90 426 90 424 91 c 128,-1,177
 422 92 422 92 420 92 c 0,178,179
 415 94 415 94 354 119 c 2,180,-1
 314 135 l 2,181,182
 309 137 309 137 304 139 c 0,183,184
 303 139 303 139 299 141 c 128,-1,185
 295 143 295 143 293 143 c 1,186,187
 292 142 292 142 289 144 c 2,188,-1
 284 147 l 1,189,190
 280 148 280 148 238 165 c 0,191,192
 234 166 234 166 224 170 c 0,193,194
 223 170 223 170 208 177 c 1,195,196
 179 187 179 187 165 194 c 0,197,198
 159 197 159 197 157 197 c 128,-1,199
 155 197 155 197 147 201 c 0,200,201
 136 206 136 206 129 208 c 0,202,203
 127 209 127 209 87 226 c 0,204,205
 51 241 51 241 42 244 c 0,206,207
 35 246 35 246 23 251 c 0,208,209
 17 253 17 253 16.5 255.5 c 128,-1,210
 16 258 16 258 16 275 c 0,0,1
EndSplineSet
EndChar

StartChar: equal
Encoding: 61 61 32
Width: 599
GlyphClass: 2
Flags: W
LayerCount: 2
Fore
SplineSet
56 368 m 2,0,1
 55 369 55 369 56.5 381 c 128,-1,2
 58 393 58 393 60 394 c 1,3,-1
 66 394 l 1,4,5
 85 394 l 1,6,7
 111 393 111 393 325 393 c 0,8,9
 540 393 540 393 541 391 c 128,-1,10
 542 389 542 389 542 363.5 c 128,-1,11
 542 338 542 338 540.5 336 c 128,-1,12
 539 334 539 334 299.5 334 c 128,-1,13
 60 334 60 334 59 336 c 0,14,15
 57 338 57 338 57 352 c 2,16,-1
 56 368 l 2,0,1
56 176 m 0,17,18
 56 197 56 197 58 203 c 0,19,20
 59 206 59 206 63 207 c 0,21,22
 65 207.5 65 207.5 67 207.5 c 2,23,-1
 71 207 l 2,24,25
 74 207 74 207 308 205 c 1,26,27
 541 205 541 205 542 203 c 128,-1,28
 543 201 543 201 543 176 c 128,-1,29
 543 151 543 151 541 149 c 0,30,31
 540 148 540 148 433 148 c 2,32,33
 300 148 l 1,34,35
 60 149 60 149 58 151 c 128,-1,36
 56 153 56 153 56 176 c 0,17,18
EndSplineSet
EndChar

StartChar: greater
Encoding: 62 62 33
Width: 593
GlyphClass: 2
Flags: W
LayerCount: 2
Fore
SplineSet
16 66 m 2,0,1
 16 86 16 86 17.5 91.5 c 128,-1,2
 19 97 19 97 24 98 c 128,-1,3
 29 99 29 99 40 103 c 0,4,5
 59 110 59 110 64 112 c 0,6,7
 89 121 89 121 97 125 c 128,-1,8
 105 129 105 129 116 132 c 1,9,10
 131 138 131 138 132 139 c 0,11,12
 146 146 146 146 153 148 c 0,13,14
 154 148 154 148 157.5 149.5 c 128,-1,15
 161 151 161 151 162 151 c 2,16,-1
 165 152 l 2,17,18
 167 153 167 153 170.5 154.5 c 128,-1,19
 174 156 174 156 177 157 c 0,20,21
 194 163 194 163 203 167 c 0,22,23
 215 171 215 171 220 174 c 0,24,25
 223 175 223 175 235 180 c 0,26,27
 245 184 245 184 248 185 c 0,28,29
 276 196 276 196 278 197 c 0,30,31
 279 198 279 198 294 204 c 0,32,33
 310 210 310 210 311 211 c 0,34,35
 312 211 312 211 314 212 c 128,-1,36
 316 213 316 213 319 214 c 128,-1,37
 322 215 322 215 324 216 c 2,38,-1
 347 225 l 2,39,40
 382 239 382 239 387 240 c 0,41,42
 388 240 388 240 401 246 c 0,43,44
 405 248 405 248 418 253 c 0,45,46
 427 256 427 256 429 257 c 0,47,48
 432 258 432 258 437 260 c 0,49,50
 445 262 445 262 460.5 268.5 c 128,-1,51
 476 275 476 275 479 277 c 2,52,-1
 483 281 l 1,53,-1
 479 283 l 2,54,55
 475 285 475 285 460 291 c 128,-1,56
 445 297 445 297 443 297 c 128,-1,57
 441 297 441 297 420 307 c 0,58,59
 419 307 419 307 417.5 308 c 128,-1,60
 416 309 416 309 413 310 c 128,-1,61
 410 311 410 311 408 312 c 128,-1,62
 406 313 406 313 402.5 314 c 128,-1,63
 399 315 399 315 395.5 317 c 128,-1,64
 392 319 392 319 390 319 c 0,65,66
 371 327 371 327 369 328 c 1,67,68
 365 328 365 328 358 332 c 0,69,70
 357 332 357 332 352 334 c 128,-1,71
 347 336 347 336 342 338 c 128,-1,72
 337 340 337 340 333 342 c 0,73,74
 321 346 321 346 309 351 c 0,75,76
 308 351 308 351 304.5 352.5 c 128,-1,77
 301 354 301 354 297 355.5 c 128,-1,78
 293 357 293 357 291 358 c 0,79,80
 276 364 276 364 274 365 c 2,81,-1
 259 371 l 2,82,83
 239 378 239 378 230 382 c 0,84,85
 228 383 228 383 200 395 c 0,86,87
 179 403 179 403 174 406 c 0,88,89
 170 408 170 408 169 408 c 0,90,91
 167 408 167 408 157 412.5 c 128,-1,92
 147 417 147 417 146 417 c 128,-1,93
 145 417 145 417 135 422 c 0,94,95
 132 424 132 424 114.5 431 c 128,-1,96
 97 438 97 438 90 440 c 0,97,98
 83 443 83 443 77 446 c 0,99,100
 55 456 55 456 46 459 c 0,101,102
 43 460 43 460 36 462.5 c 128,-1,103
 29 465 29 465 27 465 c 2,104,-1
 16 469 l 1,105,-1
 16 496 l 2,106,107
 16 524 16 524 17 524 c 0,108,109
 18 526 18 526 19 526 c 0,110,111
 22 526 22 526 76 503 c 0,112,113
 79 501 79 501 118 486 c 0,114,115
 149 474 149 474 158 470 c 0,116,117
 165 467 165 467 177 462 c 2,118,-1
 216 445 l 2,119,120
 243 434 243 434 247 434 c 0,121,122
 250 434 250 434 250 432 c 1,123,124
 251 431 251 431 260 428 c 0,125,126
 303 410 303 410 305 410 c 0,127,128
 306 410 306 410 328 400 c 0,129,130
 349 390 349 390 351 390 c 128,-1,131
 353 390 353 390 360 387 c 0,132,133
 369 383 369 383 369.5 383 c 128,-1,134
 370 383 370 383 384 377 c 0,135,136
 396 371 396 371 400 370 c 0,137,138
 401 370 401 370 408 367 c 0,139,140
 414 365 414 365 421 362 c 0,141,142
 423 361 423 361 436 356 c 0,143,144
 447 351 447 351 464 345 c 0,145,146
 496 332 496 332 507 327 c 0,147,148
 513 325 513 325 516 325 c 1,149,-1
 522 322 l 2,150,151
 523 322 523 322 525 321 c 128,-1,152
 527 320 527 320 530.5 318.5 c 128,-1,153
 534 317 534 317 536 316 c 0,154,155
 539 315 539 315 546 312 c 128,-1,156
 553 309 553 309 554 309 c 0,157,158
 562 306 562 306 567 304 c 1,159,160
 574 303 574 303 575.5 299 c 128,-1,161
 577 295 577 295 577 280 c 128,-1,162
 577 265 577 265 575.5 262.5 c 128,-1,163
 574 260 574 260 567 257 c 0,164,165
 566 256 566 256 561.5 254.5 c 128,-1,166
 557 253 557 253 555 252 c 0,167,168
 538 245 538 245 531 242 c 0,169,170
 518 238 518 238 508 233 c 0,171,172
 486 224 486 224 473 220 c 0,173,174
 470 219 470 219 460 215 c 0,175,176
 456 213 456 213 442 207 c 0,177,178
 437 205 437 205 426 200.5 c 128,-1,179
 415 196 415 196 414 196 c 0,180,181
 401 190 401 190 399 190 c 0,182,183
 398 190 398 190 393 187 c 0,184,185
 392 186 392 186 388.5 185 c 128,-1,186
 385 184 385 184 384 183 c 0,187,188
 376 181 376 181 345 169 c 0,189,190
 329 162 329 162 328 162 c 0,191,192
 325 160 325 160 296 149 c 0,193,194
 269 138 269 138 257 133 c 0,195,196
 247 129 247 129 235 124 c 0,197,198
 222 119 222 119 206 111 c 0,199,200
 198 108 198 108 196 108 c 0,201,202
 195 108 195 108 178 101 c 128,-1,203
 161 94 161 94 159 93 c 0,204,205
 158 93 158 93 152 90 c 1,206,207
 147 89 147 89 145 88 c 128,-1,208
 143 87 143 87 135.5 84 c 128,-1,209
 128 81 128 81 127 81 c 2,210,-1
 120 78 l 2,211,212
 118 77 118 77 113.5 75 c 128,-1,213
 109 73 109 73 108 73 c 0,214,215
 94 68 94 68 75.5 60.5 c 128,-1,216
 57 53 57 53 56 52 c 0,217,218
 53 51 53 51 52 51 c 0,219,220
 49 51 49 51 41 46 c 1,221,222
 31 42 31 42 29 42 c 128,-1,223
 27 42 27 42 24 40 c 128,-1,224
 21 38 21 38 20.5 38 c 128,-1,225
 20 38 20 38 18 40 c 128,-1,226
 16 42 16 42 16 56 c 2,227,228
 16 66 l 2,0,1
EndSplineSet
EndChar

StartChar: question
Encoding: 63 63 34
Width: 284
GlyphClass: 2
Flags: W
LayerCount: 2
Fore
SplineSet
60 44 m 0,0,1
 60 55 60 55 62 62 c 0,2,3
 64 70 64 70 66 73 c 2,4,-1
 68 78 l 1,5,-1
 72 84 l 2,6,7
 76 89 76 89 76.5 89 c 128,-1,8
 77 89 77 89 82 92 c 0,9,10
 92 100 92 100 104 103 c 0,11,12
 105 103 105 103 106.5 103.5 c 128,-1,13
 108 104 108 104 109 104 c 2,14,-1
 110 104 l 1,15,-1
 111 104 l 1,16,-1
 120 104 l 1,17,18
 144 102 144 102 162 80 c 0,19,20
 168 72 168 72 170 62 c 0,21,22
 172 53 172 53 172 45 c 0,23,24
 172 38 172 38 171 31 c 0,25,26
 168 17 168 17 158 6 c 0,27,28
 152 -1 152 -1 147 -4.5 c 128,-1,29
 142 -8 142 -8 132 -12 c 0,30,31
 125 -14 125 -14 115 -14 c 128,-1,32
 105 -14 105 -14 104 -13 c 0,33,34
 103 -13 103 -13 98 -11 c 0,35,36
 91 -9 91 -9 83 -4 c 1,37,-1
 74 4 l 2,38,39
 68 10 68 10 69 12 c 0,40,41
 69 13 69 13 67 15 c 0,42,43
 64 20 64 20 61 29 c 0,44,45
 60 34 60 34 60 44 c 0,0,1
48 622 m 0,46,47
 47.5 622.5 47.5 622.5 47.5 623.5 c 128,-1,48
 47.5 624.5 47.5 624.5 48 626 c 0,49,50
 48 632 48 632 51 644 c 0,51,52
 52 647 52 647 54 654.5 c 128,-1,53
 56 662 56 662 56 665 c 128,-1,54
 56 668 56 668 58 675 c 128,-1,55
 60 682 60 682 60 685 c 0,56,57
 61 693 61 693 64 698 c 0,58,59
 65 700 65 700 69 700 c 0,60,61
 70 700 70 700 74 701 c 1,62,63
 80 701 80 701 94 700 c 0,64,65
 124 699 124 699 130 698 c 0,66,67
 132 698 132 698 137.5 696.5 c 128,-1,68
 143 695 143 695 145 695 c 0,69,70
 157 693 157 693 170 687 c 2,71,-1
 178 683 l 1,72,73
 181 683 181 683 196.5 669 c 128,-1,74
 212 655 212 655 217 648 c 0,75,76
 227 633 227 633 232 612 c 0,77,78
 236 597 236 597 236 584 c 0,79,80
 236 579 236 579 235 573 c 1,81,82
 235 558 235 558 228.5 534 c 128,-1,83
 222 510 222 510 215 498 c 0,84,85
 206 481 206 481 193 448 c 0,86,87
 193 446 193 446 189 437 c 128,-1,88
 185 428 185 428 184 425 c 0,89,90
 176 409 176 409 169 392 c 0,91,92
 168 390 168 390 165.5 383 c 128,-1,93
 163 376 163 376 162 373 c 0,94,95
 161 372 161 372 158.5 366 c 128,-1,96
 156 360 156 360 155 358 c 0,97,98
 147 342 147 342 140 305 c 0,99,100
 139 299 139 299 139.5 294 c 128,-1,101
 140 289 140 289 143 273 c 0,102,103
 147 255 147 255 163 238 c 0,104,105
 186 215 186 215 187 212 c 0,106,107
 187 211 187 211 172 190 c 1,108,109
 158 168 158 168 158 167 c 128,-1,110
 158 166 158 166 155 165.5 c 0,111,112
 154 165.333 154 165.333 153.111 165.333 c 0,113,114
 151.333 165.333 151.333 165.333 150 166 c 0,115,116
 147 168 147 168 142 172 c 0,117,118
 125 188 125 188 110 197 c 0,119,120
 106 199 106 199 105 202 c 128,-1,121
 104 205 104 205 97 213 c 128,-1,122
 90 221 90 221 89 223 c 0,123,124
 89 225 89 225 83 234 c 0,125,126
 76 246 76 246 68 273 c 0,127,128
 66 279 66 279 66 289.5 c 128,-1,129
 66 300 66 300 68 314 c 0,130,131
 71 342 71 342 78 358 c 0,132,133
 88 379 88 379 88 384 c 0,134,135
 88 386 88 386 91 393 c 0,136,137
 91 394 91 394 93.5 401 c 128,-1,138
 96 408 96 408 98 412 c 0,139,140
 103 426 103 426 110 441 c 0,141,142
 118 457 118 457 122 469 c 0,143,144
 126 480 126 480 129 486 c 0,145,146
 131 490 131 490 137.5 508.5 c 128,-1,147
 144 527 144 527 146 537 c 0,148,149
 146 538 146 538 147 540 c 128,-1,150
 148 542 148 542 148.5 544 c 128,-1,151
 149 546 149 546 149 547 c 0,152,153
 150 552 150 552 151 567 c 128,-1,154
 152 582 152 582 151 586 c 0,155,156
 149 595 149 595 148 597 c 0,157,158
 145 607 145 607 133 615 c 0,159,160
 128 619 128 619 109 624 c 1,161,162
 93 626 93 626 88 626 c 0,163,164
 86 626 86 626 68 622 c 128,-1,165
 50 618 50 618 48 622 c 0,46,47
EndSplineSet
EndChar

StartChar: at
Encoding: 64 64 35
Width: 693
GlyphClass: 2
Flags: W
LayerCount: 2
Fore
SplineSet
596 753.5 m 128,-1,1
 596 755 596 755 598.5 755 c 128,-1,2
 601 755 601 755 601 753.5 c 128,-1,3
 601 752 601 752 598.5 752 c 128,-1,0
 596 752 596 752 596 753.5 c 128,-1,1
268 347.5 m 128,-1,5
 268 323 268 323 270 317 c 0,6,7
 277 298 277 298 284 291 c 0,8,9
 286 288 286 288 293.5 283 c 128,-1,10
 301 278 301 278 304 278 c 0,11,12
 306 278 306 278 312 276 c 0,13,14
 314 276 314 276 316 276 c 2,15,16
 325 276 l 1,17,18
 334 278 334 278 341 281 c 0,19,20
 364 292 364 292 383 332 c 0,21,22
 388 343 388 343 391 348 c 0,23,24
 400 366 400 366 406 388 c 0,25,26
 410 403 410 403 411 405 c 0,27,28
 413 409 413 409 419 450 c 0,29,30
 420 457 420 457 420 464 c 0,31,32
 420 472 420 472 418 482 c 0,33,34
 416 498 416 498 410 505 c 0,35,36
 407 508 407 508 404 513 c 128,-1,37
 401 518 401 518 392 521 c 1,38,39
 377 528 377 528 364.5 526.5 c 128,-1,40
 352 525 352 525 334 513 c 0,41,42
 315 501 315 501 297 468.5 c 128,-1,43
 279 436 279 436 274 404 c 0,44,45
 273 393 273 393 270 382 c 0,46,4
 268 372 268 372 268 347.5 c 128,-1,5
26 386 m 0,47,48
 26 410 26 410 29 420 c 1,49,50
 30 427 30 427 32 442 c 1,51,52
 33 467 33 467 37 474 c 0,53,54
 39 477 39 477 39 480 c 128,-1,55
 39 483 39 483 41 492 c 2,56,-1
 47 511 l 2,57,58
 50 522 50 522 52 522 c 1,59,60
 53 523 53 523 53 526 c 0,61,62
 53 532 53 532 67 558 c 128,-1,63
 81 584 81 584 97 608 c 0,64,65
 104 617 104 617 104 620 c 0,66,67
 104 622 104 622 110 626 c 0,68,69
 117 632 117 632 122 640 c 128,-1,70
 127 648 127 648 139 657 c 0,71,72
 145 661 145 661 156 671 c 0,73,74
 163 677 163 677 168 681 c 0,75,76
 169 682 169 682 174.5 686 c 128,-1,77
 180 690 180 690 183 692 c 0,78,79
 193 700 193 700 223 716 c 128,-1,80
 253 732 253 732 279 739 c 0,81,82
 280 739 280 739 291 742 c 0,83,84
 310 746 310 746 350 750 c 0,85,86
 356 751 356 751 369 751 c 1,87,88
 376 750 376 750 384 750 c 2,89,90
 411 750 l 1,91,92
 413 749 413 749 423 748 c 0,93,94
 449 745 449 745 467 739 c 1,95,96
 518 725 518 725 561 691 c 0,97,98
 571 684 571 684 588 666.5 c 128,-1,99
 605 649 605 649 608 643 c 1,100,-1
 619 629 l 1,101,-1
 625 622 l 2,102,103
 625 621 625 621 631 610 c 1,104,105
 638 600 638 600 638 598 c 0,106,107
 638 597 638 597 640 593 c 0,108,109
 641 592 641 592 642.5 588.5 c 128,-1,110
 644 585 644 585 644 584 c 0,111,112
 645 581 645 581 648 574 c 0,113,114
 651 566 651 566 651 564 c 128,-1,115
 651 562 651 562 654 554 c 0,116,117
 666 516 666 516 666 464 c 2,118,119
 666 449 l 1,120,121
 665 421 665 421 663 414 c 0,122,123
 659 389 659 389 657.5 381.5 c 128,-1,124
 656 374 656 374 651 362 c 0,125,126
 634 317 634 317 621 297 c 0,127,128
 619 295 619 295 612 283 c 0,129,130
 605 270 605 270 581.5 248 c 128,-1,131
 558 226 558 226 543 219 c 0,132,133
 515 206 515 206 490 206 c 0,134,135
 477 206 477 206 465 209 c 0,136,137
 419 221 419 221 413 273 c 0,138,139
 411 293 411 293 404 278 c 0,140,141
 390 252 390 252 373 236 c 0,142,143
 343 206 343 206 298 206 c 2,144,145
 295 206 l 2,146,147
 273 206 273 206 253 214 c 0,148,149
 243 217 243 217 237.5 221.5 c 128,-1,150
 232 226 232 226 221 237 c 0,151,152
 214 244 214 244 210.5 249 c 128,-1,153
 207 254 207 254 200 266 c 1,154,155
 191 286 191 286 189 292 c 0,156,157
 183 314 183 314 181 333 c 0,158,159
 180 340 180 340 180 351 c 128,-1,160
 180 362 180 362 181 376 c 0,161,162
 183 405 183 405 188 425 c 1,163,164
 190 438 190 438 197 460 c 0,165,166
 199 466 199 466 208 484.5 c 128,-1,167
 217 503 217 503 221 509 c 0,168,169
 230 523 230 523 249.5 545 c 128,-1,170
 269 567 269 567 277 572 c 0,171,172
 317 598 317 598 355 598 c 0,173,174
 367 598 367 598 388 592 c 0,175,176
 393 591 393 591 402 584 c 128,-1,177
 411 577 411 577 417 570 c 0,178,179
 429 557 429 557 435 538 c 1,180,-1
 438 530 l 2,181,182
 439 528 439 528 440 526 c 128,-1,183
 441 524 441 524 442 524 c 128,-1,184
 443 524 443 524 444 525 c 0,185,186
 447 527 447 527 453 553 c 1,187,188
 455 569 455 569 458 574 c 0,189,190
 459 576 459 576 464 576.5 c 128,-1,191
 469 577 469 577 494 578 c 1,192,193
 521 578 l 1,194,-1
 531 578 l 1,195,196
 533 577 533 577 533 573 c 0,197,198
 533 563 533 563 524 536 c 0,199,200
 520 523 520 523 520 522 c 0,201,202
 519 515 519 515 515 505 c 1,203,204
 515 502 515 502 514 499 c 128,-1,205
 513 496 513 496 512 493.5 c 128,-1,206
 511 491 511 491 511 490 c 0,207,208
 511 488 511 488 509 484 c 0,209,210
 509 483 509 483 507 476 c 0,211,212
 506 471 506 471 497 433 c 0,213,214
 491 412 491 412 486 393 c 0,215,216
 482 378 482 378 477 348 c 0,217,218
 474 329 474 329 474 313 c 2,219,220
 474 306 l 1,221,222
 475 288 475 288 480 281 c 0,223,224
 487 272 487 272 505 272 c 0,225,226
 512 272 512 272 520 273 c 0,227,228
 527 274 527 274 540.5 283.5 c 128,-1,229
 554 293 554 293 560 301 c 0,230,231
 582 329 582 329 594 362 c 0,232,233
 603 385 603 385 606 397.5 c 128,-1,234
 609 410 609 410 612 438 c 0,235,236
 614 451 614 451 614 465 c 0,237,238
 614 477 614 477 612 492 c 1,239,240
 610 523 610 523 603 545 c 0,241,242
 598 561 598 561 598 564 c 128,-1,243
 598 567 598 567 589.5 582 c 128,-1,244
 581 597 581 597 573 608 c 0,245,246
 566 619 566 619 556 630 c 128,-1,247
 546 641 546 641 539 646 c 128,-1,248
 532 651 532 651 532 650 c 1,249,250
 527 655 527 655 508.5 667 c 128,-1,251
 490 679 490 679 487 679 c 0,252,253
 486 679 486 679 480 682 c 128,-1,254
 474 685 474 685 460 689 c 128,-1,255
 446 693 446 693 437 695 c 2,256,-1
 419 698 l 2,257,258
 411 700 411 700 376 700 c 2,259,260
 363 700 l 2,261,262
 339 700 339 700 332 698 c 1,263,264
 322 697 322 697 300.5 692 c 128,-1,265
 279 687 279 687 276 685 c 2,266,-1
 273 683 l 2,267,268
 270 681 270 681 263 678 c 128,-1,269
 256 675 256 675 252 673 c 0,270,271
 235 665 235 665 227 660 c 128,-1,272
 219 655 219 655 204 644 c 0,273,274
 169 618 169 618 141 578 c 0,275,276
 134 568 134 568 125.5 553 c 128,-1,277
 117 538 117 538 115 532 c 128,-1,278
 113 526 113 526 108 519 c 1,279,280
 104 510 104 510 104 504.5 c 128,-1,281
 104 499 104 499 103 496 c 0,282,283
 98 486 98 486 93 466 c 0,284,285
 88 441 88 441 88 431 c 128,-1,286
 88 421 88 421 84 396 c 0,287,288
 83 388 83 388 83 378 c 0,289,290
 83 356 83 356 88 328 c 0,291,292
 90 312 90 312 91 310 c 0,293,294
 95 285 95 285 103 264 c 0,295,296
 104 261 104 261 106 251 c 0,297,298
 107 243 107 243 116.5 225.5 c 128,-1,299
 126 208 126 208 135 196 c 0,300,301
 139 191 139 191 142 186 c 0,302,303
 143 184 143 184 153 173 c 2,304,-1
 161 165 l 1,305,-1
 165 160 l 2,306,307
 170 154 170 154 186 140.5 c 128,-1,308
 202 127 202 127 215 118 c 0,309,310
 222 114 222 114 243 103.5 c 128,-1,311
 264 93 264 93 266 93 c 128,-1,312
 268 93 268 93 279 89 c 0,313,314
 314 78 314 78 358 78 c 2,315,316
 365 78 l 1,317,318
 416 79 416 79 445 88 c 0,319,320
 447 88 447 88 455 90.5 c 128,-1,321
 463 93 463 93 465 94 c 0,322,323
 475 98 475 98 479 100 c 0,324,325
 485 103 485 103 486.5 103 c 128,-1,326
 488 103 488 103 500 109 c 2,327,-1
 516 117 l 1,328,329
 536 129 536 129 558 145.5 c 128,-1,330
 580 162 580 162 588 171 c 0,331,332
 593 176 593 176 596.5 176 c 128,-1,333
 600 176 600 176 605 170 c 0,334,335
 626 140 626 140 626 136 c 0,336,337
 626 131 626 131 616 125 c 0,338,339
 615 124 615 124 610.5 121 c 128,-1,340
 606 118 606 118 604 116 c 0,341,342
 576 95 576 95 570 92 c 0,343,344
 566 91 566 91 559 85 c 0,345,346
 553 80 553 80 525.5 66.5 c 128,-1,347
 498 53 498 53 487 49 c 0,348,349
 473 44 473 44 465 42 c 128,-1,350
 457 40 457 40 453 38 c 0,351,352
 451 38 451 38 432 33 c 1,353,354
 403 28 403 28 391 27 c 0,355,356
 385 27 385 27 376.5 26.5 c 0,357,358
 373.667 26.3333 373.667 26.3333 370.444 26.3333 c 0,359,360
 364 26.3333 364 26.3333 356 27 c 0,361,362
 309 29 309 29 277 36 c 0,363,364
 271 37 271 37 258.5 41.5 c 128,-1,365
 246 46 246 46 245 47 c 128,-1,366
 244 48 244 48 240 48 c 0,367,368
 237 48 237 48 231 51 c 1,369,370
 228 54 228 54 225 54 c 0,371,372
 223 54 223 54 201.5 66 c 128,-1,373
 180 78 180 78 177 81 c 0,374,375
 175 82 175 82 163 91 c 0,376,377
 155 96 155 96 130.5 120.5 c 128,-1,378
 106 145 106 145 103 151 c 0,379,380
 100 156 100 156 94 163 c 0,381,382
 85 173 85 173 77 188 c 1,383,384
 71 197 71 197 69 202 c 1,385,386
 61 214 61 214 55 230 c 0,387,388
 54 232 54 232 52 238 c 128,-1,389
 50 244 50 244 50 245 c 0,390,391
 45 257 45 257 44 262 c 0,392,393
 44 266 44 266 43 267.5 c 128,-1,394
 42 269 42 269 38 284 c 0,395,396
 34 301 34 301 28 350 c 0,397,398
 26 359 26 359 26 376 c 0,399,400
 26 381 26 381 26 386 c 0,47,48
EndSplineSet
EndChar

StartChar: A
Encoding: 65 65 36
Width: 389
GlyphClass: 2
Flags: W
LayerCount: 2
Fore
SplineSet
128 187 m 1,0,-1
 189 187 l 2,1,2
 209 187 209 187 224 186 c 1,3,4
 253 186 253 186 261 187 c 0,5,6
 262 187 262 187 264 189 c 1,7,8
 264 192 264 192 256 223 c 0,9,10
 252 239 252 239 250 252 c 0,11,12
 247 273 247 273 244 275 c 0,13,14
 243 276 243 276 242 281 c 0,15,16
 242 282 242 282 241.5 284 c 128,-1,17
 241 286 241 286 240.5 289.5 c 128,-1,18
 240 293 240 293 240 295 c 0,19,20
 239 298 239 298 238 304 c 0,21,22
 236 310 236 310 236 312 c 0,23,24
 236 313 236 313 229 342 c 0,25,26
 229 344 229 344 226 356 c 1,27,28
 224 371 224 371 217 407 c 0,29,30
 217 408 217 408 216 412.5 c 128,-1,31
 215 417 215 417 213.5 423 c 128,-1,32
 212 429 212 429 211 434 c 0,33,34
 208 453 208 453 206 462 c 0,35,36
 206 464 206 464 205 469.5 c 128,-1,37
 204 475 204 475 203 476 c 0,38,39
 199 496 199 496 198 498 c 128,-1,40
 197 500 197 500 196 500 c 128,-1,41
 195 500 195 500 194 498 c 0,42,43
 191 494 191 494 185 459 c 0,44,45
 184 452 184 452 182 448 c 1,46,47
 181 443 181 443 179 428 c 0,48,49
 179 425 179 425 178 421 c 2,50,-1
 176 415 l 1,51,52
 176 412 l 2,53,54
 176 411 176 411 173 399 c 0,55,56
 173 397 173 397 172 391 c 128,-1,57
 171 385 171 385 170.5 383 c 128,-1,58
 170 381 170 381 169 376 c 128,-1,59
 168 371 168 371 167 369 c 0,60,61
 165 359 165 359 164 355 c 0,62,63
 164 354 164 354 163 348.5 c 128,-1,64
 162 343 162 343 161 341 c 0,65,66
 157 319 157 319 155 314 c 0,67,68
 154 313 154 313 153 306 c 0,69,70
 149 281 149 281 146 271 c 0,71,72
 145 267 145 267 143 252 c 0,73,74
 141 240 141 240 136 225 c 0,75,76
 133 214 133 214 130 201 c 0,77,78
 128 192 128 192 128 189 c 2,79,-1
 128 187 l 1,0,-1
-6 5 m 2,80,81
 -6 9 -6 9 -3 18 c 0,82,83
 0 24 0 24 3 41 c 0,84,85
 4 45 4 45 7 54.5 c 128,-1,86
 10 64 10 64 10 67 c 0,87,88
 13 77 13 77 15 84 c 0,89,90
 17 92 17 92 18 97 c 0,91,92
 18 99 18 99 19.5 104 c 128,-1,93
 21 109 21 109 21 110 c 0,94,95
 21 112 21 112 22 117 c 128,-1,96
 23 122 23 122 23 123 c 0,97,98
 23 125 23 125 25 131.5 c 128,-1,99
 27 138 27 138 27 141 c 0,100,101
 28 152 28 152 31 154 c 1,102,-1
 32 156 l 2,103,104
 32 158 32 158 33 161.5 c 128,-1,105
 34 165 34 165 35 167 c 0,106,107
 39 184 39 184 41 197 c 0,108,109
 42 201 42 201 43 204 c 0,110,111
 44 206 44 206 50 233 c 0,112,113
 53 249 53 249 54 250 c 0,114,115
 58 266 58 266 60 279 c 0,116,117
 62 288 62 288 65 300 c 128,-1,118
 68 312 68 312 70 319 c 0,119,120
 70 320 70 320 71.5 324 c 128,-1,121
 73 328 73 328 73 330 c 0,122,123
 74 337 74 337 75 338 c 1,124,125
 75 342 75 342 76 346 c 0,126,127
 81 365 81 365 84 381 c 0,128,129
 88 400 88 400 91 410 c 0,130,131
 94 423 94 423 99 442 c 1,132,133
 101 455 101 455 104 465 c 0,134,135
 106 471 106 471 108 483 c 0,136,137
 110 496 110 496 112 499 c 0,138,139
 112 500 112 500 113 503.5 c 128,-1,140
 114 507 114 507 115 509 c 0,141,142
 121 531 121 531 125 551 c 0,143,144
 125 553 125 553 126.5 560 c 128,-1,145
 128 567 128 567 128 569 c 0,146,147
 131 578 131 578 134 593 c 0,148,149
 136 603 136 603 137 605 c 128,-1,150
 138 607 138 607 140 615 c 0,151,152
 141 619 141 619 142 623 c 128,-1,153
 143 627 143 627 145 634 c 0,154,155
 145 636 145 636 145.5 639.5 c 128,-1,156
 146 643 146 643 146.5 645.5 c 128,-1,157
 147 648 147 648 148 649 c 0,158,159
 155 682 155 682 155 685 c 0,160,161
 156 694 156 694 159 698 c 1,162,163
 159 700 159 700 164 700.5 c 128,-1,164
 169 701 169 701 195 701 c 0,165,166
 224 701 224 701 228.5 700 c 128,-1,167
 233 699 233 699 235 692 c 1,168,-1
 236 690 l 2,169,170
 237 687 237 687 237.5 685 c 128,-1,171
 238 683 238 683 238 681 c 0,172,173
 240 672 240 672 241 664 c 0,174,175
 243 653 243 653 244 652 c 0,176,177
 246 647 246 647 251 620 c 0,178,179
 254 604 254 604 259 586 c 0,180,181
 259 584 259 584 261 578.5 c 128,-1,182
 263 573 263 573 263.5 571.5 c 128,-1,183
 264 570 264 570 265 565.5 c 128,-1,184
 266 561 266 561 266 559 c 0,185,186
 269 548 269 548 269 547 c 0,187,188
 270 543 270 543 271 540 c 0,189,190
 272 539 272 539 272 534 c 0,191,192
 272 533 272 533 281 491 c 0,193,194
 282 485 282 485 285 477 c 0,195,196
 286 476 286 476 289 462 c 0,197,198
 289 460 289 460 290.5 456 c 128,-1,199
 292 452 292 452 292 449.5 c 128,-1,200
 292 447 292 447 293 445 c 2,201,-1
 294 439 l 2,202,203
 296 433 296 433 298 424.5 c 128,-1,204
 300 416 300 416 302 406 c 0,205,206
 302 405 302 405 303 400 c 128,-1,207
 304 395 304 395 305 394 c 0,208,209
 307 387 307 387 310 371.5 c 128,-1,210
 313 356 313 356 314 355 c 0,211,212
 317 340 317 340 320 331 c 0,213,214
 320 329 320 329 321 324.5 c 128,-1,215
 322 320 322 320 323 318 c 1,216,217
 323 314 323 314 325.5 305.5 c 128,-1,218
 328 297 328 297 329 292 c 0,219,220
 331 282 331 282 332 279 c 0,221,222
 332 278 332 278 332.5 275.5 c 128,-1,223
 333 273 333 273 333.5 270.5 c 128,-1,224
 334 268 334 268 334 266 c 0,225,226
 341 236 341 236 344 228 c 0,227,228
 346 220 346 220 350 203 c 0,229,230
 350 199 350 199 353 190 c 0,231,232
 353 189 353 189 354 184.5 c 128,-1,233
 355 180 355 180 355.5 178.5 c 128,-1,234
 356 177 356 177 361 152 c 0,235,236
 366 132 366 132 368 125 c 0,237,238
 368 123 368 123 370 117 c 128,-1,239
 372 111 372 111 372 109 c 0,240,241
 375 94 375 94 381 71 c 0,242,243
 382 69 382 69 384 57 c 0,244,245
 385 50 385 50 390 38 c 1,246,247
 393 27 393 27 394 15 c 1,248,-1
 394 1 l 1,249,-1
 390 0 l 1,250,-1
 377 0 l 1,251,-1
 347 0 l 2,252,253
 307 0 307 0 305 1 c 0,254,255
 303 1 303 1 299 19 c 0,256,257
 299 20 299 20 297.5 29 c 128,-1,258
 296 38 296 38 295 42 c 2,259,-1
 292 56 l 2,260,261
 290 61 290 61 289 69 c 128,-1,262
 288 77 288 77 286 83 c 0,263,264
 284 87 284 87 284 91.5 c 128,-1,265
 284 96 284 96 282 104 c 2,266,-1
 281 112 l 1,267,-1
 195 112 l 1,268,-1
 110 112 l 1,269,-1
 107 100 l 1,270,271
 106 91 106 91 98 48 c 0,272,273
 97 41 97 41 95 35 c 1,274,275
 94 26 94 26 92 18 c 1,276,-1
 92 13 l 1,277,278
 91 4 91 4 86 2 c 0,279,280
 83 1 83 1 66 0 c 1,281,-1
 55 0 l 1,282,-1
 42 0 l 1,283,-1
 -5 0 l 1,284,-1
 -6 5 l 2,80,81
EndSplineSet
EndChar

StartChar: B
Encoding: 66 66 37
Width: 404
GlyphClass: 2
Flags: W
LayerCount: 2
Fore
SplineSet
144 425 m 2,0,1
 144 410 144 410 145 409 c 0,2,3
 147 407 147 407 154 407 c 0,4,5
 158 407 158 407 165 408 c 0,6,7
 181 410 181 410 194 415 c 2,8,-1
 203 418 l 2,9,10
 210 420 210 420 221 428 c 128,-1,11
 232 436 232 436 240 444 c 0,12,13
 254 460 254 460 261 481 c 0,14,15
 267 499 267 499 267 519 c 0,16,17
 267 523 267 523 266 527 c 0,18,19
 265 545 265 545 258 563 c 1,20,21
 254 577 254 577 239 595 c 128,-1,22
 224 613 224 613 201 619 c 0,23,24
 194 621 194 621 189 622 c 0,25,26
 185 623 185 623 171 625 c 0,27,28
 162 626 162 626 150 628 c 1,29,-1
 147 628 l 2,30,31
 145 628 145 628 145 627 c 0,32,33
 144 625 144 625 144 608 c 0,34,35
 144 555 144 555 145 518 c 1,36,37
 144 471 144 471 144 450 c 2,38,-1
 144 425 l 2,0,1
143 173 m 1,39,40
 143 80 143 80 145 78 c 0,41,42
 146 77 146 77 156 76 c 1,43,-1
 162 76 l 2,44,45
 177 76 177 76 185 79 c 0,46,47
 187 80 187 80 191.5 81.5 c 128,-1,48
 196 83 196 83 198 83 c 0,49,50
 205 85 205 85 208 87 c 0,51,52
 211 88 211 88 214 89 c 1,53,54
 219 89 219 89 231 97.5 c 128,-1,55
 243 106 243 106 252 116 c 0,56,57
 270 135 270 135 279 165 c 0,58,59
 282 177 282 177 283 182.5 c 128,-1,60
 284 188 284 188 284 206 c 0,61,62
 284 231 284 231 280 244 c 1,63,64
 277 258 277 258 273 265 c 0,65,66
 273 266 273 266 272 268.5 c 128,-1,67
 271 271 271 271 270 272 c 1,68,-1
 270 274 l 2,69,70
 270 276 270 276 262 285.5 c 128,-1,71
 254 295 254 295 247 302 c 0,72,73
 238 310 238 310 233 312.5 c 128,-1,74
 228 315 228 315 216 319 c 0,75,76
 187 328 187 328 178 330 c 0,77,78
 165 332 165 332 159 333 c 0,79,80
 148 335 148 335 145 333 c 0,81,82
 144 332 144 332 144 206 c 0,83,84
 144 188 144 188 143 173 c 1,39,40
51 10 m 2,85,-1
 51 15 l 1,86,-1
 51 33 l 1,87,88
 52 55 52 55 53 166 c 1,89,90
 53 648 53 648 52 671 c 1,91,92
 52 698 52 698 53 700 c 0,93,94
 55 702 55 702 89 702 c 0,95,96
 103 702 103 702 122 701 c 0,97,98
 187 700 187 700 202 698 c 0,99,100
 219 696 219 696 223 694 c 0,101,102
 224 694 224 694 228.5 693 c 128,-1,103
 233 692 233 692 236 691 c 0,104,105
 245 689 245 689 263 682 c 128,-1,106
 281 675 281 675 287 670 c 2,107,-1
 296 664 l 2,108,109
 305 659 305 659 320 641 c 128,-1,110
 335 623 335 623 343 606 c 0,111,112
 355 580 355 580 355 572 c 0,113,114
 355 568 355 568 356 566 c 0,115,116
 358 564 358 564 358 532 c 0,117,118
 358 527 358 527 359 523 c 1,119,120
 359 498 359 498 356 490 c 0,121,122
 353 478 353 478 346.5 461.5 c 128,-1,123
 340 445 340 445 335 439 c 0,124,125
 333 437 333 437 322 420 c 0,126,127
 313 407 313 407 293 393 c 0,128,129
 276 381 276 381 276 377 c 0,130,131
 276 375 276 375 284 372 c 0,132,133
 320 356 320 356 348 317 c 0,134,135
 359 301 359 301 363 294 c 128,-1,136
 367 287 367 287 371 274 c 0,137,138
 378 250 378 250 380 236 c 128,-1,139
 382 222 382 222 382 203 c 0,140,141
 382 132 382 132 350 86 c 0,142,143
 344 77 344 77 329 63.5 c 128,-1,144
 314 50 314 50 304 42 c 0,145,146
 296 36 296 36 277 27 c 128,-1,147
 258 18 258 18 254 18 c 0,148,149
 253 18 253 18 249 16 c 0,150,151
 246 14 246 14 228 10 c 0,152,153
 225 9 225 9 214 7 c 0,154,155
 195 3 195 3 116 1 c 1,156,-1
 74 1 l 1,157,-1
 63 1 l 2,158,159
 53 1 53 1 53 3 c 1,160,161
 51 5 51 5 51 10 c 2,85,-1
EndSplineSet
EndChar

StartChar: C
Encoding: 67 67 38
Width: 352
GlyphClass: 2
Flags: W
LayerCount: 2
Fore
SplineSet
32 349 m 128,-1,1
 32 412 32 412 34 422 c 0,2,3
 35 432 35 432 35 440 c 0,4,5
 34 448 34 448 37 461 c 1,6,7
 38 470 38 470 39 488 c 1,8,9
 41 505 41 505 42 506 c 1,10,-1
 42 508 l 2,11,12
 42 509 42 509 42.5 509.5 c 128,-1,13
 43 510 43 510 43 511 c 0,14,15
 43 515 43 515 45 527 c 0,16,17
 46 530 46 530 47 539 c 0,18,19
 49 549 49 549 50 549 c 0,20,21
 51 550 51 550 52 556 c 0,22,23
 52 560 52 560 54 562 c 0,24,25
 55 563 55 563 55 566 c 0,26,27
 55 571 55 571 61.5 589 c 128,-1,28
 68 607 68 607 74 619 c 0,29,30
 87 645 87 645 103 664 c 0,31,32
 122 685 122 685 143 696 c 0,33,34
 161 705 161 705 179 709 c 0,35,36
 192 712 192 712 206 712 c 0,37,38
 226 712 226 712 248 706 c 0,39,40
 257 704 257 704 271 696 c 128,-1,41
 285 688 285 688 292 681 c 0,42,43
 304 671 304 671 318 653 c 128,-1,44
 332 635 332 635 338 621 c 0,45,46
 341 613 341 613 340 609.5 c 128,-1,47
 339 606 339 606 329 601 c 0,48,49
 311 592 311 592 288 579 c 0,50,51
 278 574 278 574 274.5 575 c 128,-1,52
 271 576 271 576 266 585 c 0,53,54
 251 616 251 616 229 626 c 0,55,56
 223 628 223 628 210.5 628.5 c 128,-1,57
 198 629 198 629 192 627 c 0,58,59
 180 622 180 622 170 610 c 0,60,61
 166 606 166 606 158 590 c 128,-1,62
 150 574 150 574 148 564 c 0,63,64
 143 546 143 546 138 513 c 128,-1,65
 133 480 133 480 133 458 c 1,66,67
 132 440 132 440 131 438 c 0,68,69
 129 430 129 430 129 354.5 c 128,-1,70
 129 279 129 279 131 270 c 0,71,72
 133 259 133 259 132 256 c 128,-1,73
 131 253 131 253 133 237 c 0,74,75
 133 233 133 233 135 221 c 128,-1,76
 137 209 137 209 137 205 c 0,77,78
 141 164 141 164 154 131 c 0,79,80
 170 87 170 87 195 75 c 0,81,82
 202 71 202 71 216.5 71 c 128,-1,83
 231 71 231 71 239 75 c 0,84,85
 244 77 244 77 255.5 88.5 c 128,-1,86
 267 100 267 100 267 103 c 128,-1,87
 267 106 267 106 271.5 116 c 128,-1,88
 276 126 276 126 279 127 c 1,89,90
 283 130 283 130 298 121 c 0,91,92
 304 117 304 117 321 108 c 0,93,94
 325 106 325 106 332 103 c 0,95,96
 344 97 344 97 345.5 95.5 c 128,-1,97
 347 94 347 94 348 91 c 1,98,-1
 348 88 l 2,99,100
 348 84 348 84 345 81 c 0,101,102
 343 79 343 79 340 72 c 128,-1,103
 337 65 337 65 324 48 c 128,-1,104
 311 31 311 31 303 24 c 0,105,106
 290 11 290 11 277 4.5 c 128,-1,107
 264 -2 264 -2 238 -10 c 1,108,109
 229 -11 229 -11 214 -12 c 1,110,111
 198 -12 198 -12 180 -9 c 128,-1,112
 162 -6 162 -6 156 -2 c 0,113,114
 149 2 149 2 143 5 c 0,115,116
 133 10 133 10 123 17 c 0,117,118
 107 29 107 29 90 55.5 c 128,-1,119
 73 82 73 82 66 104 c 0,120,121
 65 107 65 107 62.5 114 c 128,-1,122
 60 121 60 121 60 123 c 0,123,124
 57 132 57 132 56 136 c 0,125,126
 56 140 56 140 53 144 c 0,127,128
 50 147 50 147 42 198 c 0,129,130
 42 199 42 199 40 216 c 0,131,132
 38 231 38 231 38 232 c 0,133,134
 38 234 38 234 36 247 c 0,135,136
 34 259 34 259 35 268 c 0,137,138
 36 279 36 279 34 282 c 0,139,0
 32 286 32 286 32 349 c 128,-1,1
EndSplineSet
EndChar

StartChar: D
Encoding: 68 68 39
Width: 442
GlyphClass: 2
Flags: W
LayerCount: 2
Fore
SplineSet
143 77 m 1,0,-1
 159 77 l 2,1,2
 180 77 180 77 197 82.5 c 128,-1,3
 214 88 214 88 235 101 c 0,4,5
 249 109 249 109 256 117.5 c 128,-1,6
 263 126 263 126 279 151 c 0,7,8
 281 154 281 154 283 158 c 0,9,10
 283 159 283 159 286 164 c 128,-1,11
 289 169 289 169 290 172 c 0,12,13
 304 202 304 202 310 246 c 0,14,15
 310 248 310 248 312 257 c 0,16,17
 316 276 316 276 317 319 c 0,18,19
 317 336 317 336 318 350 c 1,20,21
 318 373 318 373 316 388 c 0,22,23
 316 391 316 391 313 417 c 0,24,25
 312 425 312 425 311 437 c 0,26,27
 310 446 310 446 309 449 c 0,28,29
 308 451 308 451 308 457 c 0,30,31
 308 462 308 462 306.5 462.5 c 128,-1,32
 305 463 305 463 305 468 c 0,33,34
 305 470 305 470 303 476 c 0,35,36
 302 478 302 478 299 488 c 0,37,38
 291 515 291 515 280.5 538 c 128,-1,39
 270 561 270 561 261 570 c 0,40,41
 254 577 254 577 254 579 c 128,-1,42
 254 581 254 581 246 587.5 c 128,-1,43
 238 594 238 594 229 600 c 0,44,45
 207 614 207 614 180 620 c 1,46,-1
 162 625 l 2,47,48
 158 626 158 626 152.5 626 c 128,-1,49
 147 626 147 626 146 625 c 0,50,51
 145 625 145 625 143 359 c 1,52,-1
 143 276 l 1,53,-1
 143 201 l 1,54,-1
 143 143 l 1,55,-1
 143 102 l 1,56,-1
 143 86 l 1,57,-1
 143 77 l 1,0,-1
51 14 m 2,58,-1
 51 29 l 1,59,60
 52 62 52 62 52 293 c 2,61,-1
 52 692 l 2,62,63
 52 696 52 696 53 699 c 0,64,65
 53 700 53 700 80 701 c 0,66,67
 94 701 94 701 114 700 c 1,68,69
 156 700 156 700 168 699 c 128,-1,70
 180 698 180 698 192 696 c 0,71,72
 248 684 248 684 283 660 c 0,73,74
 310 641 310 641 323 628 c 0,75,76
 338 612 338 612 341 605 c 0,77,78
 341 604 341 604 348 596 c 0,79,80
 362 579 362 579 377.5 545.5 c 128,-1,81
 393 512 393 512 397 488 c 0,82,83
 397 484 397 484 400 474 c 0,84,85
 404 454 404 454 408 430 c 0,86,87
 410 416 410 416 410.5 404 c 128,-1,88
 411 392 411 392 411 348 c 0,89,90
 411 340 411 340 411 332 c 0,91,92
 411 286 411 286 409 271 c 0,93,94
 403 228 403 228 399 214 c 0,95,96
 398 210 398 210 396 203 c 0,97,98
 390 180 390 180 387 177 c 1,99,100
 385 173 385 173 378 157 c 1,101,102
 371 138 371 138 366 130 c 0,103,104
 365 129 365 129 364 126.5 c 128,-1,105
 363 124 363 124 362 123 c 2,106,-1
 361 122 l 2,107,108
 361 121 361 121 358 117 c 0,109,110
 357 116 357 116 354 111.5 c 128,-1,111
 351 107 351 107 350 105 c 0,112,113
 330 75 330 75 292 45 c 0,114,115
 285 39 285 39 259 24 c 1,116,-1
 256 22 l 1,117,118
 252 21 252 21 247 19 c 128,-1,119
 242 17 242 17 237 16 c 0,120,121
 212 7 212 7 196 5 c 0,122,123
 195 5 195 5 191.5 4.5 c 128,-1,124
 188 4 188 4 183 3.5 c 128,-1,125
 178 3 178 3 175 2 c 0,126,127
 157 0 157 0 106 0 c 2,128,-1
 76 0 l 2,129,130
 66 0 66 0 60.5 0.5 c 128,-1,131
 55 1 55 1 53.5 1.5 c 128,-1,132
 52 2 52 2 52 3 c 0,133,134
 51 5 51 5 51 14 c 2,58,-1
EndSplineSet
EndChar

StartChar: E
Encoding: 69 69 40
Width: 353
GlyphClass: 2
Flags: W
LayerCount: 2
Fore
SplineSet
51 2 m 1,0,-1
 51 12 l 1,1,-1
 51 42 l 1,2,3
 52 85 52 85 52 390 c 0,4,5
 52 437 52 437 52.5 486.5 c 128,-1,6
 53 536 53 536 53 572 c 2,7,-1
 53 638 l 1,8,-1
 53 684 l 1,9,-1
 53 699 l 2,10,11
 53 700 53 700 148 700 c 0,12,13
 257 700 257 700 275 701 c 1,14,-1
 300 701 l 2,15,16
 316 701 316 701 318 700 c 0,17,18
 319 700 319 700 319 663 c 0,19,20
 319 627 319 627 317 625 c 0,21,22
 316 624 316 624 271 624 c 2,23,-1
 246 624 l 2,24,25
 176 624 176 624 162 625 c 0,26,27
 160 625 160 625 156 626 c 0,28,29
 146 627 146 627 144.5 621.5 c 128,-1,30
 143 616 143 616 143 580 c 2,31,-1
 143 559 l 2,32,33
 143 530 143 530 144 507 c 1,34,35
 144 474 144 474 143 457 c 1,36,37
 143 439 143 439 142.5 429 c 128,-1,38
 142 419 142 419 143 417 c 2,39,-1
 144 415 l 1,40,-1
 214 415 l 1,41,42
 290 416 290 416 296 417 c 0,43,44
 309 418 309 418 313 417 c 2,45,-1
 318 416 l 1,46,-1
 318 378 l 2,47,48
 318 339 318 339 317 339 c 0,49,50
 316 338 316 338 249.5 338 c 128,-1,51
 183 338 183 338 163 339 c 0,52,53
 144 339 144 339 143 338 c 0,54,55
 142 336 142 336 142 319 c 0,56,57
 142 308 142 308 143 290 c 1,58,-1
 143 190 l 2,59,60
 143 107 143 107 142 89 c 0,61,62
 141 79 141 79 143 77 c 1,63,-1
 153 77 l 2,64,65
 171 77 171 77 226 78 c 0,66,67
 307 79 307 79 310 80 c 0,68,69
 312 81 312 81 315 79 c 1,70,-1
 319 78 l 1,71,-1
 319 41 l 2,72,73
 319 4 319 4 316 2 c 1,74,75
 315 0 315 0 184 0 c 0,76,77
 52 1 52 1 51 2 c 1,0,-1
EndSplineSet
EndChar

StartChar: F
Encoding: 70 70 41
Width: 351
GlyphClass: 2
Flags: W
LayerCount: 2
Fore
SplineSet
51 22 m 0,0,1
 52 45 52 45 52 371 c 0,2,3
 52 615 52 615 52.5 656.5 c 128,-1,4
 53 698 53 698 55 699 c 0,5,6
 56 700 56 700 62 700 c 2,7,-1
 68 700 l 1,8,9
 123 697 123 697 250 696 c 0,10,11
 271 696 271 696 285 697 c 1,12,13
 313 697 313 697 315 695 c 0,14,15
 317 694 317 694 317 659 c 0,16,17
 317 655 317 655 317 651 c 0,18,19
 317 623 317 623 315 622 c 0,20,21
 314 621 314 621 243 621 c 128,-1,22
 172 621 172 621 170.5 622 c 128,-1,23
 169 623 169 623 157 623 c 2,24,-1
 144 623 l 1,25,26
 143 622 143 622 143 555 c 0,27,28
 143 538 143 538 144 518 c 1,29,30
 144 414 144 414 145 412 c 128,-1,31
 146 410 146 410 159 411 c 0,32,33
 179 412 179 412 246 412 c 128,-1,34
 313 412 313 412 315 410.5 c 128,-1,35
 317 409 317 409 317 373 c 128,-1,36
 317 337 317 337 314 335 c 0,37,38
 312 333 312 333 291 333 c 0,39,40
 268 334 268 334 233 334 c 0,41,42
 212 334 212 334 172 336 c 0,43,44
 162 336 162 336 153.5 336.5 c 128,-1,45
 145 337 145 337 145 336 c 0,46,47
 143 335 143 335 143 307 c 0,48,49
 143 301 143 301 143 295 c 0,50,51
 143 275 143 275 144 127 c 1,52,-1
 144 85 l 2,53,54
 144 7 144 7 141 0 c 0,55,56
 140 -3 140 -3 135 -3 c 2,57,-1
 131 -3 l 2,58,59
 128 -3 128 -3 126 -2 c 0,60,61
 111 -1 111 -1 83 -1 c 0,62,63
 53 -1 53 -1 52 0 c 0,64,65
 51 0 51 0 51 22 c 0,0,1
EndSplineSet
EndChar

StartChar: G
Encoding: 71 71 42
Width: 440
GlyphClass: 2
Flags: W
LayerCount: 2
Fore
SplineSet
32 351.5 m 128,-1,1
 32 404 32 404 33 406 c 2,2,-1
 34 409 l 1,3,-1
 34 417 l 2,4,5
 34 422 34 422 35 427 c 0,6,7
 36 449 36 449 38 469 c 0,8,9
 39 474 39 474 40 480 c 128,-1,10
 41 486 41 486 41.5 491 c 128,-1,11
 42 496 42 496 42 497 c 0,12,13
 43 505 43 505 44 509 c 0,14,15
 44 510 44 510 45.5 515.5 c 128,-1,16
 47 521 47 521 47 524 c 0,17,18
 56 573 56 573 71 603 c 0,19,20
 75 613 75 613 76 615 c 0,21,22
 76 617 76 617 85.5 632.5 c 128,-1,23
 95 648 95 648 103 657 c 0,24,25
 116 673 116 673 134 687 c 128,-1,26
 152 701 152 701 167 705 c 0,27,28
 175 707 175 707 180 709 c 0,29,30
 180 710 180 710 186 711 c 0,31,32
 189 711 189 711 199 713 c 0,33,34
 210 715 210 715 222 715 c 0,35,36
 238 715 238 715 256 711 c 0,37,38
 258 711 258 711 262.5 709.5 c 128,-1,39
 267 708 267 708 269 708 c 0,40,41
 275 707 275 707 288 700.5 c 128,-1,42
 301 694 301 694 303 692 c 0,43,44
 304 690 304 690 311 686 c 0,45,46
 320 681 320 681 332 668.5 c 128,-1,47
 344 656 344 656 351 646 c 2,48,-1
 359 633 l 1,49,50
 365 626 365 626 370 622 c 1,51,52
 376 615 376 615 376 612.5 c 128,-1,53
 376 610 376 610 379 607 c 0,54,55
 382 605 382 605 383 600 c 2,56,-1
 386 592 l 2,57,58
 387 590 387 590 384 590 c 128,-1,59
 381 590 381 590 379 586 c 0,60,61
 378 584 378 584 371 581 c 0,62,63
 370 581 370 581 363 577.5 c 128,-1,64
 356 574 356 574 353 573 c 0,65,66
 342 568 342 568 341 567 c 0,67,68
 340 567 340 567 323 560 c 128,-1,69
 306 553 306 553 302 553 c 128,-1,70
 298 553 298 553 294 562 c 0,71,72
 285 584 285 584 275 604 c 0,73,74
 271 612 271 612 268 615 c 128,-1,75
 265 618 265 618 259 622 c 0,76,77
 250 628 250 628 247 629 c 128,-1,78
 244 630 244 630 234 632 c 0,79,80
 221 634 221 634 212 632 c 0,81,82
 204 630 204 630 193 625 c 128,-1,83
 182 620 182 620 182 618 c 0,84,85
 182 617 182 617 173 607 c 0,86,87
 163 596 163 596 158.5 583.5 c 128,-1,88
 154 571 154 571 143 531 c 0,89,90
 136 507 136 507 132 449 c 0,91,92
 130 424 130 424 130 359 c 2,93,-1
 130 330 l 2,94,95
 130 290 130 290 131 276 c 0,96,97
 136 214 136 214 140 197 c 0,98,99
 140 195 140 195 141.5 190 c 128,-1,100
 143 185 143 185 143 183 c 0,101,102
 143 177 143 177 145 172 c 0,103,104
 146 170 146 170 146 167 c 0,105,106
 147 160 147 160 153 143 c 1,107,108
 158 125 158 125 177 97 c 0,109,110
 185 86 185 86 192.5 81.5 c 128,-1,111
 200 77 200 77 212 75 c 1,112,-1
 219 75 l 2,113,114
 230 75 230 75 246 79 c 0,115,116
 262 84 262 84 277 104 c 128,-1,117
 292 124 292 124 300 148 c 1,118,119
 301 155 301 155 306 168 c 0,120,121
 306 169 306 169 307 172 c 128,-1,122
 308 175 308 175 308 177 c 0,123,124
 308 180 308 180 311 193 c 0,125,126
 316 220 316 220 318 257 c 0,127,128
 319 272 319 272 319 295 c 128,-1,129
 319 318 319 318 318 319 c 0,130,131
 318 320 318 320 310 320 c 0,132,133
 308 320 308 320 305 321 c 1,134,135
 294 321 294 321 264 319 c 1,136,-1
 230 319 l 2,137,138
 208 319 208 319 207 321 c 128,-1,139
 206 323 206 323 212 340 c 0,140,141
 223 369 223 369 226 382 c 0,142,143
 226 383 226 383 227 385 c 0,144,145
 228 395 228 395 237 396 c 0,146,147
 242 397 242 397 264 397 c 2,148,-1
 298 396 l 1,149,-1
 321 396 l 1,150,-1
 407 396 l 1,151,-1
 407 330 l 1,152,153
 406 238 406 238 401 211 c 0,154,155
 401 209 401 209 400 202 c 128,-1,156
 399 195 399 195 398 193 c 0,157,158
 392 156 392 156 380 122 c 0,159,160
 371 94 371 94 364 84 c 1,161,162
 356 70 356 70 355 67 c 0,163,164
 352 62 352 62 334 43.5 c 128,-1,165
 316 25 316 25 312 22 c 0,166,167
 311 22 311 22 302 16 c 0,168,169
 296 12 296 12 284 6 c 128,-1,170
 272 0 272 0 266 -2 c 0,171,172
 246 -7 246 -7 223 -9 c 0,173,174
 217 -9 217 -9 212 -10 c 1,175,176
 202 -10 202 -10 197 -8 c 1,177,178
 176 -4 176 -4 155 6 c 0,179,180
 141 13 141 13 125.5 26.5 c 128,-1,181
 110 40 110 40 102 51 c 0,182,183
 90 69 90 69 85.5 77 c 128,-1,184
 81 85 81 85 72 104 c 0,185,186
 59 132 59 132 55 152 c 0,187,188
 55 153 55 153 53.5 158 c 128,-1,189
 52 163 52 163 52 164 c 0,190,191
 50 172 50 172 49 177 c 0,192,193
 49 182 49 182 46 188 c 0,194,195
 45 191 45 191 43.5 201 c 128,-1,196
 42 211 42 211 41 217 c 0,197,198
 36 246 36 246 35 276 c 0,199,200
 35 288 35 288 33 295 c 0,201,0
 32 299 32 299 32 351.5 c 128,-1,1
EndSplineSet
EndChar

StartChar: H
Encoding: 72 72 43
Width: 448
GlyphClass: 2
Flags: W
LayerCount: 2
Fore
SplineSet
51 6 m 2,0,-1
 51 12 l 1,1,-1
 51 29 l 1,2,-1
 51 54 l 1,3,-1
 51 89 l 1,4,-1
 51 131 l 1,5,-1
 51 180 l 1,6,-1
 51 233 l 1,7,-1
 51 292 l 1,8,-1
 51 354 l 1,9,10
 52 699 52 699 53 700 c 0,11,12
 56 701 56 701 98 701 c 128,-1,13
 140 701 140 701 145 698 c 0,14,15
 147 697 147 697 146 687 c 0,16,17
 145 672 145 672 145 583 c 1,18,19
 144 499 144 499 143 452 c 0,20,21
 143 440 143 440 142 432 c 1,22,23
 142 416 142 416 144 415 c 0,24,25
 145 414 145 414 167 413 c 1,26,-1
 180 413 l 1,27,28
 198 414 198 414 217 414 c 2,29,30
 230 414 l 2,31,32
 243 414 243 414 257 413 c 0,33,34
 278 412 278 412 289.5 412 c 128,-1,35
 301 412 301 412 303 413 c 128,-1,36
 305 414 305 414 305 442 c 0,37,38
 304 486 304 486 303 604 c 0,39,40
 303 631 303 631 304 649 c 1,41,42
 304 677 304 677 303 687 c 128,-1,43
 302 697 302 697 305 698 c 0,44,45
 308 700 308 700 351 700 c 2,46,-1
 360 700 l 2,47,48
 394 700 394 700 396 698 c 1,49,-1
 396 682 l 1,50,51
 396 633 l 1,52,-1
 396 583 l 1,53,-1
 396 392 l 1,54,-1
 396 263 l 2,55,56
 396 52 396 52 397 29 c 1,57,-1
 397 12 l 2,58,59
 397 2 397 2 396 0 c 128,-1,60
 395 -2 395 -2 352 -2 c 0,61,62
 348 -2 348 -2 344 -2 c 0,63,64
 308 -2 308 -2 305 0 c 0,65,66
 303 2 303 2 303 63 c 2,67,-1
 303 90 l 1,68,69
 304 187 304 187 304 257 c 2,70,-1
 304 337 l 1,71,-1
 225 337 l 1,72,-1
 190 337 l 2,73,74
 145 337 145 337 144 336.5 c 128,-1,75
 143 336 143 336 143 315 c 0,76,77
 143 303 143 303 144 148 c 0,78,79
 144 2 144 2 143 0 c 1,80,81
 139 -1 139 -1 97 -1 c 0,82,83
 63 -1 63 -1 57 0 c 128,-1,84
 51 1 51 1 51 6 c 2,0,-1
EndSplineSet
EndChar

StartChar: I
Encoding: 73 73 44
Width: 207
GlyphClass: 2
Flags: W
LayerCount: 2
Fore
SplineSet
58 11 m 2,0,-1
 58 56 l 1,1,-1
 58 188 l 1,2,-1
 58 358 l 2,3,4
 58 699 58 699 60 701 c 128,-1,5
 62 703 62 703 104 703 c 128,-1,6
 146 703 146 703 148 702 c 128,-1,7
 150 701 150 701 150 458 c 2,8,-1
 150 352 l 2,9,10
 150 3 150 3 149 2 c 128,-1,11
 148 1 148 1 105 1 c 128,-1,12
 62 1 62 1 60 3 c 128,-1,13
 58 5 58 5 58 11 c 2,0,-1
EndSplineSet
EndChar

StartChar: J
Encoding: 74 74 45
Width: 279
GlyphClass: 2
Flags: W
LayerCount: 2
Fore
SplineSet
9 30 m 2,0,-1
 9 50 l 1,1,-1
 9 93 l 1,2,3
 10 99 10 99 23 92 c 0,4,5
 42 81 42 81 65 79 c 0,6,7
 71 79 71 79 77 78 c 1,8,9
 105 78 105 78 117 91 c 0,10,11
 126 101 126 101 130 120 c 0,12,13
 133 131 133 131 133 413 c 0,14,15
 133 699 133 699 136 701 c 0,16,17
 138 703 138 703 179.5 703 c 128,-1,18
 221 703 221 703 222 701 c 1,19,-1
 222 625 l 1,20,-1
 222 569 l 1,21,22
 222 427 l 2,23,24
 222 304 222 304 221 186 c 0,25,26
 221 110 221 110 220 94.5 c 128,-1,27
 219 79 219 79 213 65 c 0,28,29
 199 32 199 32 176 14 c 0,30,31
 167 7 167 7 166 7 c 128,-1,32
 165 7 165 7 154 2 c 0,33,34
 135 -7 135 -7 118 -10 c 0,35,36
 109 -12 109 -12 95 -12 c 0,37,38
 89 -12 89 -12 83 -12 c 0,39,40
 61 -11 61 -11 45 -7 c 0,41,42
 33 -4 33 -4 21.5 1 c 128,-1,43
 10 6 10 6 10 8 c 2,44,-1
 10 14 l 1,45,46
 9 20 9 20 9 30 c 2,0,-1
EndSplineSet
EndChar

StartChar: K
Encoding: 75 75 46
Width: 370
GlyphClass: 2
Flags: W
LayerCount: 2
Fore
SplineSet
54 19 m 2,0,1
 54 21 54 21 55 21 c 0,2,3
 56 23 56 23 57 360 c 0,4,5
 57 697 57 697 59 700 c 0,6,7
 60 702 60 702 104 702 c 2,8,-1
 148 702 l 1,9,-1
 149 698 l 2,10,11
 150 694 150 694 150 689 c 0,12,13
 150 686 150 686 149 627 c 0,14,15
 149 612 149 612 148 569.5 c 128,-1,16
 147 527 147 527 147 510 c 0,17,18
 146 444 146 444 146 419 c 2,19,-1
 146 393 l 2,20,21
 146 389 146 389 148 388 c 0,22,23
 149 388 149 388 150.5 389.5 c 128,-1,24
 152 391 152 391 154 395 c 2,25,-1
 158 402 l 2,26,27
 160 407 160 407 160 408 c 2,28,-1
 168 431 l 2,29,30
 178 462 178 462 184 473 c 1,31,32
 185 477 185 477 187 482 c 0,33,34
 187 484 187 484 194 501 c 0,35,36
 198 513 198 513 202 523 c 0,37,38
 204 530 204 530 206 531 c 0,39,40
 208 533 208 533 208 536 c 0,41,42
 208 538 208 538 214 551 c 0,43,44
 219 563 219 563 228 585 c 0,45,46
 229 590 229 590 231 595.5 c 128,-1,47
 233 601 233 601 234.5 604 c 128,-1,48
 236 607 236 607 236 608 c 2,49,-1
 238 612 l 2,50,51
 239 616 239 616 241.5 622 c 128,-1,52
 244 628 244 628 247 634 c 0,53,54
 259 665 259 665 261 670 c 0,55,56
 262 673 262 673 264 677 c 128,-1,57
 266 681 266 681 267 684.5 c 128,-1,58
 268 688 268 688 269 688 c 0,59,60
 270 693 270 693 272 698 c 0,61,62
 274 701 274 701 277 701.5 c 128,-1,63
 280 702 280 702 292 702 c 0,64,65
 296 702 296 702 311.5 702.5 c 128,-1,66
 327 703 327 703 335 703 c 0,67,68
 365 703 365 703 365 699 c 0,69,70
 365 698 365 698 364 696 c 0,71,72
 362 693 362 693 362 690.5 c 128,-1,73
 362 688 362 688 353 670 c 2,74,-1
 344 652 l 2,75,76
 344 650 344 650 338 637.5 c 128,-1,77
 332 625 332 625 332 622 c 0,78,79
 332 621 332 621 327 611 c 0,80,81
 322 600 322 600 318 589 c 0,82,83
 312 572 312 572 302 551 c 0,84,85
 297 540 297 540 293 529 c 0,86,87
 287 514 287 514 285 510 c 0,88,89
 280 500 280 500 266 464 c 0,90,91
 261 451 261 451 247 417 c 0,92,93
 243 406 243 406 237 393 c 0,94,95
 234 385 234 385 228 372 c 2,96,-1
 221 358 l 1,97,-1
 226 350 l 2,98,99
 231 341 231 341 230 339 c 1,100,101
 230 336 230 336 231 335 c 128,-1,102
 232 334 232 334 239 319 c 0,103,104
 240 316 240 316 246 303.5 c 128,-1,105
 252 291 252 291 255 285 c 0,106,107
 271 251 271 251 274 240 c 0,108,109
 275 238 275 238 287 212 c 2,110,-1
 297 190 l 2,111,112
 297 189 297 189 303 178 c 0,113,114
 303 176 303 176 305 172 c 2,115,-1
 308 165 l 1,116,-1
 311 160 l 1,117,118
 314 152 314 152 315 149 c 2,119,-1
 321 137 l 1,120,-1
 324 130 l 2,121,122
 326 126 326 126 326 124 c 2,123,-1
 327 122 l 2,124,125
 328 119 328 119 330 114.5 c 128,-1,126
 332 110 332 110 334 107 c 0,127,128
 345 83 345 83 347 78 c 0,129,130
 351 67 351 67 365 39 c 0,131,132
 377 15 377 15 377 8 c 0,133,134
 377 3 377 3 376 1.5 c 128,-1,135
 375 0 375 0 372 0 c 2,136,-1
 367 0 l 1,137,-1
 364 0 l 2,138,139
 345 0 345 0 328 1 c 1,140,141
 295 1 295 1 287 3 c 0,142,143
 283 4 283 4 281.5 5 c 128,-1,144
 280 6 280 6 278 10 c 0,145,146
 277 14 277 14 260 56 c 0,147,148
 259 58 259 58 256 64.5 c 128,-1,149
 253 71 253 71 252 73 c 0,150,151
 248 81 248 81 248 84 c 0,152,153
 246 91 246 91 233 116 c 0,154,155
 223 137 223 137 218 152 c 0,156,157
 217 155 217 155 212 167 c 0,158,159
 202 187 202 187 202 189 c 0,160,161
 202 190 202 190 194 209 c 128,-1,162
 186 228 186 228 183 235 c 0,163,164
 170 266 170 266 167 272 c 0,165,166
 164 281 164 281 161 288 c 0,167,168
 157 297 157 297 156 300 c 0,169,170
 153 310 153 310 147 310 c 0,171,172
 144 310 144 310 145 303 c 1,173,-1
 145 298 l 2,174,175
 145 286 145 286 146 250 c 0,176,177
 146 230 146 230 147 117 c 0,178,179
 147 54 147 54 149 24 c 1,180,181
 149 5 149 5 146 2.5 c 128,-1,182
 143 0 143 0 122 1 c 1,183,-1
 107 1 l 2,184,185
 86 1 86 1 73 0 c 0,186,187
 64 0 64 0 61 1 c 0,188,189
 57 2 57 2 56 3 c 128,-1,190
 55 4 55 4 55 10 c 2,191,-1
 54 19 l 2,0,1
EndSplineSet
EndChar

StartChar: L
Encoding: 76 76 47
Width: 311
GlyphClass: 2
Flags: W
LayerCount: 2
Fore
SplineSet
51 39 m 2,0,-1
 51 95 l 1,1,-1
 51 229 l 1,2,-1
 51 387 l 1,3,4
 52 699 52 699 54 700 c 128,-1,5
 56 701 56 701 98 701 c 128,-1,6
 140 701 140 701 142 700 c 128,-1,7
 144 699 144 699 144.5 695 c 128,-1,8
 145 691 145 691 144 672 c 0,9,10
 144 656 144 656 143 392 c 0,11,12
 143 156 143 156 141 109 c 0,13,14
 140 81 140 81 142 79 c 0,15,16
 143 78 143 78 200.5 78 c 128,-1,17
 258 78 258 78 268 79 c 0,18,19
 269 79 269 79 272.5 79.5 c 128,-1,20
 276 80 276 80 282 80 c 2,21,-1
 292 80 l 2,22,23
 312 80 312 80 312 78 c 1,24,25
 313 77 313 77 314 40 c 0,26,27
 314 13 314 13 313.5 8 c 128,-1,28
 313 3 313 3 311 2 c 128,-1,29
 309 1 309 1 299 0 c 0,30,31
 294 0 294 0 288 1 c 1,32,-1
 161 1 l 2,33,34
 53 1 53 1 52 2 c 128,-1,35
 51 3 51 3 51 39 c 2,0,-1
EndSplineSet
EndChar

StartChar: M
Encoding: 77 77 48
Width: 554
GlyphClass: 2
Flags: W
LayerCount: 2
Fore
SplineSet
53 171 m 0,0,1
 54 379 54 379 54 504 c 2,2,3
 54 578 l 2,4,5
 54 643 54 643 53 672 c 1,6,7
 53 705 53 705 55 707 c 0,8,9
 56 708 56 708 72 708 c 2,10,11
 92 708 l 2,12,13
 97 708 97 708 102 708 c 0,14,15
 147 708 147 708 150 706 c 128,-1,16
 153 704 153 704 155 693 c 0,17,18
 157 683 157 683 158 681 c 0,19,20
 159 678 159 678 163 667 c 0,21,22
 164 665 164 665 167.5 654 c 128,-1,23
 171 643 171 643 173 637 c 0,24,25
 179 619 179 619 182 611 c 0,26,27
 182 609 182 609 184 604.5 c 128,-1,28
 186 600 186 600 188 594 c 128,-1,29
 190 588 190 588 191 584 c 0,30,31
 199 563 199 563 202 555 c 0,32,33
 205 545 205 545 215 518 c 1,34,-1
 226 484 l 1,35,36
 230 468 230 468 235 456 c 0,37,38
 245 428 245 428 249 416 c 1,39,40
 249 412 249 412 254 399 c 0,41,42
 255 396 255 396 256.5 392 c 128,-1,43
 258 388 258 388 259.5 383.5 c 128,-1,44
 261 379 261 379 262 377 c 0,45,46
 271 346 271 346 273.5 339 c 128,-1,47
 276 332 276 332 280 333 c 0,48,49
 284 335 284 335 291 365 c 0,50,51
 296 383 296 383 298 388 c 0,52,53
 299 390 299 390 302 398 c 1,54,55
 306 417 306 417 316 443 c 0,56,57
 323 460 323 460 323 463 c 0,58,59
 323 467 323 467 335 497 c 0,60,61
 335 499 335 499 337 503 c 128,-1,62
 339 507 339 507 340 510.5 c 128,-1,63
 341 514 341 514 342 516 c 0,64,65
 348 534 348 534 355 552 c 0,66,67
 356 555 356 555 360 566 c 128,-1,68
 364 577 364 577 365 582 c 0,69,70
 366 588 366 588 375 613 c 0,71,72
 377 618 377 618 381 627 c 2,73,-1
 384 636 l 2,74,75
 384 638 384 638 394 670 c 0,76,77
 396 676 396 676 398 683 c 128,-1,78
 400 690 400 690 402 695 c 2,79,-1
 403 699 l 2,80,81
 404 705 404 705 411 706 c 128,-1,82
 418 707 418 707 454 708 c 1,83,-1
 474 708 l 2,84,85
 499 708 499 708 500 707 c 0,86,87
 501 705 501 705 501 355 c 128,-1,88
 501 5 501 5 499 3 c 0,89,90
 498 2 498 2 456 2 c 2,91,-1
 414 2 l 1,92,-1
 412 6 l 2,93,94
 410 10 410 10 411 17 c 0,95,96
 412 38 412 38 414 273 c 0,97,98
 414 368 414 368 416 396 c 0,99,100
 417 417 417 417 417 442 c 0,101,102
 417 448 417 448 416 455 c 1,103,104
 416 488 416 488 415 490 c 0,105,106
 413 492 413 492 411 489 c 0,107,108
 408 483 408 483 394 439 c 1,109,110
 392 429 392 429 385 413 c 1,111,112
 380 399 380 399 380 395 c 0,113,114
 380 394 380 394 377 386 c 1,115,116
 374 381 374 381 372 370 c 1,117,118
 359 327 359 327 342 279 c 1,119,120
 329 239 329 239 326 231 c 0,121,122
 312 187 312 187 311 183 c 0,123,124
 311 181 311 181 307 169 c 0,125,126
 306 167 306 167 305 165 c 1,127,128
 305 162 305 162 301 150 c 128,-1,129
 297 138 297 138 295 135 c 128,-1,130
 293 132 293 132 278 131 c 0,131,132
 263 131 263 131 261 132 c 128,-1,133
 259 133 259 133 254 149 c 0,134,135
 253 153 253 153 251 160 c 128,-1,136
 249 167 249 167 248 168 c 0,137,138
 244 182 244 182 242 192 c 0,139,140
 241 197 241 197 236 208 c 0,141,142
 233 216 233 216 224 244 c 0,143,144
 215 271 215 271 214 275 c 128,-1,145
 213 279 213 279 208 292 c 0,146,147
 202 311 202 311 199 321 c 0,148,149
 193 341 193 341 190 349 c 0,150,151
 182 376 182 376 175 397 c 0,152,153
 175 398 175 398 173.5 402.5 c 128,-1,154
 172 407 172 407 170.5 410.5 c 128,-1,155
 169 414 169 414 169 417 c 0,156,157
 166 430 166 430 150 475 c 0,158,159
 145 489 145 489 144 489 c 0,160,161
 141 489 141 489 141 440 c 0,162,163
 141 413 141 413 142 370 c 0,164,165
 143 313 143 313 143 161 c 0,166,167
 143 4 143 4 141 3 c 128,-1,168
 139 2 139 2 115 2 c 2,169,-1
 97 2 l 2,170,171
 56 2 56 2 54.5 3.5 c 128,-1,172
 53 5 53 5 53 171 c 0,0,1
EndSplineSet
EndChar

StartChar: N
Encoding: 78 78 49
Width: 442
GlyphClass: 2
Flags: W
LayerCount: 2
Fore
SplineSet
51 16 m 2,0,-1
 51 27 l 1,1,2
 52 50 52 50 52 362 c 128,-1,3
 52 674 52 674 51 687 c 1,4,-1
 51 696 l 1,5,-1
 51 701 l 1,6,7
 52 704 52 704 57 705 c 1,8,9
 105 705 105 705 123 704 c 0,10,11
 125 704 125 704 131 688 c 0,12,13
 137 670 137 670 138 669 c 2,14,-1
 139 666 l 2,15,16
 140 663 140 663 141.5 659 c 128,-1,17
 143 655 143 655 145 652 c 0,18,19
 152 634 152 634 154 628 c 0,20,21
 158 619 158 619 159 611 c 0,22,23
 161 602 161 602 164 597 c 2,24,-1
 170 583 l 1,25,26
 179 556 179 556 183 551 c 1,27,-1
 184 548 l 2,28,29
 186 544 186 544 187.5 539 c 128,-1,30
 189 534 189 534 191 529 c 0,31,32
 200 508 200 508 201 505 c 0,33,34
 202 504 202 504 208 490 c 0,35,36
 209 486 209 486 213 474 c 0,37,38
 215 470 215 470 215.5 467 c 128,-1,39
 216 464 216 464 218 460 c 0,40,41
 220 457 220 457 222 452 c 0,42,43
 222 451 222 451 223.5 448 c 128,-1,44
 225 445 225 445 226 444 c 0,45,46
 228 438 228 438 231 430 c 0,47,48
 234 421 234 421 239 412 c 1,49,50
 245 398 245 398 253 375 c 0,51,52
 263 349 263 349 265 344 c 0,53,54
 266 340 266 340 270 328.5 c 128,-1,55
 274 317 274 317 276 313 c 0,56,57
 280 300 280 300 289 280 c 1,58,59
 300 252 300 252 303 251 c 0,60,61
 305 251 305 251 305 259 c 0,62,63
 305 263 305 263 305.5 271 c 128,-1,64
 306 279 306 279 305 292 c 0,65,66
 304 310 304 310 303 487 c 0,67,68
 302 660 302 660 302 674 c 0,69,70
 301 700 301 700 303 703 c 0,71,72
 304 705 304 705 310 705 c 1,73,74
 312 706 312 706 322 706 c 2,75,76
 329 706 l 2,77,78
 337 706 337 706 347 705 c 1,79,-1
 390 705 l 1,80,-1
 390 353 l 1,81,-1
 390 1 l 1,82,-1
 387 0 l 2,83,84
 385 -1 385 -1 368 -1 c 128,-1,85
 351 -1 351 -1 349 0 c 1,86,-1
 337 0 l 1,87,88
 325 -1 325 -1 320.5 0.5 c 128,-1,89
 316 2 316 2 314 10.5 c 128,-1,90
 312 19 312 19 309 26 c 0,91,92
 308 28 308 28 302 43 c 1,93,94
 300 52 300 52 292 68 c 0,95,96
 286 81 286 81 286 83 c 0,97,98
 286 84 286 84 278.5 103.5 c 128,-1,99
 271 123 271 123 270 125 c 0,100,101
 267 129 267 129 257 156 c 1,102,103
 255 165 255 165 250 174 c 1,104,105
 239 201 239 201 238 204 c 0,106,107
 230 225 230 225 227 232 c 0,108,109
 223 240 223 240 222 246 c 0,110,111
 221 253 221 253 218 257 c 0,112,113
 216 259 216 259 213 267 c 128,-1,114
 210 275 210 275 209 276 c 0,115,116
 208 278 208 278 204.5 287.5 c 128,-1,117
 201 297 201 297 201 299 c 0,118,119
 201 302 201 302 199 303 c 1,120,121
 190 322 190 322 190 327 c 0,122,123
 190 328 190 328 186 336 c 0,124,125
 182 345 182 345 181 349.5 c 128,-1,126
 180 354 180 354 177 360 c 128,-1,127
 174 366 174 366 172 372 c 0,128,129
 171 376 171 376 166 388 c 0,130,131
 162 400 162 400 161 405 c 0,132,133
 160 412 160 412 149 437 c 0,134,135
 143 449 143 449 141 449 c 0,136,137
 138 449 138 449 138 410 c 2,138,-1
 138 387 l 1,139,140
 139 310 139 310 140 165 c 1,141,-1
 140 106 l 2,142,143
 140 1 140 1 139 0 c 0,144,145
 136 -1 136 -1 96 -1 c 0,146,147
 55 -1 55 -1 53 1 c 128,-1,148
 51 3 51 3 51 16 c 2,0,-1
EndSplineSet
EndChar

StartChar: O
Encoding: 79 79 50
Width: 440
GlyphClass: 2
Flags: W
LayerCount: 2
Fore
SplineSet
219 376 m 2,0,-1
 220 377 l 1,1,-1
 221 378 l 2,2,3
 222 378 222 378 222 376.5 c 128,-1,4
 222 375 222 375 220 375 c 0,5,6
 219 375 219 375 219 376 c 2,0,-1
130 348 m 0,7,8
 131 224 131 224 138 188 c 0,9,10
 139 183 139 183 141 170 c 0,11,12
 145 144 145 144 157 115 c 0,13,14
 165 96 165 96 178 84 c 0,15,16
 187 76 187 76 191 73.5 c 128,-1,17
 195 71 195 71 204 68.5 c 128,-1,18
 213 66 213 66 221 66 c 0,19,20
 224 66 224 66 228 67 c 0,21,22
 269 71 269 71 286 118 c 0,23,24
 291 130 291 130 292 130 c 1,25,26
 292 131 292 131 295 144 c 0,27,28
 295 147 295 147 296.5 154 c 128,-1,29
 298 161 298 161 298 163 c 0,30,31
 306 198 306 198 310 263 c 0,32,33
 311 282 311 282 311 283 c 0,34,35
 312 284 312 284 312 346 c 2,36,-1
 312 408 l 1,37,38
 311 410 311 410 307 475 c 0,39,40
 307 482 307 482 305 494 c 2,41,-1
 303 507 l 1,42,43
 303 518 303 518 297 541 c 1,44,45
 293 563 293 563 286 575 c 0,46,47
 274 597 274 597 265 607.5 c 128,-1,48
 256 618 256 618 243 624 c 0,49,50
 237 627 237 627 228 627 c 0,51,52
 226 627 226 627 224 627 c 0,53,54
 212 627 212 627 197 622 c 0,55,56
 184 617 184 617 171.5 600 c 128,-1,57
 159 583 159 583 151 559 c 0,58,59
 150 556 150 556 148.5 551 c 128,-1,60
 147 546 147 546 146.5 542.5 c 128,-1,61
 146 539 146 539 145 538 c 0,62,63
 144 535 144 535 140 509 c 0,64,65
 139 502 139 502 137 490.5 c 128,-1,66
 135 479 135 479 135 477 c 0,67,68
 130 439 130 439 130 348 c 0,7,8
32 363 m 0,69,70
 32 412 32 412 39 467 c 0,71,72
 43 499 43 499 48 519 c 0,73,74
 49 522 49 522 49 525 c 1,75,76
 48 527 48 527 49 529 c 0,77,78
 50 530 50 530 54 543 c 0,79,80
 65 581 65 581 74 601 c 128,-1,81
 83 621 83 621 98 646 c 0,82,83
 108 661 108 661 116.5 669 c 128,-1,84
 125 677 125 677 140 687 c 0,85,86
 156 697 156 697 166 701 c 128,-1,87
 176 705 176 705 201 710 c 0,88,89
 207 711 207 711 216 711 c 0,90,91
 224 711 224 711 235 710 c 0,92,93
 257 708 257 708 269 703 c 0,94,95
 271 703 271 703 275 701 c 128,-1,96
 279 699 279 699 280 699 c 0,97,98
 285 697 285 697 288 696 c 0,99,100
 289 695 289 695 295 691 c 0,101,102
 301 688 301 688 315 677.5 c 128,-1,103
 329 667 329 667 332 661 c 0,104,105
 334 657 334 657 342 647 c 0,106,107
 355 628 355 628 360 619 c 0,108,109
 368 605 368 605 374 590 c 0,110,111
 375 588 375 588 376 584 c 2,112,-1
 378 579 l 2,113,114
 383 566 383 566 386 554 c 128,-1,115
 389 542 389 542 391 539 c 128,-1,116
 393 536 393 536 392 533 c 0,117,118
 392 532 392 532 394 527 c 0,119,120
 396 523 396 523 396 519 c 128,-1,121
 396 515 396 515 397 512 c 0,122,123
 398 510 398 510 401 482 c 0,124,125
 402 474 402 474 403 458 c 128,-1,126
 404 442 404 442 405 438 c 0,127,128
 409 391 409 391 409 350 c 0,129,130
 409 342 409 342 409 334 c 0,131,132
 408 299 408 299 407 275 c 0,133,134
 406 261 406 261 403 232 c 1,135,136
 401 200 401 200 396 180 c 0,137,138
 395 176 395 176 395 171 c 1,139,-1
 393 164 l 2,140,141
 393 163 393 163 391 156.5 c 128,-1,142
 389 150 389 150 388 147 c 0,143,144
 371 87 371 87 350 58 c 0,145,146
 340 43 340 43 336 38 c 0,147,148
 332 31 332 31 318.5 19 c 128,-1,149
 305 7 305 7 297 3 c 0,150,151
 296 3 296 3 292 0.5 c 128,-1,152
 288 -2 288 -2 286 -3 c 0,153,154
 266 -14 266 -14 232 -16 c 0,155,156
 226 -16 226 -16 220 -17 c 1,157,158
 194 -17 194 -17 174 -10 c 0,159,160
 133 4 133 4 105 38 c 2,161,-1
 99 45 l 2,162,163
 92 52 92 52 81 78 c 0,164,165
 75 92 75 92 71 97 c 0,166,167
 69 99 69 99 69 102 c 0,168,169
 69 106 69 106 63 119 c 128,-1,170
 57 132 57 132 57 136 c 0,171,172
 57 138 57 138 53 152 c 0,173,174
 45 178 45 178 43 202 c 0,175,176
 42 221 42 221 37 240 c 1,177,178
 36 250 36 250 35 263 c 0,179,180
 33 294 33 294 33 299 c 0,181,182
 32 310 32 310 32 363 c 0,69,70
EndSplineSet
EndChar

StartChar: P
Encoding: 80 80 51
Width: 394
GlyphClass: 2
Flags: W
LayerCount: 2
Fore
SplineSet
144 354 m 1,0,1
 144 349 144 349 145 347 c 128,-1,2
 146 345 146 345 152 345 c 0,3,4
 164 345 164 345 195 354 c 0,5,6
 222 361 222 361 248 389 c 0,7,8
 268 410 268 410 276 444 c 0,9,10
 281 465 281 465 281 488 c 0,11,12
 281 503 281 503 279 518 c 0,13,14
 277 534 277 534 275 538 c 0,15,16
 274 540 274 540 274 544 c 0,17,18
 274 547 274 547 269 557 c 128,-1,19
 264 567 264 567 259 573 c 0,20,21
 258 574 258 574 255 579 c 128,-1,22
 252 584 252 584 251 585 c 0,23,24
 249 590 249 590 237 599 c 128,-1,25
 225 608 225 608 215 613 c 0,26,27
 199 620 199 620 167 628 c 0,28,29
 156 630 156 630 150 630 c 0,30,31
 146 630 146 630 146 629 c 128,-1,32
 146 628 146 628 145 591 c 0,33,34
 145 563 145 563 146 515 c 1,35,-1
 146 462 l 2,36,37
 146 374 146 374 145 362 c 0,38,39
 145 357 145 357 144 354 c 1,0,1
51 16 m 0,40,41
 51 17 51 17 51 18 c 2,42,-1
 51 23 l 2,43,44
 51 34 51 34 53 373 c 1,45,-1
 53 705 l 1,46,-1
 53 706 l 1,47,-1
 66 706 l 2,48,49
 70 706 70 706 99 705 c 0,50,51
 189 704 189 704 229 690 c 1,52,53
 239 688 239 688 241 688 c 0,54,55
 246 688 246 688 271 675 c 128,-1,56
 296 662 296 662 307 654 c 1,57,58
 317 645 317 645 328.5 634 c 128,-1,59
 340 623 340 623 343 618 c 1,60,61
 344 614 344 614 348 609 c 0,62,63
 359 593 359 593 367 572 c 128,-1,64
 375 551 375 551 376 531 c 0,65,66
 377 520 377 520 379 513 c 1,67,68
 380 505 380 505 380 493 c 0,69,70
 380 484 380 484 379 473 c 0,71,72
 378 447 378 447 374 430 c 0,73,74
 369 407 369 407 361 393 c 0,75,76
 348 370 348 370 341.5 360.5 c 128,-1,77
 335 351 335 351 323 338 c 0,78,79
 303 318 303 318 287 309 c 0,80,81
 276 303 276 303 275 302 c 0,82,83
 270 299 270 299 254.5 293 c 128,-1,84
 239 287 239 287 232 285 c 0,85,86
 215 281 215 281 192.5 277.5 c 128,-1,87
 170 274 170 274 159 274 c 0,88,89
 147 274 147 274 146 272 c 128,-1,90
 145 270 145 270 145 219.5 c 128,-1,91
 145 169 145 169 146 69 c 1,92,-1
 146 37 l 2,93,94
 146 4 146 4 144 2 c 128,-1,95
 142 0 142 0 99 0 c 2,96,-1
 88 0 l 1,97,-1
 79 0 l 2,98,99
 59 0 59 0 55 2 c 128,-1,100
 51 4 51 4 51 16 c 0,40,41
EndSplineSet
EndChar

StartChar: Q
Encoding: 81 81 52
Width: 446
GlyphClass: 2
Flags: W
LayerCount: 2
Fore
SplineSet
129 347.5 m 128,-1,1
 129 271 129 271 130 250 c 0,2,3
 134 205 134 205 138 184 c 0,4,5
 140 170 140 170 142 163 c 1,6,7
 143 155 143 155 147 142 c 128,-1,8
 151 129 151 129 152 129 c 0,9,10
 153 128 153 128 154 125 c 0,11,12
 154 122 154 122 160 110 c 0,13,14
 172 85 172 85 194 74 c 0,15,16
 206 68 206 68 221 68 c 0,17,18
 222 68 222 68 223 68 c 0,19,20
 239 68 239 68 251 76 c 0,21,22
 256 80 256 80 257.5 80 c 128,-1,23
 259 80 259 80 264.5 84.5 c 128,-1,24
 270 89 270 89 273.5 94.5 c 128,-1,25
 277 100 277 100 283 110 c 128,-1,26
 289 120 289 120 289 122 c 0,27,28
 289 123 289 123 292 132 c 0,29,30
 301 158 301 158 302 166 c 128,-1,31
 303 174 303 174 306 185 c 1,32,33
 308 198 308 198 310.5 223.5 c 128,-1,34
 313 249 313 249 313 262 c 0,35,36
 314 279 314 279 314 281 c 0,37,38
 315 283 315 283 316 329 c 0,39,40
 316 336 316 336 315 346 c 1,41,42
 315 408 315 408 313.5 416.5 c 128,-1,43
 312 425 312 425 312 440 c 0,44,45
 312 451 312 451 311 471 c 1,46,47
 305 524 305 524 298.5 548 c 128,-1,48
 292 572 292 572 278 596 c 0,49,50
 273 605 273 605 263 614 c 128,-1,51
 253 623 253 623 245 625 c 0,52,53
 238 627 238 627 224 628 c 0,54,55
 222 628 222 628 220 628 c 0,56,57
 211 628 211 628 205 627 c 0,58,59
 198 625 198 625 186 618 c 0,60,61
 181 615 181 615 172 604.5 c 128,-1,62
 163 594 163 594 163 591 c 0,63,64
 163 590 163 590 160 585 c 0,65,66
 149 567 149 567 140 521 c 0,67,68
 138 508 138 508 137 506 c 0,69,70
 135 499 135 499 131 445 c 0,71,0
 129 424 129 424 129 347.5 c 128,-1,1
30 326 m 2,72,-1
 30 376 l 1,73,74
 31 446 31 446 34 450 c 1,75,76
 35 453 35 453 36 460 c 1,77,78
 36 468 36 468 39 488.5 c 128,-1,79
 42 509 42 509 44 514 c 0,80,81
 44 516 44 516 48 531 c 0,82,83
 50 542 50 542 56.5 563 c 128,-1,84
 63 584 63 584 67 591 c 0,85,86
 70 598 70 598 70 599 c 0,87,88
 70 601 70 601 71 603 c 0,89,90
 72 604 72 604 81 620 c 0,91,92
 96 649 96 649 112.5 667.5 c 128,-1,93
 129 686 129 686 151 697 c 0,94,95
 171 707 171 707 185 709 c 1,96,-1
 189 710 l 2,97,98
 193 710 193 710 195.5 710.5 c 128,-1,99
 198 711 198 711 202.5 712 c 128,-1,100
 207 713 207 713 208 713 c 0,101,102
 211 713 211 713 214 713 c 2,103,-1
 229 713 l 2,104,105
 244 713 244 713 250 711 c 0,106,107
 294 701 294 701 317 680 c 0,108,109
 322 675 322 675 326 675 c 0,110,111
 328 675 328 675 333 667 c 0,112,113
 337 661 337 661 340 657 c 0,114,115
 352 644 352 644 366 616 c 0,116,117
 378 593 378 593 388 562 c 0,118,119
 389 558 389 558 391.5 550 c 128,-1,120
 394 542 394 542 394 541 c 0,121,122
 396 535 396 535 396 533 c 0,123,124
 396 529 396 529 399 520 c 0,125,126
 402 508 402 508 402 505 c 0,127,128
 402 504 402 504 404 496 c 0,129,130
 405 492 405 492 406 484 c 2,131,-1
 410 450 l 2,132,133
 412 429 412 429 412 420 c 2,134,-1
 412 417 l 1,135,136
 411 412 411 412 413 399 c 0,137,138
 415 387 415 387 415 345 c 128,-1,139
 415 303 415 303 413 294 c 128,-1,140
 411 285 411 285 412 277 c 0,141,142
 413 270 413 270 411 258 c 0,143,144
 410 249 410 249 409 241 c 0,145,146
 408 232 408 232 408 230 c 128,-1,147
 408 228 408 228 404 211 c 1,148,149
 402 192 402 192 398 174 c 0,150,151
 398 172 398 172 397 167.5 c 128,-1,152
 396 163 396 163 395 161 c 0,153,154
 388 129 388 129 372 96 c 0,155,156
 365 81 365 81 366.5 79 c 128,-1,157
 368 77 368 77 386 78 c 128,-1,158
 404 79 404 79 413 80 c 0,159,160
 421 80 421 80 423 79 c 2,161,-1
 426 77 l 1,162,-1
 426 38 l 2,163,164
 426 10 426 10 425.5 4.5 c 128,-1,165
 425 -1 425 -1 423 -2 c 128,-1,166
 421 -3 421 -3 399 -3 c 0,167,168
 384 -3 384 -3 362 -2 c 0,169,170
 320 -1 320 -1 310.5 -0.5 c 128,-1,171
 301 0 301 0 297 1 c 0,172,173
 293 3 293 3 291.5 3 c 128,-1,174
 290 3 290 3 287 1 c 0,175,176
 274 -7 274 -7 255 -10 c 0,177,178
 231 -13 231 -13 215 -14 c 0,179,180
 208 -14 208 -14 203 -13 c 0,181,182
 184 -11 184 -11 175.5 -8.5 c 128,-1,183
 167 -6 167 -6 151 1 c 1,184,185
 132 11 132 11 118 24 c 128,-1,186
 104 37 104 37 92 56 c 0,187,188
 84 68 84 68 83 69 c 128,-1,189
 82 70 82 70 81 75 c 0,190,191
 78 83 78 83 75 87 c 0,192,193
 72 92 72 92 68 103 c 0,194,195
 68 104 68 104 64 114 c 128,-1,196
 60 124 60 124 58 131 c 0,197,198
 50 153 50 153 49 159 c 0,199,200
 49 160 49 160 47.5 164 c 128,-1,201
 46 168 46 168 46 170 c 0,202,203
 45 176 45 176 42 188 c 0,204,205
 41 195 41 195 36 232 c 0,206,207
 33 250 33 250 33 265 c 0,208,209
 32 283 32 283 31 291 c 128,-1,210
 30 299 30 299 30 326 c 2,72,-1
EndSplineSet
EndChar

StartChar: R
Encoding: 82 82 53
Width: 393
GlyphClass: 2
Flags: W
LayerCount: 2
Fore
SplineSet
144 362 m 1,0,1
 144 351 l 2,2,3
 144 341 144 341 145 339 c 128,-1,4
 146 337 146 337 154 337 c 2,5,-1
 160 337 l 1,6,7
 173 338 173 338 182 341 c 0,8,9
 184 341 184 341 194 345 c 0,10,11
 207 349 207 349 224 360.5 c 128,-1,12
 241 372 241 372 247 380 c 1,13,14
 251 387 251 387 255 392 c 0,15,16
 260 398 260 398 260 399 c 2,17,-1
 264 406 l 2,18,19
 269 414 269 414 274 434.5 c 128,-1,20
 279 455 279 455 281 476 c 1,21,-1
 281 483 l 2,22,23
 281 495 281 495 279 512 c 0,24,25
 276 533 276 533 272 544 c 0,26,27
 266 560 266 560 260 569 c 128,-1,28
 254 578 254 578 234 598 c 0,29,30
 213 619 213 619 165 629 c 0,31,32
 152 632 152 632 150 632 c 128,-1,33
 148 632 148 632 146 630 c 1,34,35
 144 630 144 630 144 624 c 2,36,-1
 144 594 l 1,37,38
 145 560 145 560 145 471 c 128,-1,39
 145 382 145 382 144 362 c 1,0,1
51 14 m 2,40,-1
 51 35 l 1,41,42
 52 68 52 68 52 376.5 c 128,-1,43
 52 685 52 685 51 692 c 1,44,-1
 51 698 l 1,45,46
 52 702 52 702 54 704 c 128,-1,47
 56 706 56 706 62 707 c 1,48,-1
 76 707 l 1,49,-1
 107 707 l 2,50,51
 119 707 119 707 133.5 706.5 c 128,-1,52
 148 706 148 706 157.5 705.5 c 128,-1,53
 167 705 167 705 169 705 c 0,54,55
 180 705 180 705 198.5 701.5 c 128,-1,56
 217 698 217 698 224 696 c 0,57,58
 232 693 232 693 239 691 c 0,59,60
 251 688 251 688 268.5 679 c 128,-1,61
 286 670 286 670 295 662 c 2,62,-1
 306 653 l 2,63,64
 318 644 318 644 336.5 618 c 128,-1,65
 355 592 355 592 362 575 c 2,66,-1
 368 560 l 1,67,68
 372 547 372 547 373 542 c 0,69,70
 373 540 373 540 374.5 531 c 128,-1,71
 376 522 376 522 376 520 c 0,72,73
 378 508 378 508 379 486 c 0,74,75
 379 482 379 482 378 477 c 1,76,77
 378 446 378 446 376.5 435.5 c 128,-1,78
 375 425 375 425 367 403 c 128,-1,79
 359 381 359 381 354.5 372 c 128,-1,80
 350 363 350 363 337 346 c 1,81,82
 327 331 327 331 310 317.5 c 128,-1,83
 293 304 293 304 275 296 c 0,84,85
 262 290 262 290 260 289 c 0,86,87
 253 286 253 286 251 286 c 0,88,89
 248 286 248 286 241.5 282.5 c 128,-1,90
 235 279 235 279 234 277 c 128,-1,91
 233 275 233 275 238 268 c 0,92,93
 242 262 242 262 264 217 c 0,94,95
 283 180 283 180 289 169 c 0,96,97
 291 167 291 167 297 152 c 1,98,-1
 306 135 l 1,99,-1
 315 116 l 2,100,101
 325 96 325 96 329 87.5 c 128,-1,102
 333 79 333 79 335 77 c 0,103,104
 336 76 336 76 350 50 c 0,105,106
 371 9 371 9 373 7 c 0,107,108
 375 6 375 6 374 3 c 0,109,110
 374 1 374 1 338 1 c 2,111,-1
 323 1 l 1,112,-1
 315 1 l 2,113,114
 280 1 280 1 274.5 2.5 c 128,-1,115
 269 4 269 4 266 11 c 1,116,-1
 265 11 l 1,117,118
 263 16 263 16 258 28 c 0,119,120
 254 37 254 37 248 50 c 1,121,122
 245 59 245 59 238 73 c 0,123,124
 232 85 232 85 232 87 c 128,-1,125
 232 89 232 89 213 130 c 0,126,127
 202 153 202 153 199 161 c 0,128,129
 194 173 194 173 187 189 c 0,130,131
 180 204 180 204 175 215 c 1,132,133
 171 227 171 227 169 230 c 0,134,135
 169 231 169 231 165 240.5 c 128,-1,136
 161 250 161 250 158 254 c 2,137,-1
 153 264 l 2,138,139
 151 268 151 268 149.5 269.5 c 128,-1,140
 148 271 148 271 147 271 c 128,-1,141
 146 271 146 271 144 270 c 0,142,143
 143 269 143 269 143 260 c 0,144,145
 143 257 143 257 142 251 c 1,146,147
 142 240 142 240 143 217 c 0,148,149
 144 163 144 163 145 34 c 0,150,151
 145 6 145 6 144 3 c 1,152,153
 142 2 142 2 98 2 c 128,-1,154
 54 2 54 2 52 3 c 0,155,156
 51 3 51 3 51 14 c 2,40,-1
EndSplineSet
EndChar

StartChar: S
Encoding: 83 83 54
Width: 332
GlyphClass: 2
Flags: W
LayerCount: 2
Fore
SplineSet
33 568 m 2,0,-1
 33 575 l 1,1,2
 34 610 34 610 54 646 c 0,3,4
 62 660 62 660 76 673 c 0,5,6
 86 682 86 682 91.5 686 c 128,-1,7
 97 690 97 690 106 695 c 0,8,9
 133 708 133 708 159 712 c 1,10,-1
 170 712 l 1,11,-1
 188 712 l 1,12,13
 210 711 210 711 219 709 c 0,14,15
 275 699 275 699 277 691 c 0,16,17
 278 688 278 688 278 644.5 c 128,-1,18
 278 601 278 601 277 599 c 0,19,20
 275 595 275 595 265 601 c 0,21,22
 257 606 257 606 243 611.5 c 128,-1,23
 229 617 229 617 222 618 c 0,24,25
 214 619 214 619 209 622 c 0,26,27
 206 623 206 623 192.5 623 c 128,-1,28
 179 623 179 623 172 621 c 0,29,30
 160 619 160 619 149.5 612 c 128,-1,31
 139 605 139 605 134 596 c 0,32,33
 127 583 127 583 126 565 c 0,34,35
 126 554 126 554 129 542 c 0,36,37
 131 531 131 531 137 516.5 c 128,-1,38
 143 502 143 502 147 495 c 0,39,40
 148 493 148 493 151.5 487 c 128,-1,41
 155 481 155 481 156 479 c 0,42,43
 160 472 160 472 170 456 c 128,-1,44
 180 440 180 440 191 420 c 0,45,46
 199 406 199 406 205 398 c 0,47,48
 209 393 209 393 222 371 c 128,-1,49
 235 349 235 349 238 342 c 1,50,-1
 243 335 l 2,51,52
 245 333 245 333 260 302.5 c 128,-1,53
 275 272 275 272 278 265 c 2,54,-1
 286 246 l 2,55,56
 286 245 286 245 287.5 239.5 c 128,-1,57
 289 234 289 234 290 232 c 0,58,59
 297 205 297 205 298 193.5 c 128,-1,60
 299 182 299 182 299 154 c 0,61,62
 299 127 299 127 298 116.5 c 128,-1,63
 297 106 297 106 291 89 c 0,64,65
 284 69 284 69 273 53 c 0,66,67
 256 27 256 27 235 13 c 0,68,69
 226 7 226 7 225 7 c 2,70,-1
 219 3 l 2,71,72
 206 -5 206 -5 176 -11 c 0,73,74
 162 -14 162 -14 142 -14 c 2,75,-1
 131 -14 l 1,76,77
 104 -13 104 -13 85 -7 c 0,78,79
 75 -4 75 -4 63 -1 c 0,80,81
 37 7 37 7 35 11 c 0,82,83
 34 15 34 15 34 58 c 0,84,85
 34 64 34 64 34 70 c 0,86,87
 34 102 34 102 36 104 c 0,88,89
 37 105 37 105 41 105 c 128,-1,90
 45 105 45 105 53 99 c 0,91,92
 65 90 65 90 85 82 c 0,93,94
 106 73 106 73 130 73 c 2,95,-1
 139 73 l 1,96,97
 167 75 167 75 180 87 c 0,98,99
 201 106 201 106 204 119 c 1,100,-1
 206 124 l 2,101,102
 207 128 207 128 207 131 c 0,103,104
 210 143 210 143 209 161 c 128,-1,105
 208 179 208 179 204 191 c 0,106,107
 201 198 201 198 198 210 c 128,-1,108
 195 222 195 222 192 226 c 1,109,110
 190 232 190 232 173 266.5 c 128,-1,111
 156 301 156 301 152 306 c 0,112,113
 145 317 145 317 134 336 c 0,114,115
 129 346 129 346 124 354 c 0,116,117
 118 363 118 363 106 384 c 2,118,-1
 96 401 l 2,119,120
 91 408 91 408 81 428 c 0,121,122
 76 439 76 439 65 458 c 0,123,124
 56 474 56 474 44 511 c 0,125,126
 37 532 37 532 35 544 c 0,127,128
 33 553 33 553 33 568 c 2,0,-1
EndSplineSet
EndChar

StartChar: T
Encoding: 84 84 55
Width: 313
GlyphClass: 2
Flags: W
LayerCount: 2
Fore
SplineSet
15 662 m 0,0,1
 15 701 15 701 18 702 c 0,2,3
 20 703 20 703 28 703 c 2,4,-1
 43 703 l 1,5,6
 67 702 67 702 182 702 c 2,7,-1
 298 702 l 1,8,-1
 298 660 l 2,9,10
 298 619 298 619 296 618 c 0,11,12
 295 617 295 617 287 617 c 128,-1,13
 279 617 279 617 265 618 c 0,14,15
 232 619 232 619 219 619 c 2,16,-1
 204 619 l 1,17,-1
 204 326 l 2,18,19
 204 207 204 207 203 135 c 1,20,21
 203 26 203 26 204 20 c 0,22,23
 205 -2 205 -2 198 -2 c 2,24,-1
 155 -2 l 2,25,26
 114 -2 114 -2 111 0 c 1,27,28
 110 2 110 2 110 19 c 2,29,-1
 110 31 l 2,30,31
 110 48 110 48 112 332 c 0,32,33
 113 606 113 606 113 609 c 0,34,35
 114 615 114 615 111.5 618 c 128,-1,36
 109 621 109 621 102 620 c 1,37,38
 94 620 94 620 88 619 c 1,39,-1
 82 619 l 2,40,41
 78 619 78 619 68.5 618.5 c 128,-1,42
 59 618 59 618 52 618 c 0,43,44
 20 618 20 618 18 621 c 0,45,46
 16 623 16 623 15.5 628.5 c 128,-1,47
 15 634 15 634 15 662 c 0,0,1
EndSplineSet
EndChar

StartChar: U
Encoding: 85 85 56
Width: 443
GlyphClass: 2
Flags: W
LayerCount: 2
Fore
SplineSet
51 433 m 0,0,1
 51 701 51 701 52 703 c 0,2,3
 52 704 52 704 97 704 c 2,4,-1
 141 704 l 1,5,-1
 142 700 l 1,6,7
 144 697 144 697 143 670 c 0,8,9
 142 641 142 641 142 407 c 0,10,11
 142 172 142 172 144 152 c 0,12,13
 146 133 146 133 147.5 132 c 128,-1,14
 149 131 149 131 149 128 c 0,15,16
 149 120 149 120 157.5 105.5 c 128,-1,17
 166 91 166 91 173 86 c 0,18,19
 187 77 187 77 191.5 75 c 128,-1,20
 196 73 196 73 208 70 c 0,21,22
 215 69 215 69 222 68 c 1,23,24
 240 68 240 68 259 79 c 0,25,26
 275 89 275 89 286 106 c 0,27,28
 293 116 293 116 297 142 c 0,29,30
 300 160 300 160 300 180 c 0,31,32
 300 185 300 185 300 190 c 0,33,34
 300 193 300 193 300 196 c 2,35,-1
 300 234 l 1,36,-1
 300 328 l 1,37,-1
 300 437 l 2,38,39
 300 656 300 656 299 660 c 1,40,-1
 299 682 l 1,41,-1
 299 695 l 1,42,43
 300 703 300 703 305 703 c 2,44,-1
 316 703 l 1,45,-1
 351 703 l 1,46,47
 387 702 387 702 389 702 c 2,48,-1
 392 701 l 1,49,-1
 392 426 l 2,50,51
 392 221 392 221 391 172 c 128,-1,52
 390 123 390 123 386 109 c 0,53,54
 378 77 378 77 367 58 c 1,55,56
 358 40 358 40 345.5 29 c 128,-1,57
 333 18 333 18 311 7 c 0,58,59
 290 -3 290 -3 255 -11 c 0,60,61
 246 -13 246 -13 220 -13 c 2,62,-1
 215 -13 l 2,63,64
 194 -13 194 -13 187 -11 c 0,65,66
 177 -9 177 -9 167 -7 c 1,67,68
 156 -6 156 -6 143 0 c 0,69,70
 124 8 124 8 115.5 14 c 128,-1,71
 107 20 107 20 94 32 c 0,72,73
 72 52 72 52 72 62 c 0,74,75
 72 64 72 64 70 70 c 1,76,77
 67 75 67 75 62 91 c 128,-1,78
 57 107 57 107 57 114 c 0,79,80
 53 145 53 145 52 185.5 c 128,-1,81
 51 226 51 226 51 433 c 0,0,1
EndSplineSet
EndChar

StartChar: V
Encoding: 86 86 57
Width: 392
GlyphClass: 2
Flags: W
LayerCount: 2
Fore
SplineSet
-5 699 m 128,-1,1
 -5 703 -5 703 -4 704 c 128,-1,2
 -3 705 -3 705 44 705 c 2,3,-1
 55 705 l 2,4,5
 85 705 85 705 90.5 703.5 c 128,-1,6
 96 702 96 702 97 691 c 0,7,8
 97 689 97 689 98 687 c 0,9,10
 99 677 99 677 101 668 c 0,11,12
 103 658 103 658 106 642 c 128,-1,13
 109 626 109 626 110 625 c 0,14,15
 113 614 113 614 120 578 c 0,16,17
 122 566 122 566 123 565 c 0,18,19
 123 564 123 564 124 558.5 c 128,-1,20
 125 553 125 553 126 550 c 0,21,22
 126 548 126 548 127.5 543 c 128,-1,23
 129 538 129 538 129 536 c 0,24,25
 129 535 129 535 132 522 c 0,26,27
 132 520 132 520 133.5 514.5 c 128,-1,28
 135 509 135 509 135 508 c 128,-1,29
 135 507 135 507 136.5 502 c 128,-1,30
 138 497 138 497 138 496 c 0,31,32
 139 490 139 490 142 476 c 0,33,34
 147 457 147 457 147 449 c 1,35,36
 148 442 148 442 154 421 c 0,37,38
 154 420 154 420 158 406 c 1,39,40
 158 402 158 402 161 392 c 0,41,42
 163 383 163 383 167 358 c 0,43,44
 168 355 168 355 169 347.5 c 128,-1,45
 170 340 170 340 171 339 c 1,46,47
 171 337 171 337 172.5 330.5 c 128,-1,48
 174 324 174 324 174 323 c 0,49,50
 175 317 175 317 178 301 c 0,51,52
 180 290 180 290 185 265 c 0,53,54
 191 234 191 234 195 234 c 2,55,-1
 196 234 l 1,56,57
 201 238 201 238 205 265 c 0,58,59
 206 273 206 273 210 292 c 128,-1,60
 214 311 214 311 224 356 c 0,61,62
 225 363 225 363 227 371 c 0,63,64
 227 374 227 374 229 386 c 0,65,66
 233 406 233 406 235 413 c 128,-1,67
 237 420 237 420 238 425 c 128,-1,68
 239 430 239 430 242 441 c 0,69,70
 244 451 244 451 244 452 c 0,71,72
 243 455 243 455 245 460 c 0,73,74
 248 469 248 469 249 473 c 0,75,76
 252 487 252 487 255 500 c 0,77,78
 257 509 257 509 258 513 c 0,79,80
 261 526 261 526 265 542 c 0,81,82
 265 543 265 543 269 559 c 0,83,84
 269 560 269 560 277 602 c 0,85,86
 279 612 279 612 280 616 c 0,87,88
 280 618 280 618 282.5 627.5 c 128,-1,89
 285 637 285 637 286 643 c 0,90,91
 292 671 292 671 293 676 c 0,92,93
 296 693 296 693 297 695 c 1,94,-1
 297 697 l 1,95,96
 299 703 299 703 305 704 c 128,-1,97
 311 705 311 705 343 705 c 2,98,-1
 350 705 l 1,99,-1
 396 705 l 1,100,-1
 397 700 l 2,101,102
 397 699 397 699 397 698 c 0,103,104
 397 694 397 694 395 687 c 0,105,106
 394 684 394 684 393 678.5 c 128,-1,107
 392 673 392 673 391 672 c 0,108,109
 391 671 391 671 390.5 669 c 128,-1,110
 390 667 390 667 389.5 665 c 128,-1,111
 389 663 389 663 389 662 c 0,112,113
 388 659 388 659 382 640 c 0,114,115
 382 637 382 637 378 625 c 0,116,117
 376 618 376 618 375 610 c 1,118,-1
 373 604 l 1,119,120
 372 597 372 597 371 594 c 0,121,122
 363 562 363 562 363 559 c 0,123,124
 363 558 363 558 362 554.5 c 128,-1,125
 361 551 361 551 360 546.5 c 128,-1,126
 359 542 359 542 358 540 c 0,127,128
 357 536 357 536 355 527 c 128,-1,129
 353 518 353 518 352 515 c 0,130,131
 350 503 350 503 348 495 c 0,132,133
 347 490 347 490 345 484 c 0,134,135
 344 480 344 480 341 470 c 0,136,137
 341 468 341 468 336 453 c 1,138,139
 335 444 335 444 332 437 c 0,140,141
 332 435 332 435 326 410 c 0,142,143
 318 370 318 370 315 363 c 1,144,145
 311 348 311 348 308 329 c 0,146,147
 305 308 305 308 298 288 c 1,148,149
 297 281 297 281 293 269 c 0,150,151
 290 259 290 259 290 257 c 0,152,153
 289 255 289 255 285 237 c 0,154,155
 279 209 279 209 276 198 c 2,156,-1
 273 186 l 2,157,158
 273 184 273 184 271.5 179.5 c 128,-1,159
 270 175 270 175 270 173 c 0,160,161
 269 169 269 169 268 162 c 0,162,163
 268 159 268 159 266 155 c 0,164,165
 265 152 265 152 263 147 c 1,166,167
 262 139 262 139 261 137 c 0,168,169
 261 135 261 135 259.5 129 c 128,-1,170
 258 123 258 123 257 120 c 0,171,172
 253 105 253 105 253 104 c 128,-1,173
 253 103 253 103 252 98.5 c 128,-1,174
 251 94 251 94 250 93 c 0,175,176
 248 84 248 84 244 60 c 0,177,178
 244 58 244 58 242 55 c 0,179,180
 241 54 241 54 240 48 c 0,181,182
 239 41 239 41 236 34 c 1,183,184
 233 16 233 16 232 14 c 0,185,186
 230 2 230 2 228 1 c 128,-1,187
 226 0 226 0 196 0 c 0,188,189
 167 0 167 0 165 2 c 128,-1,190
 163 4 163 4 160.5 11.5 c 128,-1,191
 158 19 158 19 157 26 c 0,192,193
 156 30 156 30 147 69 c 0,194,195
 146 75 146 75 145 80 c 0,196,197
 145 83 145 83 144 84 c 128,-1,198
 143 85 143 85 141 95 c 0,199,200
 132 136 132 136 129 146 c 0,201,202
 128 152 128 152 126.5 157.5 c 128,-1,203
 125 163 125 163 124.5 165.5 c 128,-1,204
 124 168 124 168 123 171 c 0,205,206
 120 186 120 186 117 194 c 0,207,208
 116 198 116 198 115 201 c 1,209,210
 115 206 115 206 114 208 c 0,211,212
 112 212 112 212 112 217 c 0,213,214
 111 223 111 223 109 228 c 0,215,216
 108 232 108 232 105 246 c 0,217,218
 102 263 102 263 100 267 c 1,219,220
 93 296 93 296 89 314 c 0,221,222
 87 324 87 324 85 328 c 1,223,224
 82 342 82 342 81 344 c 0,225,226
 80 352 80 352 77 359 c 2,227,-1
 73 373 l 2,228,229
 73 376 73 376 70 387 c 0,230,231
 70 389 70 389 69 394.5 c 128,-1,232
 68 400 68 400 67 402 c 0,233,234
 65 414 65 414 62 424 c 2,235,-1
 59 436 l 2,236,237
 59 438 59 438 57 442 c 0,238,239
 55 448 55 448 49 472 c 0,240,241
 49 474 49 474 48 478.5 c 128,-1,242
 47 483 47 483 47 484 c 0,243,244
 45 491 45 491 41 509 c 0,245,246
 38 526 38 526 35 536 c 0,247,248
 33 544 33 544 33 547 c 0,249,250
 33 551 33 551 32 552 c 128,-1,251
 31 553 31 553 25.5 575 c 128,-1,252
 20 597 20 597 17 613 c 0,253,254
 16 620 16 620 9 642 c 0,255,256
 9 644 9 644 7 650.5 c 128,-1,257
 5 657 5 657 4 658 c 0,258,259
 1 673 1 673 -3 686 c 0,260,0
 -5 695 -5 695 -5 699 c 128,-1,1
EndSplineSet
EndChar

StartChar: W
Encoding: 87 87 58
Width: 592
GlyphClass: 2
Flags: W
LayerCount: 2
Fore
SplineSet
-3 698 m 128,-1,1
 -3 703 -3 703 1 704 c 0,2,3
 6 705 6 705 7 705 c 0,4,5
 10 705 10 705 13 705 c 0,6,7
 18 704 18 704 51 704 c 2,8,-1
 54 704 l 2,9,10
 58 704 58 704 62 704 c 0,11,12
 82 704 82 704 86 702 c 0,13,14
 91 700 91 700 93 685 c 0,15,16
 93 684 93 684 93 683 c 0,17,18
 95 664 95 664 101 632 c 2,19,-1
 104 617 l 2,20,21
 104 612 104 612 105 609 c 0,22,23
 106 607 106 607 107 601 c 0,24,25
 107 598 107 598 111 578 c 0,26,27
 115 557 115 557 119 537 c 0,28,29
 120 527 120 527 125 505 c 0,30,31
 125 504 125 504 126 496.5 c 128,-1,32
 127 489 127 489 128 484 c 0,33,34
 132 462 132 462 133 460 c 0,35,36
 135 452 135 452 140 424 c 1,37,38
 142 405 142 405 148 376 c 0,39,40
 148 375 148 375 151 359 c 0,41,42
 152 349 152 349 156 328 c 0,43,44
 160 305 160 305 164 283 c 0,45,46
 170 241 170 241 172 237 c 1,47,48
 175 234 175 234 178 243 c 0,49,50
 179 247 179 247 180 252 c 0,51,52
 182 265 182 265 183 266 c 0,53,54
 184 272 184 272 185 273 c 1,55,56
 185 278 185 278 186 283 c 2,57,-1
 187 289 l 2,58,59
 188 295 188 295 189 299 c 0,60,61
 192 319 192 319 193 323 c 2,62,-1
 197 347 l 2,63,64
 199 364 199 364 203 379 c 1,65,-1
 204 387 l 2,66,67
 205 395 205 395 206 400 c 0,68,69
 210 421 210 421 211 426 c 0,70,71
 211 429 211 429 212.5 435 c 128,-1,72
 214 441 214 441 214 442 c 0,73,74
 216 449 216 449 217 458 c 0,75,76
 218 464 218 464 224 489 c 0,77,78
 225 496 225 496 227 506 c 2,79,-1
 229 515 l 2,80,81
 230 522 230 522 231 527 c 2,82,-1
 232 536 l 1,83,84
 234 544 234 544 234 548 c 0,85,86
 241 583 241 583 242 586 c 0,87,88
 248 616 248 616 248 621 c 0,89,90
 248 623 248 623 250 631 c 0,91,92
 252 637 252 637 253 648 c 0,93,94
 254 660 254 660 256 664 c 0,95,96
 258 670 258 670 257 672 c 0,97,98
 257 673 257 673 259 684 c 128,-1,99
 261 695 261 695 263 699 c 0,100,101
 264 701 264 701 268.5 702 c 128,-1,102
 273 703 273 703 298 703 c 2,103,-1
 333 703 l 1,104,-1
 335 697 l 2,105,106
 338 687 338 687 339 679 c 0,107,108
 342 661 342 661 342 657 c 0,109,110
 347 628 347 628 348 625 c 0,111,112
 348 623 348 623 349.5 616 c 128,-1,113
 351 609 351 609 351 607 c 0,114,115
 354 593 354 593 354 592 c 0,116,117
 354 590 354 590 355 585 c 128,-1,118
 356 580 356 580 357 578 c 0,119,120
 361 555 361 555 363 544 c 0,121,122
 367 529 367 529 369 510 c 0,123,124
 371 496 371 496 372 491 c 128,-1,125
 373 486 373 486 376.5 467 c 128,-1,126
 380 448 380 448 381 441 c 0,127,128
 383 426 383 426 385 421 c 0,129,130
 386 418 386 418 387.5 408.5 c 128,-1,131
 389 399 389 399 390 396 c 2,132,-1
 395 366 l 2,133,134
 398 349 398 349 400 333 c 0,135,136
 403 315 403 315 405 306 c 0,137,138
 408 285 408 285 412 265 c 1,139,140
 415 243 415 243 418 242 c 1,141,142
 422 242 422 242 425 258 c 0,143,144
 426 266 426 266 429 278 c 0,145,146
 429 280 429 280 430.5 286.5 c 128,-1,147
 432 293 432 293 432 295 c 0,148,149
 433 303 433 303 439 337 c 0,150,151
 439 339 439 339 440.5 346 c 128,-1,152
 442 353 442 353 442 355 c 128,-1,153
 442 357 442 357 443.5 364 c 128,-1,154
 445 371 445 371 445 374 c 0,155,156
 447 384 447 384 447 386 c 0,157,158
 448 397 448 397 453 418 c 0,159,160
 456 429 456 429 458 443 c 0,161,162
 459 452 459 452 460 458 c 0,163,164
 461 461 461 461 462 465 c 0,165,166
 462 467 462 467 464 478 c 0,167,168
 465 480 465 480 470 509 c 0,169,170
 473 532 473 532 477 544 c 0,171,172
 479 553 479 553 483 581 c 0,173,174
 484 590 484 590 487 600 c 0,175,176
 488 605 488 605 491 622 c 0,177,178
 492 632 492 632 493 636 c 2,179,-1
 497 652 l 1,180,181
 503 695 503 695 506 699 c 0,182,183
 508 701 508 701 549 702 c 0,184,185
 590 702 590 702 592 701 c 0,186,187
 593 700 593 700 594 694 c 1,188,189
 594 683 594 683 589 655 c 0,190,191
 587 641 587 641 583 626 c 0,192,193
 581 616 581 616 581 612 c 0,194,195
 579 604 579 604 577 600 c 0,196,197
 577 599 577 599 576.5 598 c 128,-1,198
 576 597 576 597 576 596 c 2,199,-1
 576 595 l 1,200,201
 577 594 577 594 575 587 c 0,202,203
 572 575 572 575 570 563 c 0,204,205
 567 542 567 542 563 527 c 0,206,207
 561 518 561 518 560 509 c 0,208,209
 558 496 558 496 557 494 c 2,210,-1
 555 484 l 2,211,212
 555 483 555 483 553.5 478 c 128,-1,213
 552 473 552 473 552 471 c 0,214,215
 549 456 549 456 546 442 c 0,216,217
 546 440 546 440 544.5 435 c 128,-1,218
 543 430 543 430 543 428 c 0,219,220
 542 423 542 423 537 397 c 1,221,222
 537 391 537 391 534 381 c 0,223,224
 531 366 531 366 528 352 c 0,225,226
 526 339 526 339 525 336 c 0,227,228
 523 327 523 327 522 321 c 0,229,230
 522 319 522 319 520.5 314 c 128,-1,231
 519 309 519 309 519 306 c 0,232,233
 519 300 519 300 516 292 c 1,234,235
 512 271 512 271 509 262 c 0,236,237
 507 253 507 253 505 242 c 0,238,239
 503 234 503 234 501 227 c 0,240,241
 501 226 501 226 500.5 222.5 c 128,-1,242
 500 219 500 219 499.5 214 c 128,-1,243
 499 209 499 209 498 205 c 0,244,245
 492 170 492 170 490 167 c 1,246,247
 488 159 488 159 488 155 c 2,248,-1
 481 122 l 2,249,250
 481 121 481 121 480.5 118 c 128,-1,251
 480 115 480 115 479.5 112 c 128,-1,252
 479 109 479 109 479 107 c 0,253,254
 477 96 477 96 476 92 c 0,255,256
 472 71 472 71 466 42 c 2,257,-1
 462 23 l 1,258,-1
 462 21 l 2,259,260
 462 20 462 20 461.5 17 c 128,-1,261
 461 14 461 14 460 12 c 1,262,-1
 460 11 l 1,263,264
 458 0 458 0 454 -1.5 c 128,-1,265
 450 -3 450 -3 426 -3 c 2,266,-1
 423 -3 l 2,267,268
 393 -3 393 -3 391 -2 c 0,269,270
 386 1 386 1 385 14 c 0,271,272
 383 38 383 38 379 49 c 0,273,274
 379 51 379 51 378 56 c 2,275,-1
 377 60 l 1,276,277
 375 76 375 76 372 92 c 0,278,279
 372 96 372 96 369 107 c 0,280,281
 369 109 369 109 368 114 c 128,-1,282
 367 119 367 119 366 121 c 0,283,284
 365 127 365 127 357 167 c 0,285,286
 351 201 351 201 349 206 c 0,287,288
 349 208 349 208 348 212 c 128,-1,289
 347 216 347 216 347 217 c 0,290,291
 346 224 346 224 345 229 c 0,292,293
 345 232 345 232 342 244.5 c 128,-1,294
 339 257 339 257 339 261 c 0,295,296
 339 263 339 263 337.5 268 c 128,-1,297
 336 273 336 273 335.5 275 c 128,-1,298
 335 277 335 277 334 282.5 c 128,-1,299
 333 288 333 288 333 290 c 0,300,301
 331 301 331 301 330 304 c 0,302,303
 328 313 328 313 327 318 c 0,304,305
 326 322 326 322 324 334 c 0,306,307
 324 340 324 340 321 352 c 0,308,309
 321 354 321 354 319.5 362.5 c 128,-1,310
 318 371 318 371 317 375 c 0,311,312
 315 391 315 391 313 396 c 0,313,314
 313 398 313 398 312 406 c 128,-1,315
 311 414 311 414 310 417 c 0,316,317
 309 429 309 429 306 438 c 1,318,319
 305 447 305 447 303 454 c 1,320,321
 302 462 302 462 301 462 c 128,-1,322
 300 462 300 462 300 466 c 0,323,324
 300 471 300 471 296 470 c 0,325,326
 293 469 293 469 292 463 c 0,327,328
 288 440 288 440 287 434 c 0,329,330
 285 425 285 425 279 395 c 1,331,332
 268 328 268 328 256 274 c 0,333,334
 251 250 251 250 245 213 c 0,335,336
 244 204 244 204 240 188 c 0,337,338
 240 187 240 187 238.5 181.5 c 128,-1,339
 237 176 237 176 237 174 c 0,340,341
 236 166 236 166 233.5 154 c 128,-1,342
 231 142 231 142 229 135 c 2,343,-1
 225 113 l 2,344,345
 225 112 225 112 223 102 c 128,-1,346
 221 92 221 92 219 86 c 1,347,348
 219 82 219 82 217.5 75.5 c 128,-1,349
 216 69 216 69 215.5 64.5 c 128,-1,350
 215 60 215 60 214 59 c 1,351,352
 214 57 214 57 213 51 c 128,-1,353
 212 45 212 45 211 42 c 1,354,355
 211 38 211 38 208 26 c 0,356,357
 206 16 206 16 207 15 c 1,358,-1
 206 12 l 2,359,360
 205 8 205 8 205 6 c 0,361,362
 204 0 204 0 200 -2 c 1,363,-1
 190 -2 l 1,364,-1
 166 -2 l 2,365,366
 135 -2 135 -2 134 1 c 0,367,368
 133 3 133 3 129 21 c 0,369,370
 129 25 129 25 125 48 c 0,371,372
 123 60 123 60 121 65 c 1,373,374
 121 71 121 71 118 80 c 0,375,376
 118 82 118 82 117 87.5 c 128,-1,377
 116 93 116 93 116 95 c 0,378,379
 112 118 112 118 107 139 c 0,380,381
 107 142 107 142 105.5 149.5 c 128,-1,382
 104 157 104 157 104 159 c 0,383,384
 103 165 103 165 101 172 c 1,385,386
 101 177 101 177 99 180 c 0,387,388
 98 182 98 182 97 189 c 0,389,390
 97 190 97 190 96.5 193 c 128,-1,391
 96 196 96 196 95.5 198.5 c 128,-1,392
 95 201 95 201 95 203 c 0,393,394
 93 213 93 213 88 240 c 0,395,396
 87 250 87 250 80 284 c 0,397,398
 78 293 78 293 77 298 c 0,399,400
 75 308 75 308 74 312 c 0,401,402
 74 314 74 314 70 326 c 1,403,404
 69 335 69 335 62 373 c 0,405,406
 58 398 58 398 55 406 c 1,407,408
 54 412 54 412 53 421 c 0,409,410
 53 422 53 422 51 430 c 2,411,-1
 48 442 l 2,412,413
 48 445 48 445 46 453 c 128,-1,414
 44 461 44 461 43 463 c 0,415,416
 43 465 43 465 41 477 c 0,417,418
 39 486 39 486 39 487 c 0,419,420
 39 489 39 489 38 495 c 0,421,422
 38 497 38 497 34 516 c 1,423,424
 31 536 31 536 26 557 c 0,425,426
 26 559 26 559 25 562.5 c 128,-1,427
 24 566 24 566 23.5 568.5 c 128,-1,428
 23 571 23 571 22 573 c 0,429,430
 22 575 22 575 21.5 579.5 c 128,-1,431
 21 584 21 584 19.5 590.5 c 128,-1,432
 18 597 18 597 17 602 c 0,433,434
 17 604 17 604 15.5 608.5 c 128,-1,435
 14 613 14 613 13.5 615 c 128,-1,436
 13 617 13 617 13 619 c 128,-1,437
 13 621 13 621 12.5 622.5 c 128,-1,438
 12 624 12 624 12 625 c 0,439,440
 11 628 11 628 10 634 c 0,441,442
 8 651 8 651 0 681 c 0,443,0
 -3 693 -3 693 -3 698 c 128,-1,1
EndSplineSet
EndChar

StartChar: X
Encoding: 88 88 59
Width: 332
GlyphClass: 2
Flags: W
LayerCount: 2
Fore
SplineSet
-13 5 m 0,0,1
 -13 9 -13 9 -8 21 c 0,2,3
 -2 36 -2 36 0 43 c 0,4,5
 3 52 3 52 4 53 c 0,6,7
 6 56 6 56 15.5 80.5 c 128,-1,8
 25 105 25 105 31 121 c 0,9,10
 35 134 35 134 36 136 c 0,11,12
 38 139 38 139 40 144 c 0,13,14
 40 145 40 145 41 148 c 128,-1,15
 42 151 42 151 43 153 c 0,16,17
 46 163 46 163 49 169 c 2,18,-1
 54 184 l 2,19,20
 54 185 54 185 61 202 c 2,21,-1
 67 218 l 2,22,23
 68 219 68 219 74 236 c 0,24,25
 81 258 81 258 98 302 c 1,26,-1
 103 316 l 2,27,28
 103 317 103 317 106 323 c 0,29,30
 110 330 110 330 115.5 345 c 128,-1,31
 121 360 121 360 121 364 c 0,32,33
 121 374 121 374 114 387 c 0,34,35
 111 394 111 394 100 424 c 0,36,37
 96 435 96 435 90 452 c 0,38,39
 83 471 83 471 77 486 c 0,40,41
 63 526 63 526 56 542 c 0,42,43
 51 552 51 552 50 559 c 0,44,45
 49 564 49 564 47 566 c 0,46,47
 44 570 44 570 41 582 c 1,48,49
 35 598 35 598 34 600 c 0,50,51
 32 606 32 606 24 625 c 2,52,-1
 16 646 l 2,53,54
 14 651 14 651 11 659 c 0,55,56
 10 661 10 661 6.5 669 c 128,-1,57
 3 677 3 677 2 681 c 0,58,59
 -7 703 -7 703 -1 705 c 0,60,61
 0 705 0 705 12 706 c 1,62,63
 25 706 25 706 47 705 c 0,64,65
 93 704 93 704 94 703 c 0,66,67
 96 702 96 702 96 699 c 0,68,69
 96 693 96 693 125 605 c 0,70,71
 146 544 146 544 149 529 c 0,72,73
 157 498 157 498 164 479 c 0,74,75
 165 476 165 476 167.5 475.5 c 128,-1,76
 170 475 170 475 172 478 c 0,77,78
 175 485 175 485 199 563 c 0,79,80
 200 569 200 569 211 603 c 0,81,82
 227 650 227 650 238 689 c 0,83,84
 240 698 240 698 243 703 c 0,85,86
 244 705 244 705 290 705 c 2,87,-1
 335 705 l 1,88,-1
 338 701 l 2,89,90
 339 699 339 699 338.5 696 c 128,-1,91
 338 693 338 693 334 684 c 0,92,93
 331 678 331 678 324 659 c 0,94,95
 321 649 321 649 317 639 c 0,96,97
 313 630 313 630 313 628 c 128,-1,98
 313 626 313 626 310 620 c 1,99,100
 306 615 306 615 298 591 c 0,101,102
 277 529 277 529 275 523 c 0,103,104
 274 520 274 520 269 507 c 0,105,106
 259 484 259 484 247 450 c 0,107,108
 245 444 245 444 241 434.5 c 128,-1,109
 237 425 237 425 234.5 419 c 128,-1,110
 232 413 232 413 231 411 c 0,111,112
 227 402 227 402 224 391 c 2,113,-1
 217 372 l 1,114,-1
 214 363 l 1,115,-1
 217 355 l 1,116,117
 223 342 223 342 227 332 c 0,118,119
 228 329 228 329 231.5 319.5 c 128,-1,120
 235 310 235 310 236 307 c 0,121,122
 247 279 247 279 250 269 c 0,123,124
 262 232 262 232 284 174 c 1,125,-1
 289 159 l 2,126,127
 290 155 290 155 293 148 c 0,128,129
 297 138 297 138 302 126 c 0,130,131
 314 90 314 90 319 77 c 0,132,133
 319 76 319 76 326 60 c 0,134,135
 328 53 328 53 332 43 c 0,136,137
 335 37 335 37 339 24 c 128,-1,138
 343 11 343 11 344 6 c 2,139,-1
 345 2 l 2,140,141
 345 1 345 1 344 1 c 1,142,143
 344 0 344 0 341 -1 c 1,144,-1
 328 -1 l 1,145,-1
 296 -1 l 2,146,147
 254 -1 254 -1 253 0 c 128,-1,148
 252 1 252 1 240 37 c 0,149,150
 228 74 228 74 195 176 c 0,151,152
 191 189 191 189 191 190 c 0,153,154
 191 192 191 192 188 203 c 0,155,156
 182 222 182 222 178 237 c 0,157,158
 173 258 173 258 168 259 c 0,159,160
 166 259 166 259 164.5 256 c 128,-1,161
 163 253 163 253 159 240 c 0,162,163
 159 238 159 238 156.5 229.5 c 128,-1,164
 154 221 154 221 153 218 c 0,165,166
 150 208 150 208 146 192 c 0,167,168
 141 175 141 175 137 165 c 0,169,170
 136 160 136 160 130.5 145.5 c 128,-1,171
 125 131 125 131 124 126 c 0,172,173
 122 117 122 117 108 79 c 0,174,175
 105 71 105 71 101.5 59.5 c 128,-1,176
 98 48 98 48 98 47 c 0,177,178
 98 45 98 45 92 28 c 0,179,180
 87 14 87 14 85 8 c 2,181,-1
 83 0 l 1,182,-1
 44 0 l 1,183,-1
 -3 0 l 2,184,185
 -13 0 -13 0 -13 5 c 0,0,1
EndSplineSet
EndChar

StartChar: Y
Encoding: 89 89 60
Width: 317
GlyphClass: 2
Flags: W
LayerCount: 2
Fore
SplineSet
-24 700 m 128,-1,1
 -24 701 -24 701 -22 703 c 0,2,3
 -20 704 -20 704 9 704 c 2,4,-1
 25 704 l 2,5,6
 71 704 71 704 72 702 c 0,7,8
 74 700 74 700 76 689 c 0,9,10
 78 679 78 679 82 668 c 0,11,12
 89 644 89 644 94 625 c 0,13,14
 97 613 97 613 99 609 c 0,15,16
 101 602 101 602 101 600 c 128,-1,17
 101 598 101 598 103 596 c 2,18,-1
 104 594 l 1,19,20
 104 591 104 591 105.5 587 c 128,-1,21
 107 583 107 583 108 581 c 128,-1,22
 109 579 109 579 110 575 c 128,-1,23
 111 571 111 571 112 568 c 128,-1,24
 113 565 113 565 113 564 c 128,-1,25
 113 563 113 563 114.5 558 c 128,-1,26
 116 553 116 553 117 551 c 0,27,28
 117 550 117 550 119.5 541.5 c 128,-1,29
 122 533 122 533 123 528 c 0,30,31
 127 511 127 511 128 509 c 0,32,33
 130 502 130 502 130 500 c 0,34,35
 132 495 132 495 138 471 c 0,36,37
 139 468 139 468 145 447 c 2,38,-1
 150 427 l 2,39,40
 150 425 150 425 152 421 c 2,41,-1
 153 417 l 2,42,43
 154 413 154 413 156 411 c 1,44,45
 159 410 159 410 161.5 412 c 128,-1,46
 164 414 164 414 166 420 c 0,47,48
 170 438 170 438 173 448 c 0,49,50
 174 451 174 451 175.5 457.5 c 128,-1,51
 177 464 177 464 178 465 c 1,52,53
 178 468 178 468 186 492 c 0,54,55
 187 497 187 497 189 504.5 c 128,-1,56
 191 512 191 512 192.5 517 c 128,-1,57
 194 522 194 522 195 524 c 0,58,59
 200 543 200 543 201 545 c 0,60,61
 204 555 204 555 206 563 c 2,62,-1
 210 580 l 1,63,64
 221 613 221 613 221 617 c 0,65,66
 221 619 221 619 223 624 c 128,-1,67
 225 629 225 629 232 653 c 0,68,69
 233 659 233 659 235.5 666 c 128,-1,70
 238 673 238 673 239 677.5 c 128,-1,71
 240 682 240 682 240 683 c 0,72,73
 241 686 241 686 243 693 c 0,74,75
 244 699 244 699 248 702 c 0,76,77
 250 704 250 704 258 704 c 2,78,-1
 296 704 l 1,79,-1
 333 704 l 2,80,81
 340 704 340 704 340 702 c 2,82,-1
 341 699 l 2,83,84
 341 696 341 696 340 690 c 0,85,86
 338 681 338 681 336 678 c 128,-1,87
 334 675 334 675 333 669 c 0,88,89
 330 659 330 659 327 652 c 0,90,91
 322 640 322 640 322 638 c 1,92,93
 320 636 320 636 312 610 c 0,94,95
 301 578 301 578 301 577 c 0,96,97
 301 575 301 575 298 566 c 128,-1,98
 295 557 295 557 294 552 c 0,99,100
 292 546 292 546 285 523 c 0,101,102
 277 498 277 498 273 490 c 1,103,104
 263 462 263 462 261 450 c 0,105,106
 259 440 259 440 252 423 c 0,107,108
 245 407 245 407 245 404 c 0,109,110
 245 403 245 403 240.5 388 c 128,-1,111
 236 373 236 373 234 370 c 1,112,113
 234 368 234 368 231 359 c 0,114,115
 230 355 230 355 223 334 c 0,116,117
 216 314 216 314 212 301 c 0,118,119
 211 297 211 297 207 289 c 2,120,-1
 204 281 l 1,121,-1
 204 141 l 2,122,123
 204 1 204 1 203 0 c 128,-1,124
 202 -1 202 -1 183 -1 c 1,125,126
 174 0 174 0 160 -0 c 2,127,128
 114 0 l 1,129,130
 112 1 112 1 111 9 c 1,131,-1
 111 24 l 1,132,-1
 111 56 l 1,133,134
 112 114 112 114 112 198 c 2,135,-1
 112 287 l 1,136,-1
 104 312 l 2,137,138
 102 317 102 317 99.5 324.5 c 128,-1,139
 97 332 97 332 95.5 335.5 c 128,-1,140
 94 339 94 339 94 340 c 2,141,-1
 92 346 l 2,142,143
 89 353 89 353 88 357 c 2,144,-1
 78 390 l 2,145,146
 74 402 74 402 70 415 c 0,147,148
 69 421 69 421 54 464 c 0,149,150
 51 473 51 473 47 485.5 c 128,-1,151
 43 498 43 498 41 504.5 c 128,-1,152
 39 511 39 511 38 513 c 0,153,154
 36 520 36 520 28.5 542 c 128,-1,155
 21 564 21 564 19 569 c 128,-1,156
 17 574 17 574 14 587 c 0,157,158
 8 608 8 608 -7 648 c 0,159,160
 -9 655 -9 655 -12 666 c 0,161,162
 -15 678 -15 678 -20 688 c 1,163,0
 -24 699 -24 699 -24 700 c 128,-1,1
EndSplineSet
EndChar

StartChar: Z
Encoding: 90 90 61
Width: 297
GlyphClass: 2
Flags: W
LayerCount: 2
Fore
SplineSet
-15 3 m 0,0,1
 -15 5 -15 5 -11.5 15.5 c 128,-1,2
 -8 26 -8 26 -6 31 c 0,3,4
 -5 33 -5 33 -3 41 c 0,5,6
 -3 42 -3 42 0 49.5 c 128,-1,7
 3 57 3 57 4 61 c 0,8,9
 5 64 5 64 6.5 68 c 128,-1,10
 8 72 8 72 9 75 c 128,-1,11
 10 78 10 78 10 79 c 128,-1,12
 10 80 10 80 11.5 84 c 128,-1,13
 13 88 13 88 15.5 95 c 128,-1,14
 18 102 18 102 19 107 c 0,15,16
 29 138 29 138 36 165 c 0,17,18
 37 172 37 172 42 184 c 2,19,-1
 52 214 l 2,20,21
 58 232 58 232 58 236 c 1,22,23
 60 241 60 241 60 243 c 128,-1,24
 60 245 60 245 61 249 c 1,25,26
 65 256 65 256 71 278 c 0,27,28
 73 286 73 286 74 289 c 0,29,30
 76 296 76 296 77 298 c 0,31,32
 77 299 77 299 79 307 c 0,33,34
 80 309 80 309 83 317 c 1,35,36
 84 324 84 324 87 331 c 0,37,38
 90 337 90 337 90 338.5 c 128,-1,39
 90 340 90 340 94 354 c 0,40,41
 101 374 101 374 107 395 c 0,42,43
 108 399 108 399 111 408.5 c 128,-1,44
 114 418 114 418 115 422 c 0,45,46
 120 434 120 434 120 438 c 0,47,48
 121 444 121 444 132 475 c 0,49,50
 134 481 134 481 135 488 c 0,51,52
 135 489 135 489 136.5 493 c 128,-1,53
 138 497 138 497 139 499 c 0,54,55
 140 500 140 500 143 508 c 0,56,57
 143 510 143 510 145 517 c 0,58,59
 146 520 146 520 151 538 c 0,60,61
 151 539 151 539 155 551.5 c 128,-1,62
 159 564 159 564 161 570 c 0,63,64
 166 588 166 588 167 591 c 2,65,-1
 169 597 l 2,66,67
 171 602 171 602 172 604 c 0,68,69
 175 612 175 612 176 618 c 1,70,-1
 176 625 l 1,71,-1
 150 625 l 2,72,73
 141 625 141 625 68 623 c 1,74,-1
 44 623 l 2,75,76
 13 623 13 623 11 624 c 0,77,78
 5 627 5 627 9 638 c 0,79,80
 10 642 10 642 11 647 c 0,81,82
 12 653 12 653 13 654 c 128,-1,83
 14 655 14 655 18 671 c 0,84,85
 18 673 18 673 21 684 c 0,86,87
 22 690 22 690 23 695 c 0,88,89
 24 699 24 699 25.5 700.5 c 128,-1,90
 27 702 27 702 33 703 c 0,91,92
 37 703 37 703 40 704 c 0,93,94
 41 704 41 704 42 704 c 0,95,96
 46 703 46 703 139 702 c 1,97,-1
 173 702 l 2,98,99
 236 702 236 702 256 703 c 1,100,-1
 277 703 l 1,101,-1
 288 703 l 2,102,103
 294 703 294 703 295 700 c 128,-1,104
 296 697 296 697 288 671 c 1,105,106
 280 649 280 649 274 628 c 0,107,108
 272 620 272 620 270 618 c 0,109,110
 268 614 268 614 268 611 c 128,-1,111
 268 608 268 608 263.5 597.5 c 128,-1,112
 259 587 259 587 259 584 c 128,-1,113
 259 581 259 581 252 556 c 1,114,-1
 249 547 l 1,115,-1
 247 541 l 2,116,117
 246 538 246 538 243 527 c 0,118,119
 240 519 240 519 235 503 c 0,120,121
 231 487 231 487 229 483 c 0,122,123
 228 479 228 479 226 472 c 0,124,125
 225 468 225 468 219 454 c 0,126,127
 215 443 215 443 205 405 c 0,128,129
 198 377 198 377 193 365 c 0,130,131
 192 363 192 363 189 354 c 0,132,133
 186 346 186 346 186 344 c 0,134,135
 186 341 186 341 169 290 c 0,136,137
 167 283 167 283 162 267 c 0,138,139
 161 264 161 264 158.5 255 c 128,-1,140
 156 246 156 246 155 242 c 0,141,142
 149 222 149 222 146 213 c 0,143,144
 141 195 141 195 140 194 c 0,145,146
 138 188 138 188 136 181 c 0,147,148
 136 179 136 179 134.5 176 c 128,-1,149
 133 173 133 173 132.5 170.5 c 128,-1,150
 132 168 132 168 132 167 c 0,151,152
 127 151 127 151 122 137 c 0,153,154
 120 130 120 130 109 99 c 0,155,156
 101 78 101 78 106 75 c 0,157,158
 109 73 109 73 116 74 c 128,-1,159
 123 75 123 75 209 76 c 1,160,-1
 275 76 l 1,161,-1
 299 76 l 1,162,163
 302 75 302 75 302 71 c 0,164,165
 302 65 302 65 296.5 51.5 c 128,-1,166
 291 38 291 38 289 30 c 0,167,168
 280 1 280 1 277.5 0 c 128,-1,169
 275 -1 275 -1 232 -1 c 0,170,171
 203 -1 203 -1 156 0 c 1,172,173
 39 0 39 0 13 -1 c 0,174,175
 4 -1 4 -1 -1 -2 c 0,176,177
 -6 -2 -6 -2 -10 -1 c 0,178,179
 -15 0 -15 0 -15 3 c 0,0,1
EndSplineSet
EndChar

StartChar: bracketleft
Encoding: 91 91 62
Width: 261
GlyphClass: 2
Flags: W
LayerCount: 2
Fore
SplineSet
70 -17 m 2,0,1
 70 12 70 12 72 389 c 1,2,3
 72 745 72 745 74 745 c 1,4,5
 75 746 75 746 163 747 c 0,6,7
 251 747 251 747 254 745 c 1,8,9
 256 742 256 742 257 727 c 1,10,11
 257 711 257 711 254 709 c 0,12,13
 253 708 253 708 233 708 c 2,14,15
 207 708 l 2,16,17
 167 708 167 708 153 709 c 0,18,19
 143 709 143 709 142 708 c 128,-1,20
 141 707 141 707 139 348 c 1,21,22
 139 -7 139 -7 138 -17 c 0,23,24
 137 -23 137 -23 138 -27 c 2,25,-1
 139 -31 l 1,26,-1
 193 -31 l 2,27,28
 215 -31 215 -31 228.5 -30.5 c 128,-1,29
 242 -30 242 -30 246 -31 c 0,30,31
 254 -32 254 -32 255 -38 c 0,32,33
 256 -43 256 -43 255 -55 c 128,-1,34
 254 -67 254 -67 252 -68 c 128,-1,35
 250 -69 250 -69 161.5 -69 c 128,-1,36
 73 -69 73 -69 71 -68 c 0,37,38
 70 -67 70 -67 70 -44 c 2,39,40
 70 -17 l 2,0,1
EndSplineSet
EndChar

StartChar: backslash
Encoding: 92 92 63
Width: 252
GlyphClass: 2
Flags: W
LayerCount: 2
Fore
SplineSet
-22 699.5 m 128,-1,1
 -22 701 -22 701 -20 703 c 0,2,3
 -19 705 -19 705 -15 705 c 2,4,-1
 4 705 l 2,5,6
 26 705 26 705 30 704 c 1,7,8
 33 702 33 702 36 692 c 0,9,10
 42 665 42 665 50 645 c 1,11,-1
 57 621 l 2,12,13
 66 592 66 592 66 591 c 0,14,15
 71 576 71 576 73 569 c 0,16,17
 74 563 74 563 79 552 c 0,18,19
 92 516 92 516 92 505 c 1,20,21
 93 496 93 496 98 482 c 0,22,23
 103 467 103 467 104 465 c 0,24,25
 104 464 104 464 113.5 432 c 128,-1,26
 123 400 123 400 129 384 c 2,27,-1
 135 365 l 1,28,29
 140 345 140 345 145 333 c 0,30,31
 149 323 149 323 151 313 c 128,-1,32
 153 303 153 303 156 299 c 1,33,34
 158 292 158 292 160 286 c 1,35,36
 161 279 161 279 165 268 c 0,37,38
 168 261 168 261 170 250 c 0,39,40
 172 240 172 240 176 229 c 128,-1,41
 180 218 180 218 181 213 c 1,42,43
 181 207 181 207 183 207 c 1,44,45
 184 206 184 206 184 203 c 0,46,47
 184 201 184 201 191.5 177 c 128,-1,48
 199 153 199 153 201 150 c 0,49,50
 202 148 202 148 202 145 c 0,51,52
 202 140 202 140 210 120 c 0,53,54
 212 115 212 115 213 110 c 128,-1,55
 214 105 214 105 219 89 c 128,-1,56
 224 73 224 73 225 71 c 2,57,-1
 229 58 l 2,58,59
 229 56 229 56 231 50 c 2,60,-1
 236 35 l 1,61,-1
 241 20 l 2,62,63
 250 -8 250 -8 251 -17 c 2,64,-1
 252 -25 l 1,65,-1
 228 -25 l 2,66,67
 207 -25 207 -25 203.5 -23 c 128,-1,68
 200 -21 200 -21 197 -11 c 0,69,70
 185 27 185 27 183 35 c 0,71,72
 183 36 183 36 182 38.5 c 128,-1,73
 181 41 181 41 180 43 c 128,-1,74
 179 45 179 45 179 47 c 0,75,76
 179 48 179 48 175.5 58 c 128,-1,77
 172 68 172 68 171 74 c 0,78,79
 170 77 170 77 167.5 85.5 c 128,-1,80
 165 94 165 94 163 100.5 c 128,-1,81
 161 107 161 107 159 111 c 1,82,83
 158 116 158 116 155 126 c 128,-1,84
 152 136 152 136 151 138 c 0,85,86
 137 181 137 181 136 186 c 0,87,88
 135 190 135 190 125 225 c 0,89,90
 123 234 123 234 121 235 c 0,91,92
 120 236 120 236 120 239 c 0,93,94
 120 240 120 240 112 266 c 0,95,96
 104 289 104 289 100 306 c 1,97,98
 95 320 95 320 93 330 c 1,99,100
 93 336 93 336 85 359 c 128,-1,101
 77 382 77 382 70 405 c 0,102,103
 68 411 68 411 65 421.5 c 128,-1,104
 62 432 62 432 60 438 c 0,105,106
 49 475 49 475 47 479 c 0,107,108
 47 480 47 480 43 491 c 1,109,110
 42 497 42 497 35 520 c 0,111,112
 34 524 34 524 31.5 530.5 c 128,-1,113
 29 537 29 537 28 541 c 128,-1,114
 27 545 27 545 27 546 c 0,115,116
 24 554 24 554 19 571 c 0,117,118
 18 575 18 575 16 581 c 128,-1,119
 14 587 14 587 13 590.5 c 128,-1,120
 12 594 12 594 12 595 c 0,121,122
 -3 642 -3 642 -7 653 c 0,123,124
 -7 654 -7 654 -8 656.5 c 128,-1,125
 -9 659 -9 659 -9.5 661 c 128,-1,126
 -10 663 -10 663 -11 665 c 0,127,128
 -15 681 -15 681 -21 694 c 0,129,0
 -22 698 -22 698 -22 699.5 c 128,-1,1
EndSplineSet
EndChar

StartChar: bracketright
Encoding: 93 93 64
Width: 260
GlyphClass: 2
Flags: W
LayerCount: 2
Fore
SplineSet
4 -52 m 0,0,1
 4 -40 4 -40 4.5 -37 c 128,-1,2
 5 -34 5 -34 7 -33.5 c 128,-1,3
 9 -33 9 -33 65 -33 c 2,4,-1
 121 -33 l 1,5,-1
 122 -29 l 1,6,-1
 122 -18 l 1,7,-1
 122 12 l 1,8,-1
 122 54 l 1,9,-1
 122 110 l 1,10,-1
 122 171 l 2,11,12
 122 217 122 217 122.5 351 c 128,-1,13
 123 485 123 485 123 536 c 0,14,15
 123 705 123 705 122 706 c 0,16,17
 119 707 119 707 65 707 c 0,18,19
 10 707 10 707 9 708 c 0,20,21
 7 710 7 710 7 725.5 c 128,-1,22
 7 741 7 741 9 743 c 0,23,24
 10 745 10 745 100 745 c 0,25,26
 149 745 149 745 190 744 c 1,27,-1
 190 656 l 1,28,29
 190 390 l 1,30,31
 189 195 189 195 189 -17 c 0,32,33
 189 -69 189 -69 188 -69 c 1,34,35
 188 -70 188 -70 98 -70 c 0,36,37
 68 -70 68 -70 48 -71 c 1,38,39
 8 -71 8 -71 6 -70 c 0,40,41
 4 -70 4 -70 4 -52 c 0,0,1
EndSplineSet
EndChar

StartChar: asciicircum
Encoding: 94 94 65
Width: 377
GlyphClass: 2
Flags: W
LayerCount: 2
Fore
SplineSet
54 757 m 0,0,1
 54 758 54 758 60 767.5 c 128,-1,2
 66 777 66 777 72 784 c 0,3,4
 79 793 79 793 84 801 c 0,5,6
 92 812 92 812 99 821 c 0,7,8
 105 828 105 828 111 836 c 0,9,10
 112 837 112 837 115.5 842.5 c 128,-1,11
 119 848 119 848 121 851 c 0,12,13
 129 862 129 862 133 869 c 0,14,15
 141 880 141 880 142 881 c 128,-1,16
 143 882 143 882 147 888 c 1,17,18
 149 893 149 893 152 894.5 c 128,-1,19
 155 896 155 896 165 896 c 2,20,-1
 180 896 l 2,21,22
 182 896 182 896 204 895 c 0,23,24
 220 894 220 894 224 893.5 c 128,-1,25
 228 893 228 893 231 890 c 0,26,27
 236 886 236 886 237 883 c 0,28,29
 237 882 237 882 245.5 869 c 128,-1,30
 254 856 254 856 262 847 c 0,31,32
 263 845 263 845 265 842.5 c 128,-1,33
 267 840 267 840 267 839 c 2,34,-1
 268 838 l 2,35,36
 268 837 268 837 276 827 c 0,37,38
 278 824 278 824 283.5 816.5 c 128,-1,39
 289 809 289 809 291 806 c 0,40,41
 293 804 293 804 295.5 800.5 c 128,-1,42
 298 797 298 797 300.5 793.5 c 128,-1,43
 303 790 303 790 304 789 c 0,44,45
 311 780 311 780 317.5 770 c 128,-1,46
 324 760 324 760 324 759 c 0,47,48
 324 757 324 757 322 754.5 c 128,-1,49
 320 752 320 752 318 751 c 1,50,51
 312 751 312 751 305 752 c 1,52,-1
 281 752 l 1,53,54
 278 752 l 2,55,56
 258 752 258 752 251 764 c 0,57,58
 250 767 250 767 244 773 c 0,59,60
 244 774 244 774 241 778 c 128,-1,61
 238 782 238 782 234 788.5 c 128,-1,62
 230 795 230 795 226 800 c 0,63,64
 213 818 213 818 206 830 c 0,65,66
 193 851 193 851 189 852 c 0,67,68
 188 852 188 852 181.5 843.5 c 128,-1,69
 175 835 175 835 173 831 c 0,70,71
 159 810 159 810 157 808 c 0,72,73
 150 799 150 799 144 787 c 0,74,75
 142 784 142 784 136 776 c 0,76,77
 131 770 131 770 128 764 c 0,78,79
 124 758 124 758 121 755 c 0,80,81
 119 753 119 753 88 752 c 0,82,83
 65 752 65 752 59.5 752.5 c 128,-1,84
 54 753 54 753 54 757 c 0,0,1
EndSplineSet
EndChar

StartChar: underscore
Encoding: 95 95 66
Width: 478
GlyphClass: 2
Flags: W
LayerCount: 2
Fore
SplineSet
242 668 m 0,0,1
 242 669 242 669 245 669 c 128,-1,2
 248 669 248 669 250 668 c 0,3,4
 253 666 253 666 253 663.5 c 128,-1,5
 253 661 253 661 250 661 c 0,6,7
 248 661 248 661 245 663.5 c 128,-1,8
 242 666 242 666 242 668 c 0,0,1
0 -66 m 128,-1,10
 0 -44 0 -44 1 -42 c 0,11,12
 3 -39 3 -39 6 -39 c 2,13,-1
 240 -39 l 1,14,-1
 476 -39 l 2,15,16
 477 -39 477 -39 478 -64 c 0,17,18
 478 -85 478 -85 476 -90 c 0,19,20
 475 -94 475 -94 470 -94 c 0,21,22
 469 -94 469 -94 468 -94 c 0,23,24
 466 -93 466 -93 419 -93 c 2,25,-1
 371 -93 l 1,26,-1
 89 -93 l 2,27,28
 58 -93 58 -93 40.5 -93.5 c 128,-1,29
 23 -94 23 -94 14.5 -93.5 c 128,-1,30
 6 -93 6 -93 4 -92.5 c 128,-1,31
 2 -92 2 -92 2 -91 c 0,32,9
 0 -88 0 -88 0 -66 c 128,-1,10
EndSplineSet
EndChar

StartChar: grave
Encoding: 96 96 67
Width: 186
GlyphClass: 2
Flags: W
LayerCount: 2
Fore
SplineSet
-30 668 m 0,0,1
 -30 672 -30 672 -26 674 c 0,2,3
 -22 675 -22 675 -19.5 675 c 128,-1,4
 -17 675 -17 675 -16 674 c 128,-1,5
 -15 673 -15 673 15 673 c 128,-1,6
 45 673 45 673 48 672 c 128,-1,7
 51 671 51 671 64 652 c 0,8,9
 87 619 87 619 96.5 605 c 128,-1,10
 106 591 106 591 111 584 c 0,11,12
 120 572 120 572 123 569 c 0,13,14
 129 562 129 562 136 552 c 128,-1,15
 143 542 143 542 146 538 c 2,16,-1
 150 533 l 1,17,-1
 146 530 l 2,18,19
 144 528 144 528 134 528 c 2,20,21
 127 528 l 1,22,23
 100 530 100 530 93.5 532 c 128,-1,24
 87 534 87 534 79 544 c 0,25,26
 72 553 72 553 71 553 c 0,27,28
 69 554 69 554 59.5 566 c 128,-1,29
 50 578 50 578 50 579 c 128,-1,30
 50 580 50 580 38 591 c 0,31,32
 23 605 23 605 14 616 c 128,-1,33
 5 627 5 627 -7 640 c 0,34,35
 -23 657 -23 657 -26.5 661 c 128,-1,36
 -30 665 -30 665 -30 668 c 0,0,1
EndSplineSet
EndChar

StartChar: a
Encoding: 97 97 68
Width: 375
GlyphClass: 2
Flags: W
LayerCount: 2
Fore
SplineSet
117 155 m 2,0,1
 117 131 117 131 119 126 c 0,2,3
 120 123 120 123 121 120 c 0,4,5
 121 117 121 117 127 104 c 128,-1,6
 133 91 133 91 137 87 c 0,7,8
 143 81 143 81 155.5 76 c 128,-1,9
 168 71 168 71 177 71 c 0,10,11
 178 71 178 71 179 71 c 0,12,13
 185 71 185 71 195 74 c 0,14,15
 207 78 207 78 213 82 c 0,16,17
 234 95 234 95 242 130 c 0,18,19
 245 145 245 145 245 168 c 0,20,21
 245 189 245 189 243 194 c 0,22,23
 242 197 242 197 239 208 c 0,24,25
 237 217 237 217 235 220 c 0,26,27
 232 223 232 223 232 226 c 128,-1,28
 232 229 232 229 223 238.5 c 128,-1,29
 214 248 214 248 207 250 c 1,30,31
 197 255 197 255 183 256 c 0,32,33
 180 256 180 256 177 256 c 0,34,35
 167 256 167 256 161 254 c 0,36,37
 143 246 143 246 135 236 c 0,38,39
 121 217 121 217 118 189 c 0,40,41
 117 182 117 182 117 166 c 2,42,-1
 117 155 l 2,0,1
28 159 m 0,43,44
 28 176 28 176 30 192 c 0,45,46
 34 224 34 224 45 247 c 0,47,48
 50 257 50 257 50 259 c 0,49,50
 50 260 50 260 57 271 c 0,51,52
 62 279 62 279 75.5 292 c 128,-1,53
 89 305 89 305 96 310 c 0,54,55
 102 314 102 314 109.5 317.5 c 128,-1,56
 117 321 117 321 120 321 c 0,57,58
 121 321 121 321 133 326 c 0,59,60
 137 327 137 327 151 327.5 c 128,-1,61
 165 328 165 328 173 327 c 0,62,63
 207 322 207 322 228 306 c 0,64,65
 234 301 234 301 239 298 c 1,66,67
 244 297 244 297 245 299 c 0,68,69
 247 302 247 302 247 312 c 0,70,71
 247 320 247 320 246 332 c 0,72,73
 246 334 246 334 243 358 c 1,74,75
 241 384 241 384 230 397 c 0,76,77
 221 409 221 409 211.5 414 c 128,-1,78
 202 419 202 419 182 423 c 0,79,80
 174 424 174 424 158.5 424 c 128,-1,81
 143 424 143 424 132 423 c 0,82,83
 127 422 127 422 116 420 c 0,84,85
 111 419 111 419 108 418 c 0,86,87
 107 418 107 418 103 416.5 c 128,-1,88
 99 415 99 415 96 414 c 0,89,90
 85 411 85 411 81 409 c 0,91,92
 69 403 69 403 67 409 c 0,93,94
 66 411 66 411 66 432 c 2,95,-1
 66 444 l 2,96,97
 66 477 66 477 68 479 c 1,98,99
 69 483 69 483 91 487 c 0,100,101
 98 488 98 488 105 490 c 0,102,103
 112 491 112 491 127 493 c 1,104,105
 145 494 145 494 147 495 c 128,-1,106
 149 496 149 496 162 496 c 2,107,-1
 169 496 l 2,108,109
 189 496 189 496 195 495 c 0,110,111
 197 495 197 495 204.5 493.5 c 128,-1,112
 212 492 212 492 213 492 c 0,113,114
 233 489 233 489 253 480.5 c 128,-1,115
 273 472 273 472 285 463 c 0,116,117
 286 462 286 462 290 459 c 2,118,-1
 294 456 l 1,119,120
 300 450 300 450 302 446 c 2,121,-1
 303 444 l 2,122,123
 304 443 304 443 306 440 c 128,-1,124
 308 437 308 437 310 435 c 0,125,126
 323 416 323 416 327 378 c 0,127,128
 329 357 329 357 329 180 c 2,129,-1
 329 116 l 2,130,131
 329 2 329 2 328 1 c 0,132,133
 326 0 326 0 301 0 c 2,134,-1
 292 0 l 2,135,136
 259 0 259 0 256 2 c 0,137,138
 254 3 254 3 254 6.5 c 128,-1,139
 254 10 254 10 255 26 c 1,140,-1
 255 44 l 2,141,142
 255 48 255 48 253 49 c 128,-1,143
 251 50 251 50 244.5 43.5 c 128,-1,144
 238 37 238 37 235 30 c 0,145,146
 234 27 234 27 228 22 c 2,147,-1
 216 13 l 1,148,149
 210 7 210 7 199.5 1.5 c 128,-1,150
 189 -4 189 -4 182 -5 c 0,151,152
 170 -8 170 -8 165 -10 c 0,153,154
 160 -11 160 -11 152 -11 c 0,155,156
 140 -11 140 -11 122 -8 c 0,157,158
 102 -4 102 -4 81 16 c 128,-1,159
 60 36 60 36 48 61 c 0,160,161
 34 92 34 92 30 125 c 0,162,163
 28 143 28 143 28 159 c 0,43,44
EndSplineSet
EndChar

